<?xml version="1.0" encoding="utf-8"?>
<!-- Generator: Adobe Illustrator 22.1.0, SVG Export Plug-In . SVG Version: 6.00 Build 0)  -->
<svg version="1.1" id="Layer_1" xmlns="http://www.w3.org/2000/svg" xmlns:xlink="http://www.w3.org/1999/xlink" x="0px" y="0px"
	 viewBox="0 0 50 50" style="enable-background:new 0 0 50 50;" xml:space="preserve">
<style type="text/css">
	.st0{fill:#FFFFFF;}
	.st1{fill:#13D8B9;}
</style>
<g>
	<path class="st0" d="M25,0c13.8,0,25,11.2,25,25S38.8,50,25,50S0,38.8,0,25S11.2,0,25,0z"/>
	<path class="st1" d="M33.6,10.9H16.4c-3,0-5.4,2.4-5.4,5.4v17.3c0,3,2.4,5.4,5.4,5.4h17.3c3,0,5.4-2.4,5.4-5.4V16.4
		C39.1,13.4,36.6,10.9,33.6,10.9z M35.3,14.1l0.6,0v4.7l-4.7,0l0-4.7C31.2,14.1,35.3,14.1,35.3,14.1z M25,20.3
		c3.9,0,4.7,3.7,4.7,4.7c0,2.6-2.1,4.7-4.7,4.7c-2.6,0-4.7-2.1-4.7-4.7C20.3,24,21.1,20.3,25,20.3z M36,33.3c0,1.5-1.2,2.7-2.7,2.7
		H16.7c-1.5,0-2.7-1.2-2.7-2.7V21.9h3.9c-0.4,0.9-0.6,2.1-0.6,3.1c0,4.2,3.4,7.7,7.7,7.7s7.7-3.5,7.7-7.7c0-1-0.2-2.2-0.6-3.1H36
		L36,33.3L36,33.3z"/>
</g>
</svg>
