<?xml version="1.0" encoding="utf-8"?>
<!-- Generator: Adobe Illustrator 22.1.0, SVG Export Plug-In . SVG Version: 6.00 Build 0)  -->
<svg version="1.1" id="Layer_1" xmlns="http://www.w3.org/2000/svg" xmlns:xlink="http://www.w3.org/1999/xlink" x="0px" y="0px"
	 viewBox="0 0 50 50" style="enable-background:new 0 0 50 50;" xml:space="preserve">
<style type="text/css">
	.st0{fill:#FFFFFF;}
	.st1{fill:#13D8B9;}
</style>
<g>
	<path class="st0" d="M25,0c13.8,0,25,11.2,25,25c0,13.8-11.2,25-25,25S0,38.8,0,25C0,11.2,11.2,0,25,0z"/>
	<path class="st1" d="M40.6,16.8c-1.1,0.5-2.3,0.8-3.5,0.9c1.3-0.7,2.2-1.9,2.7-3.3c-1.2,0.7-2.5,1.2-3.9,1.4
		c-1.1-1.1-2.7-1.9-4.4-1.9c-3.4,0-6.1,2.6-6.1,5.9c0,0.5,0.1,0.9,0.2,1.3c-5.1-0.2-9.6-2.6-12.6-6.2c-0.5,0.9-0.8,1.9-0.8,3
		c0,2,1.1,3.9,2.7,4.9c-1,0-1.9-0.3-2.8-0.7v0.1c0,2.9,2.1,5.3,4.9,5.8c-0.5,0.1-1,0.2-1.6,0.2c-0.4,0-0.8,0-1.1-0.1
		c0.8,2.4,3,4.1,5.7,4.1c-2.1,1.6-4.7,2.5-7.6,2.5c-0.5,0-1,0-1.5-0.1c2.7,1.7,5.9,2.7,9.3,2.7c11.2,0,17.3-9,17.3-16.8l0-0.8
		C38.8,19.1,39.8,18,40.6,16.8z"/>
</g>
</svg>
