<?xml version="1.0" encoding="utf-8"?>
<!-- Generator: Adobe Illustrator 22.1.0, SVG Export Plug-In . SVG Version: 6.00 Build 0)  -->
<svg version="1.1" id="Layer_1" xmlns="http://www.w3.org/2000/svg" xmlns:xlink="http://www.w3.org/1999/xlink" x="0px" y="0px"
	 viewBox="0 0 50 50" style="enable-background:new 0 0 50 50;" xml:space="preserve">
<style type="text/css">
	.st0{fill:#FFFFFF;}
	.st1{fill:#13D8B9;}
</style>
<g>
	<path class="st0" d="M25,0c13.8,0,25,11.2,25,25S38.8,50,25,50S0,38.8,0,25S11.2,0,25,0z"/>
	<path class="st1" d="M24.4,20.3c0.8,0,1.4-0.3,1.9-0.6c0.5-0.4,0.7-0.8,0.7-1.5v-3.8c0-0.6-0.2-1-0.7-1.4c-0.5-0.4-1.1-0.5-1.8-0.5
		c-0.8,0-1.4,0.2-1.9,0.5c-0.5,0.3-0.7,0.8-0.7,1.4v3.8c0,0.6,0.2,1.1,0.7,1.5C23,20.1,23.6,20.3,24.4,20.3z M23.6,14.6
		c0-0.1,0.1-0.3,0.2-0.4c0.2-0.1,0.3-0.1,0.6-0.1c0.3,0,0.5,0,0.6,0.1c0.2,0.1,0.2,0.2,0.2,0.4v3.6c0,0.2-0.1,0.3-0.2,0.4
		c-0.2,0.1-0.4,0.2-0.6,0.2c-0.3,0-0.5,0-0.6-0.2c-0.1-0.1-0.2-0.2-0.2-0.4V14.6z M29.6,20.3c0.3,0,0.6-0.2,0.9-0.3
		c0.3-0.2,0.6-0.4,0.9-0.7v0.8h1.5v-7.6h-1.5v5.8c-0.1,0.2-0.3,0.3-0.5,0.4c-0.2,0.1-0.3,0.2-0.4,0.2c-0.1,0-0.2,0-0.3-0.1
		c-0.1-0.1-0.1-0.2-0.1-0.4v-5.8h-1.5v6.4c0,0.5,0.1,0.8,0.3,1C29,20.1,29.3,20.3,29.6,20.3z M33.9,23.5H16.1
		c-2.8,0-5.1,2.2-5.1,4.9v4.2c0,2.7,2.3,4.9,5.1,4.9h17.8c2.8,0,5.1-2.2,5.1-4.9v-4.2C39.1,25.7,36.8,23.5,33.9,23.5z M18.7,27.7
		h-1.6v6.5h-1.5v-6.5h-1.6v-1.1h4.7C18.7,26.6,18.7,27.7,18.7,27.7z M23.4,34.3h-1.6v-0.7c-0.3,0.3-0.6,0.4-1,0.6
		c-0.3,0.1-0.6,0.2-1,0.2c-0.4,0-0.7-0.1-0.9-0.3c-0.2-0.2-0.3-0.5-0.3-0.8v-5.2h1.6v4.7c0,0.1,0,0.3,0.1,0.3
		c0.1,0.1,0.2,0.1,0.3,0.1c0.1,0,0.3,0,0.5-0.1c0.2-0.1,0.4-0.2,0.5-0.3v-4.7h1.6C23.4,28.1,23.4,34.3,23.4,34.3z M29.7,33.1
		c0,0.4-0.1,0.7-0.4,0.9c-0.3,0.2-0.6,0.3-1.1,0.3c-0.3,0-0.6,0-0.9-0.1c-0.2-0.1-0.5-0.2-0.7-0.4v0.4H25v-7.7h1.6v2.5
		c0.2-0.2,0.5-0.3,0.7-0.4c0.2-0.1,0.5-0.1,0.8-0.1c0.5,0,0.9,0.1,1.2,0.4c0.3,0.2,0.4,0.6,0.4,1.1C29.7,30,29.7,33.1,29.7,33.1z
		 M35.9,31.4h-3v1.1c0,0.3,0,0.5,0.2,0.6c0.1,0.1,0.3,0.2,0.5,0.2c0.3,0,0.4-0.1,0.6-0.2c0.1-0.1,0.2-0.3,0.2-0.7v-0.3h1.6v0.3
		c0,0.6-0.2,1.1-0.6,1.4c-0.4,0.3-1,0.5-1.8,0.5c-0.7,0-1.3-0.2-1.7-0.5c-0.4-0.3-0.6-0.8-0.6-1.3v-2.7c0-0.5,0.2-0.9,0.7-1.3
		c0.4-0.3,1-0.5,1.7-0.5c0.7,0,1.3,0.2,1.7,0.4c0.4,0.3,0.6,0.7,0.6,1.3C35.9,29.9,35.9,31.4,35.9,31.4z M17.8,20.3h1.9v-4.5
		l2.2-6.4H20l-1.2,4.4h-0.1l-1.2-4.4h-1.9l2.2,6.6C17.8,16,17.8,20.3,17.8,20.3z M27.3,29.4L27,29.5l-0.3,0.2v3.6
		c0.1,0.1,0.3,0.2,0.4,0.2l0.4,0.1c0.2,0,0.3,0,0.4-0.1c0.1-0.1,0.1-0.2,0.1-0.4v-3c0-0.2-0.1-0.3-0.2-0.4
		C27.7,29.5,27.5,29.4,27.3,29.4z"/>
	<path class="st1" d="M33.7,29.2c-0.3,0-0.4,0.1-0.5,0.2C33,29.4,33,29.6,33,29.9v0.6h1.4v-0.6c0-0.2-0.1-0.4-0.2-0.5
		C34.1,29.2,33.9,29.2,33.7,29.2z"/>
</g>
</svg>
