<svg xmlns="http://www.w3.org/2000/svg" viewBox="0 0 79.96 12.91"><defs><style>.cls-1{fill:#253b48;}</style></defs><title>5 estrellas - Azul</title><g id="Capa_2" data-name="Capa 2"><g id="Home_Page_Imagen_1" data-name="Home Page Imagen 1"><path class="cls-1" d="M7.4.41,8.92,3.49a.74.74,0,0,0,.55.4l3.41.49a.73.73,0,0,1,.4,1.24L10.82,8a.72.72,0,0,0-.21.65l.58,3.39a.73.73,0,0,1-1.06.77l-3-1.61a.74.74,0,0,0-.68,0l-3,1.61a.73.73,0,0,1-1.06-.77l.58-3.39A.72.72,0,0,0,2.68,8L.22,5.62a.73.73,0,0,1,.4-1.24L4,3.89a.75.75,0,0,0,.55-.4L6.1.41A.72.72,0,0,1,7.4.41Z"/><path class="cls-1" d="M24.86.41l1.52,3.08a.74.74,0,0,0,.55.4l3.41.49a.73.73,0,0,1,.4,1.24L28.27,8a.74.74,0,0,0-.2.65l.58,3.39a.73.73,0,0,1-1.06.77l-3-1.61a.74.74,0,0,0-.68,0l-3,1.61a.73.73,0,0,1-1.06-.77l.58-3.39A.74.74,0,0,0,20.14,8l-2.46-2.4a.73.73,0,0,1,.4-1.24l3.41-.49a.72.72,0,0,0,.54-.4L23.56.41A.72.72,0,0,1,24.86.41Z"/><path class="cls-1" d="M41.19.41l1.53,3.08a.72.72,0,0,0,.54.4l3.41.49a.73.73,0,0,1,.4,1.24L44.61,8a.74.74,0,0,0-.21.65L45,12.06a.73.73,0,0,1-1.06.77l-3-1.61a.74.74,0,0,0-.68,0l-3,1.61a.73.73,0,0,1-1.06-.77l.58-3.39a.71.71,0,0,0-.2-.65L34,5.62a.73.73,0,0,1,.4-1.24l3.41-.49a.74.74,0,0,0,.55-.4L39.89.41A.72.72,0,0,1,41.19.41Z"/><path class="cls-1" d="M57.53.41l1.52,3.08a.72.72,0,0,0,.55.4l3.4.49a.73.73,0,0,1,.4,1.24L60.94,8a.74.74,0,0,0-.21.65l.58,3.39a.73.73,0,0,1-1.05.77l-3-1.61a.72.72,0,0,0-.67,0l-3,1.61a.73.73,0,0,1-1.05-.77L53,8.67A.74.74,0,0,0,52.81,8l-2.47-2.4a.73.73,0,0,1,.41-1.24l3.4-.49a.74.74,0,0,0,.55-.4L56.22.41A.73.73,0,0,1,57.53.41Z"/><path class="cls-1" d="M73.86.41l1.52,3.08a.74.74,0,0,0,.55.4l3.4.49a.73.73,0,0,1,.41,1.24L77.27,8a.74.74,0,0,0-.21.65l.58,3.39a.73.73,0,0,1-1,.77l-3-1.61a.72.72,0,0,0-.67,0l-3.05,1.61a.73.73,0,0,1-1-.77l.58-3.39A.74.74,0,0,0,69.14,8l-2.46-2.4a.73.73,0,0,1,.4-1.24l3.4-.49a.72.72,0,0,0,.55-.4L72.55.41A.73.73,0,0,1,73.86.41Z"/></g></g></svg>