<svg xmlns="http://www.w3.org/2000/svg" viewBox="0 0 102.68 16.58"><defs><style>.cls-1{fill:#fcd228;}</style></defs><title>5 estrellas - Oro</title><g id="Capa_2" data-name="Capa 2"><g id="Home_Page_Imagen_1" data-name="Home Page Imagen 1"><path class="cls-1" d="M9.5.52l2,4a.92.92,0,0,0,.7.51l4.38.64a.93.93,0,0,1,.51,1.59L13.89,10.3a1,1,0,0,0-.27.83l.75,4.36a.94.94,0,0,1-1.36,1L9.1,14.41a1,1,0,0,0-.87,0L4.32,16.47a.93.93,0,0,1-1.35-1l.75-4.36a1,1,0,0,0-.27-.83L.28,7.22A.93.93,0,0,1,.8,5.63L5.17,5a.92.92,0,0,0,.71-.51l2-4A.93.93,0,0,1,9.5.52Z"/><path class="cls-1" d="M31.93.52l2,4a.92.92,0,0,0,.7.51L39,5.63a.93.93,0,0,1,.51,1.59L36.31,10.3a1,1,0,0,0-.27.83l.75,4.36a.94.94,0,0,1-1.36,1l-3.91-2.06a1,1,0,0,0-.87,0l-3.91,2.06a.93.93,0,0,1-1.35-1l.75-4.36a1,1,0,0,0-.27-.83L22.7,7.22a.93.93,0,0,1,.52-1.59L27.59,5a.92.92,0,0,0,.71-.51l1.95-4A.94.94,0,0,1,31.93.52Z"/><path class="cls-1" d="M52.9.52l2,4a.92.92,0,0,0,.71.51l4.37.64a.93.93,0,0,1,.52,1.59L57.28,10.3a1,1,0,0,0-.27.83l.75,4.36a.93.93,0,0,1-1.35,1L52.5,14.41a1,1,0,0,0-.87,0l-3.91,2.06a.94.94,0,0,1-1.36-1l.75-4.36a1,1,0,0,0-.27-.83L43.68,7.22a.93.93,0,0,1,.51-1.59L48.57,5a.92.92,0,0,0,.7-.51l2-4A.93.93,0,0,1,52.9.52Z"/><path class="cls-1" d="M73.87.52l2,4a.91.91,0,0,0,.7.51l4.37.64a.93.93,0,0,1,.52,1.59L78.26,10.3a1,1,0,0,0-.27.83l.75,4.36a.94.94,0,0,1-1.36,1l-3.91-2.06a1,1,0,0,0-.87,0l-3.91,2.06a.93.93,0,0,1-1.35-1l.74-4.36a.93.93,0,0,0-.27-.83L64.65,7.22a.93.93,0,0,1,.52-1.59L69.54,5a.91.91,0,0,0,.7-.51l2-4A.93.93,0,0,1,73.87.52Z"/><path class="cls-1" d="M94.85.52l2,4a.92.92,0,0,0,.7.51l4.38.64a.93.93,0,0,1,.51,1.59L99.23,10.3a1,1,0,0,0-.27.83l.75,4.36a.94.94,0,0,1-1.36,1l-3.91-2.06a.93.93,0,0,0-.86,0l-3.92,2.06a.93.93,0,0,1-1.35-1l.75-4.36a1,1,0,0,0-.27-.83L85.62,7.22a.94.94,0,0,1,.52-1.59L90.51,5a.92.92,0,0,0,.71-.51l2-4A.94.94,0,0,1,94.85.52Z"/><path class="cls-1" d="M93.89,0a.9.9,0,0,0-.72.5l-2,4a.92.92,0,0,1-.71.51l-4.37.64a.94.94,0,0,0-.52,1.59l3.17,3.08a1,1,0,0,1,.27.83l-.75,4.36a.93.93,0,0,0,1.35,1l3.92-2.06a1,1,0,0,1,.31-.09Z"/></g></g></svg>