<svg xmlns="http://www.w3.org/2000/svg" viewBox="0 0 12.91 12.91"><defs><style>.cls-1{fill:#253b48;}</style></defs><title>Tiempo - Azul</title><g id="Capa_2" data-name="Capa 2"><g id="Home_Page_Imagen_1" data-name="Home Page Imagen 1"><path class="cls-1" d="M6.46,0a6.46,6.46,0,1,0,6.45,6.46A6.47,6.47,0,0,0,6.46,0Zm0,11.54a5.09,5.09,0,1,1,5.08-5.08A5.09,5.09,0,0,1,6.46,11.54Z"/><path class="cls-1" d="M9.82,6.26H6.92V2.77a.53.53,0,0,0-.53-.53.52.52,0,0,0-.53.53v4a.53.53,0,0,0,.53.53H9.82a.53.53,0,0,0,.53-.53A.53.53,0,0,0,9.82,6.26Z"/></g></g></svg>