<svg xmlns="http://www.w3.org/2000/svg" viewBox="0 0 104.57 127.86"><defs><style>.cls-1,.cls-2{fill:#da4362;}.cls-2{font-size:15.43px;font-family:Nunito-Light, Nunito;}</style></defs><title>Asset 1</title><g id="Layer_2" data-name="Layer 2"><g id="Receta"><path class="cls-1" d="M82.51,9.22A24.76,24.76,0,0,0,72.4,10a25.24,25.24,0,0,0-40.24,0,24.86,24.86,0,0,0-10.11-.78,25.24,25.24,0,0,0-2.93,49.53,6.57,6.57,0,0,1,5,5.75l1.51,15.87h0l.86,9.07c.37,3.87,5.26,6.52,7.32,7.48l.69.3a46.17,46.17,0,0,0,35.63,0c1.27-.52,7.6-3.36,8-7.78L79,80.37h0L80.48,64.5a6.57,6.57,0,0,1,5-5.75A25.24,25.24,0,0,0,82.51,9.22ZM68.7,93.89a42.55,42.55,0,0,1-32.85,0c-2.25-.94-5.65-3.11-5.81-4.79l-.22-2.34a51.19,51.19,0,0,0,44.93,0l-.22,2.34C74.36,90.78,71,93,68.7,93.89ZM84.57,55.25a10.19,10.19,0,0,0-7.67,8.91L75.15,82.48a47.54,47.54,0,0,1-45.74,0L27.67,64.16A10.19,10.19,0,0,0,20,55.25,21.63,21.63,0,0,1,22.52,12.8a21.32,21.32,0,0,1,2.73-.18,21.56,21.56,0,0,1,7,1.2l1.31.45.78-1.14a21.64,21.64,0,0,1,35.84,0L71,14.26l1.31-.45a21.34,21.34,0,0,1,9.76-1,21.63,21.63,0,0,1,2.52,42.45Z"/><path class="cls-1" d="M34,61.31a1.8,1.8,0,0,0-1.56,2l1.8,14.42a1.8,1.8,0,0,0,1.79,1.58h.23a1.8,1.8,0,0,0,1.56-2L36,62.88A1.81,1.81,0,0,0,34,61.31Z"/><path class="cls-1" d="M46.87,64.9a1.8,1.8,0,0,0-1.8,1.8V81.13a1.8,1.8,0,0,0,3.61,0V66.71A1.8,1.8,0,0,0,46.87,64.9Z"/><path class="cls-1" d="M70.53,61.31a1.81,1.81,0,0,0-2,1.56L66.72,77.3a1.8,1.8,0,0,0,1.56,2h.23a1.8,1.8,0,0,0,1.79-1.58l1.8-14.42A1.8,1.8,0,0,0,70.53,61.31Z"/><path class="cls-1" d="M57.69,64.9a1.8,1.8,0,0,0-1.8,1.8V81.13a1.8,1.8,0,0,0,3.61,0V66.71A1.8,1.8,0,0,0,57.69,64.9Z"/><path class="cls-1" d="M28.86,18c-15.05-.13-18,12.11-18,12.23a1.8,1.8,0,0,0,3.52.77c0-.1,2.18-9.61,14.45-9.4a1.88,1.88,0,0,0,1.82-1.78A1.8,1.8,0,0,0,28.86,18Z"/><path class="cls-1" d="M42.17,11.19A1.8,1.8,0,0,0,44.37,14a13.73,13.73,0,0,1,15.89,0,1.8,1.8,0,1,0,2.07-3A17.25,17.25,0,0,0,42.17,11.19Z"/><text class="cls-2" transform="translate(4.43 123.43)">¡A COCINAR!</text></g></g></svg>