<svg id="Capa_1" data-name="Capa 1" xmlns="http://www.w3.org/2000/svg" viewBox="0 0 444.83 280.36"><defs><style>.cls-1{fill:#fb4163;}</style></defs><title>Flecha-abajo</title><path class="cls-1" d="M434,196.42,248.41,10.58A36.54,36.54,0,0,0,222.41,0a35,35,0,0,0-25.7,10.57L10.85,196.4A35.44,35.44,0,0,0,0,222.4q0,15.42,10.85,25.69L32.26,269.5A34.1,34.1,0,0,0,58,280.36,33.91,33.91,0,0,0,83.65,269.5L222.41,131,361.14,269.5q10.27,10.85,25.7,10.85a35.46,35.46,0,0,0,26-10.85l21.41-21.41a35,35,0,0,0,10.57-25.69A35.41,35.41,0,0,0,434,196.42Z" transform="translate(0 0)"/></svg>