<svg id="Capa_1" data-name="Capa 1" xmlns="http://www.w3.org/2000/svg" viewBox="0 0 444.82 280.37"><defs><style>.cls-1{fill:#fb4163;}</style></defs><title>Flecha</title><path class="cls-1" d="M444.82,140.18a35,35,0,0,0-10.57-25.69L412.84,93.08a35.46,35.46,0,0,0-26-10.85q-15.43,0-25.7,10.85L222.41,231.55,83.65,93.08Q73.37,82.23,58,82.22T32.26,93.08L10.85,114.49Q0,124.76,0,140.18a35.44,35.44,0,0,0,10.85,26L196.71,352a35,35,0,0,0,25.7,10.57,36.54,36.54,0,0,0,26-10.57L434,166.16A35.41,35.41,0,0,0,444.82,140.18Z" transform="translate(0 -82.22)"/></svg>