<?xml version="1.0" encoding="utf-8"?>
<!-- Generator: Adobe Illustrator 21.1.0, SVG Export Plug-In . SVG Version: 6.00 Build 0)  -->
<svg version="1.1" id="Layer_1" xmlns="http://www.w3.org/2000/svg" xmlns:xlink="http://www.w3.org/1999/xlink" x="0px" y="0px"
	 viewBox="0 0 323 255" style="enable-background:new 0 0 323 255;" xml:space="preserve">
<style type="text/css">
	.st0{clip-path:url(#SVGID_2_);}
	.st1{opacity:0.63;}
	.st2{fill:#FFFFFF;}
	.st3{fill:none;stroke:#B6B6B6;stroke-miterlimit:10;}
	.st4{fill:#FB4163;stroke:#FFFFFF;stroke-miterlimit:10;}
	.st5{fill:#0086F8;}
	.st6{fill:#2467B6;}
	.st7{fill:#545454;}
	.st8{fill:none;stroke:#6D6D6D;stroke-miterlimit:10;}
	.st9{fill:#FB4163;}
</style>
<g>
	<defs>
		<rect id="SVGID_1_" x="-2493" y="-86" width="1923" height="1080"/>
	</defs>
	<clipPath id="SVGID_2_">
		<use xlink:href="#SVGID_1_"  style="overflow:visible;"/>
	</clipPath>
	<g class="st0">
		<defs>
			<path id="SVGID_3_" d="M-2500.9-173h71c10.3,0,18.7,8.4,18.7,18.7v78.8c0,10.3-8.4,18.7-18.7,18.7h-71
				c-10.3,0-18.7-8.4-18.7-18.7v-78.8C-2519.5-164.6-2511.1-173-2500.9-173z"/>
		</defs>
		<clipPath id="SVGID_4_">
			<use xlink:href="#SVGID_3_"  style="overflow:visible;"/>
		</clipPath>
		<g style="clip-path:url(#SVGID_4_);">
			
				<image style="overflow:visible;" width="3872" height="2592" xlink:href="../../../../img/apple-close-up-delicious-533343.jpg"  transform="matrix(0.1808 0 0 0.185 -3110.2117 -536.8598)">
			</image>
		</g>
	</g>
	<g class="st0">
		<defs>
			<path id="SVGID_5_" d="M-2071.7-138.5h-294.8c-6.6,0-12,5.4-12,12V58.6c0,6.6,5.4,12,12,12h294.8c6.6,0,12-5.4,12-12v-185.1
				C-2059.7-133.1-2065.1-138.5-2071.7-138.5z"/>
		</defs>
		<clipPath id="SVGID_6_">
			<use xlink:href="#SVGID_5_"  style="overflow:visible;"/>
		</clipPath>
		<g style="clip-path:url(#SVGID_6_);">
			
				<image style="overflow:visible;" width="3770" height="2552" xlink:href="../../../../img/baking-bread-knife-brown-162786.jpg"  transform="matrix(8.449430e-02 0 0 8.644833e-02 -2378.5022 -149.9974)">
			</image>
		</g>
	</g>
	<g class="st0">
		<defs>
			<path id="SVGID_7_" d="M-1731.4-165.5H-2019c-6.6,0-12,5.4-12,12V31.6c0,6.6,5.4,12,12,12h287.7c6.6,0,12-5.4,12-12v-185.1
				C-1719.4-160.1-1724.8-165.5-1731.4-165.5z"/>
		</defs>
		<clipPath id="SVGID_8_">
			<use xlink:href="#SVGID_7_"  style="overflow:visible;"/>
		</clipPath>
		<g transform="matrix(1 0 0 1 0 1.525879e-05)" style="clip-path:url(#SVGID_8_);">
			
				<image style="overflow:visible;" width="3872" height="2592" xlink:href="../../../../img/cucumbers-food-gherkins-8694.jpg"  transform="matrix(8.049893e-02 0 0 8.236056e-02 -2031.0424 -169.6783)">
			</image>
		</g>
	</g>
	<g class="st0">
		<defs>
			<path id="SVGID_9_" d="M-1382.9-84.1h-287.7c-6.6,0-12,5.4-12,12v191.4c0,6.6,5.4,12,12,12h287.7c6.6,0,12-5.4,12-12V-72.1
				C-1370.9-78.7-1376.3-84.1-1382.9-84.1z"/>
		</defs>
		<clipPath id="SVGID_10_">
			<use xlink:href="#SVGID_9_"  style="overflow:visible;"/>
		</clipPath>
		<g style="clip-path:url(#SVGID_10_);">
			
				<image style="overflow:visible;" width="4880" height="3278" xlink:href="../../../../img/coffee-cookies-cups-236396.jpg"  transform="matrix(6.387128e-02 0 0 6.534838e-02 -1683.5826 -84.1262)">
			</image>
		</g>
	</g>
	<g class="st0">
		<defs>
			<path id="SVGID_11_" d="M-1034.4-104h-293.8c-6.6,0-12,5.4-12,12V93.1c0,6.6,5.4,12,12,12h293.8c6.6,0,12-5.4,12-12V-92
				C-1022.4-98.6-1027.8-104-1034.4-104z"/>
		</defs>
		<clipPath id="SVGID_12_">
			<use xlink:href="#SVGID_11_"  style="overflow:visible;"/>
		</clipPath>
		<g style="clip-path:url(#SVGID_12_);">
			
				<image style="overflow:visible;" width="2000" height="1333" xlink:href="../../../../img/berries-blueberries-bread-708488.jpg"  transform="matrix(0.1587 0 0 0.1624 -1340.2106 -112.3567)">
			</image>
		</g>
	</g>
	<g class="st0">
		<defs>
			<path id="SVGID_13_" d="M-694.1-91.4h-287.7c-6.6,0-12,5.4-12,12v185.1c0,6.6,5.4,12,12,12h287.7c6.6,0,12-5.4,12-12V-79.4
				C-682.1-86-687.5-91.4-694.1-91.4z"/>
		</defs>
		<clipPath id="SVGID_14_">
			<use xlink:href="#SVGID_13_"  style="overflow:visible;"/>
		</clipPath>
		<g transform="matrix(1 0 0 1 0 0)" style="clip-path:url(#SVGID_14_);">
			
				<image style="overflow:visible;" width="5000" height="3000" xlink:href="../../../../img/dish-egg-food-54455.jpg"  transform="matrix(6.213398e-02 0 0 6.984435e-02 -992.7509 -91.4452)">
			</image>
		</g>
	</g>
	<g class="st0">
		<defs>
			<path id="SVGID_15_" d="M-511.2-109.2h-125.2c-6.6,0-12,5.4-12,12V87.9c0,6.6,5.4,12,12,12h125.2c6.6,0,12-5.4,12-12V-97.2
				C-499.2-103.8-504.6-109.2-511.2-109.2z"/>
		</defs>
		<clipPath id="SVGID_16_">
			<use xlink:href="#SVGID_15_"  style="overflow:visible;"/>
		</clipPath>
		<g style="clip-path:url(#SVGID_16_);">
			
				<image style="overflow:visible;" width="5760" height="3840" xlink:href="../../../../img/blue-bright-citrus-405031.jpg"  transform="matrix(-5.863469e-02 0 0 5.999069e-02 -310.6205 -130.1316)">
			</image>
		</g>
	</g>
	<g class="st0">
		<defs>
			<path id="SVGID_17_" d="M-694.1,182.2h-287.7c-6.6,0-12,5.4-12,12v188.3c0,6.6,5.4,12,12,12h287.7c6.6,0,12-5.4,12-12V194.2
				C-682.1,187.6-687.5,182.2-694.1,182.2z"/>
		</defs>
		<clipPath id="SVGID_18_">
			<use xlink:href="#SVGID_17_"  style="overflow:visible;"/>
		</clipPath>
		<g style="clip-path:url(#SVGID_18_);">
			
				<image style="overflow:visible;" width="5760" height="3840" xlink:href="../../../../img/apple-bitten-close-up-616837.jpg"  transform="matrix(5.393575e-02 0 0 5.518308e-02 -992.7509 182.2217)">
			</image>
		</g>
	</g>
	<g class="st0">
		<defs>
			<path id="SVGID_19_" d="M-693.1,446.5h-287.7c-6.6,0-12,5.4-12,12v460.1c0,6.6,5.4,12,12,12h287.7c6.6,0,12-5.4,12-12V458.5
				C-681.1,451.9-686.5,446.5-693.1,446.5z"/>
		</defs>
		<clipPath id="SVGID_20_">
			<use xlink:href="#SVGID_19_"  style="overflow:visible;"/>
		</clipPath>
		<g style="clip-path:url(#SVGID_20_);">
			
				<image style="overflow:visible;" width="2500" height="1644" xlink:href="../../../../img/citrus-fruit-food-food-photography-953219.jpg"  transform="matrix(0 0.1936 -0.1893 0 -681.6022 446.524)">
			</image>
		</g>
	</g>
	<g class="st0">
		<defs>
			<path id="SVGID_21_" d="M-504,650.9h-132.4c-6.6,0-12,5.4-12,12v298c0,6.6,5.4,12,12,12H-504c6.6,0,12-5.4,12-12v-298
				C-492,656.3-497.4,650.9-504,650.9z"/>
		</defs>
		<clipPath id="SVGID_22_">
			<use xlink:href="#SVGID_21_"  style="overflow:visible;"/>
		</clipPath>
		<g transform="matrix(1 0 0 1 0 0)" style="clip-path:url(#SVGID_22_);">
			
				<image style="overflow:visible;" width="4814" height="3218" xlink:href="../../../../img/berry-blur-close-up-566888.jpg"  transform="matrix(9.853769e-02 0 0 0.1008 -648.3569 650.9124)">
			</image>
		</g>
	</g>
	<g class="st0">
		<defs>
			<path id="SVGID_23_" d="M-1385,956.9h-296.4c-6.6,0-12,5.4-12,12v298c0,6.6,5.4,12,12,12h296.4c6.6,0,12-5.4,12-12v-298
				C-1373,962.3-1378.4,956.9-1385,956.9z"/>
		</defs>
		<clipPath id="SVGID_24_">
			<use xlink:href="#SVGID_23_"  style="overflow:visible;"/>
		</clipPath>
		<g transform="matrix(1 0 0 1 0 -6.103516e-05)" style="clip-path:url(#SVGID_24_);">
			
				<image style="overflow:visible;" width="4814" height="3218" xlink:href="../../../../img/berry-blur-close-up-566888.jpg"  transform="matrix(9.853769e-02 0 0 0.1008 -1693.3569 956.9124)">
			</image>
		</g>
	</g>
	<g class="st0">
		<defs>
			<path id="SVGID_25_" d="M-511.2,161.6h-125.2c-6.6,0-12,5.4-12,12v409.9c0,6.6,5.4,12,12,12h125.2c6.6,0,12-5.4,12-12V173.6
				C-499.2,167-504.6,161.6-511.2,161.6z"/>
		</defs>
		<clipPath id="SVGID_26_">
			<use xlink:href="#SVGID_25_"  style="overflow:visible;"/>
		</clipPath>
		<g style="clip-path:url(#SVGID_26_);">
			
				<image style="overflow:visible;" width="5324" height="3549" xlink:href="../../../../img/bananas-clipping-close-up-61127.jpg"  transform="matrix(0 8.150144e-02 -7.965922e-02 0 -365.6463 161.5838)">
			</image>
		</g>
	</g>
	<g class="st0">
		<defs>
			<path id="SVGID_27_" d="M-1034.4,660.9h-292.8c-6.6,0-12,5.4-12,12V1018c0,6.6,5.4,12,12,12h292.8c6.6,0,12-5.4,12-12V672.9
				C-1022.4,666.3-1027.8,660.9-1034.4,660.9z"/>
		</defs>
		<clipPath id="SVGID_28_">
			<use xlink:href="#SVGID_27_"  style="overflow:visible;"/>
		</clipPath>
		<g transform="matrix(1 0 0 1 6.103516e-05 6.103516e-05)" style="clip-path:url(#SVGID_28_);">
			
				<image style="overflow:visible;" width="3872" height="2592" xlink:href="../../../../img/berries-blueberries-food-8688.jpg"  transform="matrix(0 0.141 -0.1221 0 -1022.3876 660.9123)">
			</image>
		</g>
	</g>
	<g class="st0">
		<defs>
			<path id="SVGID_29_" d="M-1034.4,155.9h-287.7c-6.6,0-12,5.4-12,12v424.6c0,6.6,5.4,12,12,12h287.7c6.6,0,12-5.4,12-12V167.9
				C-1022.4,161.3-1027.8,155.9-1034.4,155.9z"/>
		</defs>
		<clipPath id="SVGID_30_">
			<use xlink:href="#SVGID_29_"  style="overflow:visible;"/>
		</clipPath>
		<g transform="matrix(1 0 0 1 0 0)" style="clip-path:url(#SVGID_30_);">
			
				<image style="overflow:visible;" width="2592" height="3872" xlink:href="../../../../img/abstract-art-cooking-262896.jpg"  transform="matrix(0.1203 0 0 0.1158 -1334.2648 155.9457)">
			</image>
		</g>
	</g>
	<g class="st0">
		<defs>
			<path id="SVGID_31_" d="M-1731.4,99.9H-2019c-6.6,0-12,5.4-12,12v509.2c0,6.6,5.4,12,12,12h287.7c6.6,0,12-5.4,12-12V111.9
				C-1719.4,105.3-1724.8,99.9-1731.4,99.9z"/>
		</defs>
		<clipPath id="SVGID_32_">
			<use xlink:href="#SVGID_31_"  style="overflow:visible;"/>
		</clipPath>
		<g style="clip-path:url(#SVGID_32_);">
			
				<image style="overflow:visible;" width="6000" height="4000" xlink:href="../../../../img/black-pepper-bright-colors-940302.jpg"  transform="matrix(0 -8.887374e-02 7.792293e-02 0 -2031.0425 633.1372)">
			</image>
		</g>
	</g>
	<g class="st0">
		<defs>
			<path id="SVGID_33_" d="M-1731.4,692.1H-2019c-6.6,0-12,5.4-12,12V1023c0,6.6,5.4,12,12,12h287.7c6.6,0,12-5.4,12-12V704.1
				C-1719.4,697.5-1724.8,692.1-1731.4,692.1z"/>
		</defs>
		<clipPath id="SVGID_34_">
			<use xlink:href="#SVGID_33_"  style="overflow:visible;"/>
		</clipPath>
		<g style="clip-path:url(#SVGID_34_);">
			
				<image style="overflow:visible;" width="5616" height="3744" xlink:href="../../../../img/abstract-art-bowl-325526.jpg"  transform="matrix(0 -8.452461e-02 8.325095e-02 0 -2031.0424 1166.7419)">
			</image>
		</g>
	</g>
	<g class="st0">
		<defs>
			<path id="SVGID_35_" d="M-1384.9,685.4h-296.9c-6.6,0-12,5.4-12,12V893c0,6.6,5.4,12,12,12h296.9c6.6,0,12-5.4,12-12V697.4
				C-1372.9,690.8-1378.3,685.4-1384.9,685.4z"/>
		</defs>
		<clipPath id="SVGID_36_">
			<use xlink:href="#SVGID_35_"  style="overflow:visible;"/>
		</clipPath>
		<g style="clip-path:url(#SVGID_36_);">
			
				<image style="overflow:visible;" width="5184" height="3456" xlink:href="../../../../img/balls-blue-bright-718752.jpg"  transform="matrix(6.199851e-02 0 0 6.343230e-02 -1693.802 685.4163)">
			</image>
		</g>
	</g>
	<g class="st0">
		<defs>
			<path id="SVGID_37_" d="M-2075.7,579.7h-287.7c-6.6,0-12,5.4-12,12V1011c0,6.6,5.4,12,12,12h287.7c6.6,0,12-5.4,12-12V591.7
				C-2063.7,585.1-2069.1,579.7-2075.7,579.7z"/>
		</defs>
		<clipPath id="SVGID_38_">
			<use xlink:href="#SVGID_37_"  style="overflow:visible;"/>
		</clipPath>
		<g style="clip-path:url(#SVGID_38_);">
			
				<image style="overflow:visible;" width="5760" height="3840" xlink:href="../../../../img/close-up-food-freshness-594059.jpg"  transform="matrix(0 -8.259302e-02 8.072613e-02 0 -2374.4146 1055.4125)">
			</image>
		</g>
	</g>
	<g class="st0">
		<defs>
			<path id="SVGID_39_" d="M-2423.2,538.6H-2576c-6.6,0-12,5.4-12,12V996c0,6.6,5.4,12,12,12h152.8c6.6,0,12-5.4,12-12V550.6
				C-2411.2,544-2416.6,538.6-2423.2,538.6z"/>
		</defs>
		<clipPath id="SVGID_40_">
			<use xlink:href="#SVGID_39_"  style="overflow:visible;"/>
		</clipPath>
		<g transform="matrix(1 0 0 1 0 6.103516e-05)" style="clip-path:url(#SVGID_40_);">
			
				<image style="overflow:visible;" width="5760" height="3840" xlink:href="../../../../img/background-banana-blue-616839.jpg"  transform="matrix(0 -8.142339e-02 7.958294e-02 0 -2716.7646 1007.5792)">
			</image>
		</g>
	</g>
	<g class="st0">
		<defs>
			<path id="SVGID_41_" d="M-2074.7,130.2h-287.7c-6.6,0-12,5.4-12,12v374.4c0,6.6,5.4,12,12,12h287.7c6.6,0,12-5.4,12-12V142.2
				C-2062.7,135.6-2068.1,130.2-2074.7,130.2z"/>
		</defs>
		<clipPath id="SVGID_42_">
			<use xlink:href="#SVGID_41_"  style="overflow:visible;"/>
		</clipPath>
		<g style="clip-path:url(#SVGID_42_);">
			
				<image style="overflow:visible;" width="5472" height="3648" xlink:href="../../../../img/bonbon-candy-raspberries-6152.jpg"  transform="matrix(0 -7.280036e-02 8.516167e-02 0 -2374.4146 528.58)">
			</image>
		</g>
	</g>
	<g class="st0">
		<defs>
			<path id="SVGID_43_" d="M-2423.2-9.9H-2576c-6.6,0-12,5.4-12,12v467.4c0,6.6,5.4,12,12,12h152.8c6.6,0,12-5.4,12-12V2.1
				C-2411.2-4.5-2416.6-9.9-2423.2-9.9z"/>
		</defs>
		<clipPath id="SVGID_44_">
			<use xlink:href="#SVGID_43_"  style="overflow:visible;"/>
		</clipPath>
		<g transform="matrix(1 0 0 1 0 0)" style="clip-path:url(#SVGID_44_);">
			
				<image style="overflow:visible;" width="5324" height="3549" xlink:href="../../../../img/bananas-clipping-close-up-61127.jpg"  transform="matrix(0 9.230287e-02 -9.021652e-02 0 -2411.5713 -9.8904)">
			</image>
		</g>
	</g>
</g>
<rect x="-2493" y="-92" class="st1" width="1923" height="1086"/>
<g>
	
		<image style="overflow:visible;opacity:0.1;" width="498" height="723" xlink:href="BBD03AD7.png"  transform="matrix(1 0 0 1 -1780 95)">
	</image>
	<g>
		<path class="st2" d="M-1323.4,788h-415.2c-6,0-10.9-4.9-10.9-10.9V135.9c0-6,4.9-10.9,10.9-10.9h415.2c6,0,10.9,4.9,10.9,10.9
			v641.3C-1312.6,783.1-1317.4,788-1323.4,788z"/>
	</g>
</g>
<g>
	<path class="st2" d="M-653.3,0h-120.4c-2.4,0-4.3-1.9-4.3-4.3v-27.4c0-2.4,1.9-4.3,4.3-4.3h120.4c2.4,0,4.3,1.9,4.3,4.3v27.4
		C-649-1.9-650.9,0-653.3,0z"/>
	<g>
		<text transform="matrix(1 0 0 1 -735.1104 -13.6868)" class="st7" style="font-family:'Nunito-Regular'; font-size:15.6003px;">Log in</text>
	</g>
</g>
<g>
	<g>
		
			<text transform="matrix(1 0 0 1 -1683.6992 242.8115)" style="fill:#0D3847; font-family:'Cubano-Regular'; font-size:32.6343px;">Bienvenido a Foody</text>
	</g>
	<text transform="matrix(1 0 0 1 -1673.1108 276.0698)" style="fill:#303030; font-family:'Nunito-Light'; font-size:17.1603px;">Encuentra nuevas recetas para probar</text>
	<text transform="matrix(1 0 0 1 -1628.2983 749.0693)" style="fill:#303030; font-family:'Nunito-Light'; font-size:17.1603px;">Continuar como empresa</text>
	<text transform="matrix(1 0 0 1 -1536.0962 481.7705)" style="fill:#303030; font-family:'Nunito-Light'; font-size:17.1603px;">ó</text>
	<path class="st3" d="M-1390.1,349.2h-283.6c-2.5,0-4.5-2-4.5-4.5v-35c0-2.5,2-4.5,4.5-4.5h283.6c2.5,0,4.5,2,4.5,4.5v35
		C-1385.6,347.2-1387.6,349.2-1390.1,349.2z"/>
	<path class="st3" d="M-1389.6,402h-283.6c-2.5,0-4.5-2-4.5-4.5v-35c0-2.5,2-4.5,4.5-4.5h283.6c2.5,0,4.5,2,4.5,4.5v35
		C-1385.1,400-1387.1,402-1389.6,402z"/>
	<path class="st4" d="M-1389.6,453.7h-283.6c-2.5,0-4.5-2-4.5-4.5v-30.6c0-2.5,2-4.5,4.5-4.5h283.6c2.5,0,4.5,2,4.5,4.5v30.6
		C-1385.1,451.7-1387.1,453.7-1389.6,453.7z"/>
	<path class="st5" d="M-1388.5,596.7H-1672c-2.5,0-4.5-2-4.5-4.5v-35c0-2.5,2-4.5,4.5-4.5h283.6c2.5,0,4.5,2,4.5,4.5v35
		C-1383.9,594.7-1386,596.7-1388.5,596.7z"/>
	<g>
		<text transform="matrix(1 0 0 1 -1664.1733 334.5405)" style="fill:#D8D8D8; font-family:'Nunito-Light'; font-size:17.1603px;">Email</text>
	</g>
	<g>
		<text transform="matrix(1 0 0 1 -1664.1733 387.3403)" style="fill:#D8D8D8; font-family:'Nunito-Light'; font-size:17.1603px;">Crea una contraseña</text>
	</g>
	<g>
		<text transform="matrix(1 0 0 1 -1570.3325 438.5015)" class="st2" style="font-family:'Nunito-Bold'; font-size:17.1603px;">Continuar</text>
	</g>
	<g>
		<text transform="matrix(1 0 0 1 -1604.4321 581.5)" class="st2" style="font-family:'Nunito-Regular'; font-size:17.1603px;">Continuar con Google</text>
	</g>
	<g>
		<path class="st6" d="M-1389,543.3h-283.6c-2.5,0-4.5-2-4.5-4.5v-35c0-2.5,2-4.5,4.5-4.5h283.6c2.5,0,4.5,2,4.5,4.5v35
			C-1384.5,541.3-1386.5,543.3-1389,543.3z"/>
		<g>
			<text transform="matrix(1 0 0 1 -1623.1323 526.5)" class="st2" style="font-family:'Nunito-Regular'; font-size:17.1603px;">Continuar como Catlina</text>
		</g>
		<g>
			<defs>
				<path id="SVGID_45_" d="M-1387.9,543.3h-47.1c-2.5,0-4.5-2-4.5-4.5v-35c0-2.5,2-4.5,4.5-4.5h47.1c2.5,0,4.5,2,4.5,4.5v35
					C-1383.4,541.3-1385.4,543.3-1387.9,543.3z"/>
			</defs>
			<clipPath id="SVGID_46_">
				<use xlink:href="#SVGID_45_"  style="overflow:visible;"/>
			</clipPath>
			<g style="clip-path:url(#SVGID_46_);">
				
					<image style="overflow:visible;" width="640" height="640" xlink:href="BBD03AD5.jpg"  transform="matrix(6.900846e-02 0 0 6.875000e-02 -1428.6696 499.3466)">
				</image>
			</g>
		</g>
	</g>
	<g>
		<g>
			<path class="st2" d="M-1671.6,531.9c0-6.7,0-13.3,0-20c0-0.1,0.1-0.2,0.1-0.3c0.3-1.1,1-2,2-2.7c0.5-0.3,1-0.5,1.6-0.7
				c6.7,0,13.3,0,20,0c1,0.3,1.9,0.8,2.7,1.6c0.5,0.6,0.8,1.3,1.1,2.1c0,6.7,0,13.3,0,20c-0.2,0.5-0.3,1-0.6,1.4
				c-0.7,1.2-1.8,1.9-3.1,2.3c-1.9,0-3.9,0-5.8,0c0-3.3,0-6.7,0-10c0-0.3,0.2-0.4,0.5-0.4c1.2,0,2.4,0,3.6,0c0.4,0,0.5-0.1,0.5-0.5
				c0-1.2,0-2.3,0-3.5c0-0.5,0-0.5-0.5-0.5c-1.2,0-2.4,0-3.6,0c-0.2,0-0.4,0-0.4-0.3c0-0.6-0.1-1.3,0.1-1.9c0.1-0.6,0.5-0.9,1.1-0.9
				c1,0,1.9,0,2.9,0c0.3,0,0.5-0.1,0.5-0.5c0-1.2,0-2.3,0-3.5c0-0.3-0.1-0.5-0.5-0.5c-1.2,0-2.3,0-3.5,0c-0.5,0-0.9,0.1-1.3,0.3
				c-1.7,0.7-2.7,2.1-3.2,3.9c-0.3,1-0.3,2-0.2,2.9c0,0.4-0.1,0.5-0.5,0.5c-0.8,0-1.6,0-2.4,0c-0.4,0-0.5,0.1-0.5,0.5
				c0,1.2,0,2.4,0,3.5c0,0.3,0.1,0.5,0.5,0.5c0.8,0,1.6,0,2.4,0c0.5,0,0.5,0,0.5,0.6c0,3.1,0,6.3,0,9.4c0,0.1,0,0.3,0,0.4
				c-3.3,0-6.7,0-10,0c-1-0.3-1.9-0.8-2.7-1.6C-1671,533.4-1671.4,532.7-1671.6,531.9z"/>
		</g>
	</g>
	<g>
		<defs>
			<path id="SVGID_47_" d="M-1649.8,588.4h-16.1c-3.1,0-5.7-2.6-5.7-5.7v-16.1c0-3.1,2.6-5.7,5.7-5.7h16.1c3.1,0,5.7,2.6,5.7,5.7
				v16.1C-1644.1,585.9-1646.7,588.4-1649.8,588.4z"/>
		</defs>
		<clipPath id="SVGID_48_">
			<use xlink:href="#SVGID_47_"  style="overflow:visible;"/>
		</clipPath>
		<g style="clip-path:url(#SVGID_48_);">
			
				<image style="overflow:visible;" width="900" height="900" xlink:href="BBD03ADB.jpg"  transform="matrix(3.055556e-02 0 0 3.055556e-02 -1671.6 560.9466)">
			</image>
		</g>
	</g>
	<line class="st7" x1="-1753" y1="703.9" x2="-1313" y2="703.9"/>
	<g>
		<text transform="matrix(1 0 0 1 -1620.3877 627.416)"><tspan x="0" y="0" style="fill:#ACACC7; font-family:'Nunito-Regular'; font-size:12.1878px;">Tu información es protegida por las</tspan><tspan x="7.4" y="14.6" style="fill:#ACACC7; font-family:'Nunito-Regular'; font-size:12.1878px;">politicas de provacidad de Foody</tspan></text>
	</g>
</g>
<g>
	<rect x="-1569.3" y="155.7" class="st8" width="72.9" height="35.3"/>
	<line class="st8" x1="-1569.6" y1="190.8" x2="-1496.6" y2="155.5"/>
	<line class="st8" x1="-1496.6" y1="190.8" x2="-1569.6" y2="155.5"/>
</g>
<g>
	<g>
		<path class="st2" d="M-1111.4,1469.7c0-47.8,0-95.6,0-143.5c0.3-0.8,0.7-1.6,0.9-2.4c2.5-8.2,7.5-14.5,14.5-19.3
			c3.5-2.4,7.5-3.6,11.4-5c47.8,0,95.6,0,143.5,0c7.4,2.2,13.9,5.8,19,11.7c3.8,4.4,6.1,9.6,7.8,15.1c0,47.8,0,95.6,0,143.5
			c-1.3,3.4-2.3,7-4.3,10.1c-5.2,8.7-13,13.9-22.6,16.7c-13.8,0-27.6,0-41.4,0c0-23.9,0-47.8-0.1-71.7c0-2.5,1.1-3.1,3.4-3.1
			c8.6,0.1,17.1-0.1,25.7,0.1c2.8,0,3.8-0.9,3.8-3.7c-0.1-8.3,0-16.5,0-24.8c0-3.5-0.3-3.8-3.9-3.8c-8.6,0-17.1,0-25.7,0
			c-1.5,0-3.1,0.2-3.1-2c0-4.7-0.5-9.3,0.4-14c0.9-4.5,3.5-6.6,8.2-6.7c6.9,0,13.8-0.1,20.7,0c2.5,0,3.5-0.8,3.5-3.4
			c-0.1-8.4-0.1-16.7,0-25.1c0-2.4-0.8-3.6-3.4-3.5c-8.4,0.1-16.7,0.1-25.1,0.1c-3.2,0-6.4,0.8-9.3,2.1
			c-12.4,5.4-19.7,15.1-23.3,27.8c-2,6.9-1.8,14-1.6,21.1c0.1,2.7-0.9,3.5-3.5,3.4c-5.6-0.2-11.3,0-16.9-0.1c-2.5,0-3.7,0.9-3.6,3.6
			c0.1,8.5,0.1,16.9,0,25.4c0,2.4,0.8,3.3,3.2,3.3c5.6-0.1,11.3,0,16.9,0c3.8,0,3.9,0.1,3.9,4c0,22.6,0,45.1,0,67.6
			c0,1.1-0.2,2.1-0.2,3.2c-23.9,0-47.8,0-71.7,0c-7.4-2.2-13.9-5.8-19-11.7C-1107.3,1480.3-1109.6,1475.2-1111.4,1469.7z"/>
	</g>
</g>
<g>
	<defs>
		<path id="SVGID_49_" d="M-372.9,1603.4h-191.9c-22.4,0-40.8-18.3-40.8-40.8v-191.9c0-22.4,18.3-40.8,40.8-40.8h191.9
			c22.4,0,40.8,18.3,40.8,40.8v191.9C-332.1,1585.1-350.4,1603.4-372.9,1603.4z"/>
	</defs>
	<clipPath id="SVGID_50_">
		<use xlink:href="#SVGID_49_"  style="overflow:visible;"/>
	</clipPath>
	<g transform="matrix(1 0 0 1 0 -1.220703e-04)" style="clip-path:url(#SVGID_50_);">
		
			<image style="overflow:visible;" width="900" height="900" xlink:href="BBD03ADD.jpg"  transform="matrix(0.3038 0 0 0.3038 -605.5466 1330)">
		</image>
	</g>
</g>
<g>
	<title>Recurso 3</title>
	<g>
		<g id="Capa_2_1_">
			<g id="Home_Page_Imagen_1_1_">
				<image style="overflow:visible;opacity:0.1;enable-background:new    ;" width="323" height="255" xlink:href="BBD03ADF.png" >
				</image>
				<path class="st9" d="M73.2,134c1.3-0.2,2.6,0.7,2.8,2.1c0,0.2,0,0.5,0,0.7v10.4c0.2,1.4-0.8,2.6-2.2,2.8c-0.2,0-0.4,0-0.6,0
					H49.8c-1.4-0.2-2.6,0.8-2.8,2.2c0,0.2,0,0.4,0,0.6v3.4c-0.1,1.4,0.9,2.7,2.3,2.8c0.2,0,0.3,0,0.5,0h15.4
					c1.4-0.2,2.6,0.7,2.8,2.1c0,0.2,0,0.5,0,0.7v10.4c0.2,1.4-0.8,2.6-2.2,2.8c-0.2,0-0.4,0-0.6,0H49.8c-1.4-0.2-2.6,0.8-2.8,2.2
					c0,0.2,0,0.4,0,0.6v18.4c0.2,1.4-0.8,2.6-2.1,2.8c-0.2,0-0.4,0-0.6,0H33.7c-1.3,0.1-2.6-0.9-2.7-2.3c0-0.2,0-0.4,0-0.5v-59.4
					c-0.2-1.4,0.8-2.6,2.1-2.8c0.2,0,0.4,0,0.6,0H73.2z"/>
				<path class="st9" d="M126,178.2c0,6.1-1.3,22.3-23,22.3s-23-16.2-23-22.3v-22.9c0-6,1.3-22.3,23-22.3s23,16.2,23,22.3V178.2z
					 M111,159.9c0-7.3-0.5-11.8-7.5-11.8s-7.5,4.5-7.5,11.8v13.7c0,7.3,0.5,11.8,7.5,11.8c7,0,7.5-4.5,7.5-11.8V159.9z"/>
				<path class="st9" d="M180,178.2c0,6.1-1.3,22.3-23,22.3s-23-16.2-23-22.3v-22.9c0-6,1.3-22.3,23-22.3s23,16.2,23,22.3V178.2z
					 M165,159.9c0-7.3-0.5-11.8-7.5-11.8s-7.5,4.5-7.5,11.8v13.7c0,7.3,0.5,11.8,7.5,11.8s7.5-4.5,7.5-11.8V159.9z"/>
				<path class="st9" d="M161.4,39c-3.3-0.4-6.6-0.2-9.8,0.8c-8.1-10.7-23.4-12.9-34.2-4.7c-1.8,1.3-3.4,2.9-4.7,4.7
					c-3.2-0.9-6.5-1.2-9.8-0.8c-13.4,1.7-22.8,13.9-21.1,27.3c1.3,10,8.5,18.2,18.3,20.6c2.6,0.6,4.5,2.9,4.8,5.6l1.5,15.3l0,0
					l0.8,8.8c0.4,3.7,5.1,6.3,7.1,7.2l0.7,0.3c11,4.6,23.4,4.6,34.4,0c1.2-0.5,7.4-3.3,7.8-7.5l0.8-8.8l0,0l1.5-15.3
					c0.3-2.7,2.2-4.9,4.8-5.6c13.1-3.3,21-16.5,17.8-29.6C179.6,47.5,171.4,40.3,161.4,39L161.4,39z M148.1,120.8
					c-10.2,4.3-21.6,4.3-31.8,0c-2.2-0.9-5.5-3-5.6-4.6l-0.2-2.3c13.7,6.7,29.7,6.7,43.4,0l-0.2,2.3
					C153.5,117.8,150.2,119.8,148.1,120.8L148.1,120.8z M163,83.4c-4,1-7,4.4-7.4,8.6l-1.7,17.7c-13.8,7.6-30.4,7.6-44.2,0L108,92
					c-0.4-4.1-3.4-7.6-7.4-8.6c-11.2-2.8-18-14.2-15.1-25.4c2.1-8.3,9.1-14.5,17.6-15.6c2.4-0.3,4.9-0.2,7.3,0.3
					c0.7,0.2,1.3,0.4,2,0.6l1.4,0.5l0.8-1.1c7.2-10.7,22.7-12.6,32.3-2.9c0.9,0.9,1.7,1.9,2.4,3l0.7,1l1.3-0.4c3-1.1,6.3-1.4,9.4-1
					c11.5,1.5,19.5,12,18,23.5C177.4,74.3,171.3,81.3,163,83.4L163,83.4z"/>
				<path class="st9" d="M114,89.7c-0.7,0.3-1.1,1.1-1,1.8l1.7,14c0.1,0.9,0.9,1.5,1.7,1.5h0.2c1-0.1,1.6-1,1.5-1.9l-1.7-14
					C116.3,89.9,115.1,89.2,114,89.7z"/>
				<path class="st9" d="M127,93c-1-0.2-1.7,0.5-2,1.5v14c0.3,1,1.2,1.7,2.1,1.6c0.9-0.1,1.5-0.8,0.9-1.6v-14
					C128.7,93.5,128,92.7,127,93L127,93z"/>
				<path class="st9" d="M149.8,89.5c-1-0.1-1.8,0.6-1.9,1.5l-1.7,14c-0.1,1,0.6,1.8,1.5,1.9c0,0,0,0,0,0h0.2c0.9,0,1.6-0.6,1.7-1.5
					l1.7-14C151.5,90.5,150.8,89.7,149.8,89.5L149.8,89.5z"/>
				<path class="st9" d="M137.4,93c-1-0.3-1.7,0.5-1.4,1.5l0,0v14c-0.3,1,0.6,1.7,1.5,1.6c0.9-0.1,1.5-0.8,1.5-1.6v-14
					C139.2,93.5,138.4,92.7,137.4,93L137.4,93z"/>
				<path class="st9" d="M109.5,47.4C95,47.3,92.2,59.1,92.1,59.3c-0.2,0.9,0.4,1.9,1.3,2.1c0.1,0,0.3,0,0.4,0
					c0.8,0,1.5-0.5,1.7-1.3c0-0.1,2.1-9.3,14-9.1c0.9-0.1,1.6-0.8,1.7-1.7C111.3,48.2,110.5,47.5,109.5,47.4z"/>
				<path class="st9" d="M122.4,40.8c-0.8,0.6-0.9,1.7-0.3,2.4c0.6,0.8,1.7,0.9,2.4,0.3c4.6-3.3,10.8-3.2,15.4,0
					c0.8,0.6,1.9,0.4,2.4-0.4c0.6-0.8,0.4-1.9-0.4-2.4C136.1,36.6,128.2,36.6,122.4,40.8z"/>
				<path class="st9" d="M117.8,223.9c21.5,5.4,29.9-11.1,30-11.3c0.6-1.3,0.1-2.9-1.2-3.6c-0.2-0.1-0.4-0.1-0.5-0.2
					c-1.2-0.3-2.5,0.3-3,1.4c-0.1,0.1-6.5,13-23.9,8.5c-1.4-0.3-2.8,0.5-3.2,1.9C115.5,222.1,116.4,223.6,117.8,223.9
					C117.8,223.9,117.8,223.9,117.8,223.9z"/>
				<path class="st9" d="M212.1,134c17.2,0,22.9,7,22.9,22.3v20.3c0,15.2-5.7,22.4-22.9,22.4h-20.4c-1.4,0.1-2.6-0.9-2.7-2.3
					c0-0.2,0-0.4,0-0.5v-59.3c-0.2-1.4,0.8-2.7,2.2-2.9c0.2,0,0.4,0,0.6,0L212.1,134z M212.5,183c4.3,0,6.5-0.7,6.5-6.3v-20.4
					c0-5.8-2.2-6.3-6.5-6.3h-4.9c-1.3-0.2-2.5,0.8-2.7,2.2c0,0.2,0,0.4,0,0.6v27.4c-0.1,1.4,0.8,2.6,2.2,2.8c0.2,0,0.3,0,0.5,0
					H212.5z"/>
				<path class="st9" d="M256.6,134c1.4-0.1,2.7,0.8,3.1,2.1l6.7,17.3c0.4,0.8,0.9,0.8,1.3,0l6.7-17.3c0.4-1.4,1.7-2.3,3.1-2.1h12.9
					c2.1,0,3,1.3,2.1,3.2l-16.1,37.1c-0.1,0.4-0.2,0.7-0.2,1.1v20.7c0.2,1.4-0.8,2.6-2.1,2.8c-0.2,0-0.4,0-0.6,0h-12.6
					c-1.3,0.1-2.6-0.9-2.7-2.3c0-0.2,0-0.4,0-0.5v-20.7c0-0.4,0-0.8-0.2-1.1l-16.2-37.1c-0.9-2,0-3.2,2.1-3.2L256.6,134z"/>
			</g>
		</g>
	</g>
</g>
</svg>
