<?xml version="1.0" encoding="iso-8859-1"?>
<!-- Generator: Adobe Illustrator 19.0.0, SVG Export Plug-In . SVG Version: 6.00 Build 0)  -->
<svg version="1.1" id="Capa_1" xmlns="http://www.w3.org/2000/svg" xmlns:xlink="http://www.w3.org/1999/xlink" x="0px" y="0px"
	 viewBox="0 0 511.999 511.999" style="enable-background:new 0 0 511.999 511.999;" xml:space="preserve">
<g>
	<g>
		<path d="M328.068,390.138c-3.54-4.239-9.848-4.803-14.083-1.263l-0.463,0.387c-4.232,3.545-4.789,9.853-1.244,14.085
			c1.979,2.361,4.813,3.578,7.67,3.578c2.266,0,4.543-0.766,6.416-2.334l0.441-0.37
			C331.043,400.682,331.609,394.376,328.068,390.138z"/>
	</g>
</g>
<g>
	<g>
		<path d="M496.718,16.283c-19.46-19.686-53.516-21.473-98.485-5.164c-36.263,13.15-77.41,37.053-119.957,69.589
			c-0.672,0.47-5.716,4.414-7.601,5.895c-6.657-31.898-18.492-62.747-39.073-83.327c-2.646-2.646-6.548-3.591-10.109-2.456
			c-3.563,1.137-6.194,4.168-6.818,7.857c-24.484,144.664-82.74,211.591-175.772,304.622
			c-27.615,27.615-40.641,57.086-38.717,87.595c1.174,18.609,8.143,37.247,20.391,54.923L3.055,473.339
			c-1.875,1.875-2.929,4.418-2.929,7.07s1.054,5.195,2.929,7.07l21.516,21.515c1.953,1.953,4.511,2.929,7.07,2.929
			s5.117-0.976,7.07-2.929l17.224-17.224c19.138,13.015,41.628,19.897,64.837,19.897c9.312,0,18.742-1.107,28.112-3.37
			c1.075-0.259,2.146-0.558,3.215-0.878c37.58-8.072,84.09-32.984,138.257-74.067c4.399-3.338,5.261-9.609,1.925-14.009
			c-3.338-4.399-9.609-5.262-14.009-1.925c-27.615,20.944-52.967,37.456-75.877,49.442c2.853-3.928,5.669-8.114,8.445-12.57
			c16.507-26.501,31.339-62.22,42.897-103.293c3.88-13.792,7.342-27.993,10.358-42.412c65.508-12.028,111.23-2.008,132.362,4.883
			c-16.978,16.698-33.633,32.412-49.645,46.839c-4.102,3.696-4.431,10.02-0.734,14.121c1.975,2.191,4.696,3.307,7.431,3.306
			c2.386,0,4.778-0.849,6.69-2.571c19.665-17.72,40.272-37.34,61.248-58.315c2.246-2.247,3.291-5.426,2.816-8.568
			c-0.477-3.142-2.417-5.869-5.227-7.35c-1.001-0.527-11.308-5.811-30.094-10.526c45.572-52.008,81.989-106.457,103.206-154.496
			C516.963,79.728,518.544,38.361,496.718,16.283z M31.641,487.783l-7.375-7.375l8.853-8.853c1.87,2.064,3.808,4.111,5.829,6.136
			c0.465,0.466,0.937,0.92,1.408,1.377L31.641,487.783z M257.025,215.754c-0.42,1.9-0.644,3.856-0.644,5.848
			c0,0.545,0.021,1.087,0.054,1.627c-3.479,41.062-10.983,83.378-21.95,122.352c-11.052,39.28-25.098,73.216-40.62,98.137
			c-15.143,24.314-31.446,39.622-47.306,44.484c-0.076,0.023-0.152,0.045-0.227,0.069c-0.714,0.215-1.428,0.416-2.14,0.588
			c-33.241,8.023-67.291-1.433-91.088-25.289c-25.4-25.464-59.183-77.009-0.063-136.13c44.195-44.195,83.308-84.743,114.409-133.48
			c30.053-47.096,50.251-98.381,62.84-159.96c16.462,26.94,26.288,68.917,28.068,121.17
			C259.018,174.563,258.544,194.962,257.025,215.754z M391.103,42.972l2.303-2.423c1.108-1.167,2.595-1.828,4.186-1.863
			c1.59-0.036,3.1,0.56,4.254,1.675l10.525,10.155c2.439,2.353,2.523,6.267,0.186,8.727l-2.3,2.422
			c-1.108,1.167-2.595,1.828-4.185,1.863c-1.575,0.039-3.101-0.56-4.255-1.675l-10.526-10.155
			C388.852,49.345,388.769,45.43,391.103,42.972z M415.029,90.858l10.835,10.836c2.665,2.665,2.665,7,0,9.665l-2.475,2.475
			c-1.291,1.291-3.007,2.002-4.832,2.002s-3.541-0.711-4.832-2.002l-10.836-10.835c-2.665-2.666-2.665-7.001-0.001-9.666
			l2.476-2.475c1.332-1.333,3.083-1.999,4.833-1.999C411.947,88.859,413.698,89.526,415.029,90.858z M337.945,70.939l2.3-2.422
			c1.108-1.167,2.595-1.828,4.186-1.863c0.044-0.001,0.087-0.001,0.131-0.001c1.541,0,3.002,0.592,4.124,1.676l10.525,10.155
			c2.439,2.353,2.523,6.267,0.188,8.726l-2.303,2.424c-1.107,1.166-2.594,1.828-4.184,1.862c-1.591,0.033-3.101-0.56-4.255-1.675
			l-10.525-10.155C335.693,77.313,335.609,73.399,337.945,70.939z M286.307,100.365l2.475-2.475
			c0.047-0.047,0.098-0.087,0.146-0.132c0.368-0.283,0.737-0.568,1.104-0.85c1.067-0.661,2.296-1.021,3.582-1.021
			c1.826,0,3.541,0.711,4.832,2.002l10.836,10.835c2.665,2.666,2.665,7.001,0.001,9.666l-2.476,2.475
			c-1.291,1.291-3.008,2.002-4.832,2.002c-1.826,0-3.542-0.711-4.832-2.002l-10.836-10.835
			C283.642,107.365,283.642,103.029,286.307,100.365z M384.838,198.119l2.363-2.363c1.146-1.146,2.671-1.778,4.291-1.778
			c1.621,0,3.146,0.631,4.291,1.778l10.344,10.343c1.146,1.146,1.777,2.671,1.777,4.291c0,1.621-0.631,3.146-1.777,4.291
			l-2.363,2.363c-1.146,1.146-2.671,1.778-4.291,1.778c-1.621,0-3.146-0.631-4.291-1.778l-10.343-10.342
			C382.473,204.336,382.473,200.485,384.838,198.119z M381.371,154.535c-2.665,2.665-7.003,2.664-9.666,0l-10.835-10.835
			c-1.292-1.291-2.003-3.007-2.003-4.832c0-1.826,0.711-3.542,2.002-4.832l2.476-2.475c1.291-1.291,3.007-2.002,4.832-2.002
			s3.542,0.711,4.832,2.002l10.836,10.835c2.665,2.665,2.665,7,0,9.665L381.371,154.535z M473.855,127.832
			c-11.201,25.361-26.877,52.652-46.044,80.458c-0.49-6.17-3.121-11.905-7.544-16.33l-10.343-10.342
			c-4.923-4.923-11.469-7.635-18.432-7.635c-1.484,0-2.947,0.131-4.381,0.372c3.053-1.305,5.913-3.193,8.401-5.68l2.475-2.475
			c10.461-10.461,10.461-27.484,0-37.945l-10.836-10.835c-5.067-5.068-11.806-7.859-18.973-7.859
			c-7.167,0-13.905,2.792-18.972,7.858l-2.476,2.475c-5.067,5.067-7.859,11.806-7.859,18.973s2.792,13.905,7.859,18.972
			l10.837,10.836c5.231,5.23,12.102,7.846,18.973,7.846c1.541,0,3.08-0.139,4.601-0.402c-2.977,1.289-5.716,3.135-8.078,5.498
			l-2.363,2.363c-10.162,10.163-10.162,26.7,0,36.863l10.343,10.343c4.924,4.923,11.47,7.635,18.432,7.635
			c2.3,0,4.552-0.302,6.718-0.876c-6.987,9.088-14.309,18.176-21.929,27.22c2.257-3.91,3.466-8.359,3.466-12.994
			c0-6.963-2.712-13.509-7.635-18.431l-10.343-10.344c-10.164-10.163-26.701-10.161-36.863,0l-2.362,2.363
			c-10.162,10.163-10.162,26.7,0,36.863l10.343,10.343c5.082,5.081,11.757,7.622,18.432,7.622c6.378,0,12.753-2.326,17.741-6.965
			c-3.558,4.108-7.179,8.203-10.854,12.281c-24.702-3.681-57.66-4.914-98.043,1.685c2.206-12.451,4.079-24.99,5.606-37.503
			l1.328,1.328c5.231,5.23,12.102,7.846,18.973,7.846s13.742-2.616,18.974-7.846l2.475-2.475c10.46-10.461,10.46-27.483,0-37.945
			l-10.836-10.835c-5.067-5.068-11.806-7.859-18.973-7.859c-2.549,0-5.041,0.359-7.425,1.042c0.471-13.252,0.509-26.257,0.08-38.851
			c-0.278-8.175-0.778-16.82-1.567-25.708l6.226,6.225c5.067,5.068,11.806,7.859,18.973,7.859c7.166,0,13.904-2.792,18.972-7.858
			l2.476-2.475c10.46-10.461,10.46-27.484,0-37.945l-10.836-10.835c-0.665-0.665-1.36-1.289-2.08-1.874
			c1.969-1.387,3.935-2.762,5.897-4.108c0.582,5.991,3.201,11.81,7.844,16.29l10.525,10.155c4.881,4.708,11.251,7.282,17.996,7.282
			c0.193,0,0.387-0.002,0.581-0.006c6.96-0.152,13.44-3.023,18.245-8.082l2.302-2.423c9.871-10.391,9.513-26.94-0.801-36.889
			l-10.526-10.155c-1.059-1.022-2.191-1.936-3.378-2.752c3.464-1.913,6.895-3.742,10.291-5.494
			c-0.43,7.379,2.224,14.896,7.924,20.396l10.526,10.155c0.645,0.622,1.318,1.205,2.012,1.751l-1.198,1.197
			c-10.46,10.461-10.46,27.484,0,37.945l10.836,10.835c5.067,5.068,11.806,7.859,18.973,7.859c7.167,0,13.905-2.792,18.973-7.859
			l2.475-2.475c10.461-10.461,10.461-27.484,0-37.944l-10.835-10.836c-0.979-0.98-2.017-1.867-3.101-2.663l0.988-1.041
			c0.086-0.09,0.165-0.185,0.249-0.276c0.725,0.947,1.511,1.856,2.369,2.714l10.835,10.835c5.068,5.067,11.807,7.859,18.973,7.859
			c7.167,0,13.905-2.792,18.973-7.859l2.474-2.474c5.068-5.067,7.86-11.806,7.86-18.973s-2.792-13.905-7.859-18.972L470.1,35.034
			c-5.068-5.067-11.807-7.859-18.973-7.859c-7.167,0-13.905,2.792-18.973,7.859l-2.475,2.475c-0.382,0.382-0.747,0.777-1.104,1.178
			c-0.708-0.891-1.475-1.75-2.315-2.56l-10.224-9.865c31.085-9.421,54.463-8.061,66.466,4.08
			C497.616,45.635,494.465,81.169,473.855,127.832z M344.665,248.479c-2.366-2.367-2.366-6.217,0-8.583l2.361-2.362
			c2.367-2.367,6.219-2.367,8.584-0.001l10.344,10.344c1.146,1.146,1.777,2.67,1.777,4.291s-0.631,3.146-1.779,4.292l-2.359,2.361
			c-2.369,2.368-6.221,2.366-8.586,0h0.001L344.665,248.479z M276.517,222.968c0.101-1.252,0.2-2.501,0.296-3.748
			c0.338-0.908,0.863-1.744,1.57-2.45l2.475-2.475c1.291-1.291,3.007-2.002,4.832-2.002s3.541,0.711,4.832,2.002l10.836,10.835
			c2.665,2.665,2.665,7.001,0,9.666l-2.475,2.475c-2.664,2.664-7.002,2.666-9.666,0l-10.836-10.835
			C277.419,225.473,276.78,224.273,276.517,222.968z M441.812,56.48c0-1.826,0.711-3.542,2.003-4.832l2.475-2.475
			c1.291-1.291,3.007-2.002,4.832-2.002c1.825,0,3.541,0.711,4.832,2.002l10.836,10.836c1.291,1.291,2.002,3.007,2.002,4.832
			c0,1.826-0.711,3.542-2.003,4.832l-2.475,2.475c-1.291,1.291-3.007,2.002-4.832,2.002c-1.825,0-3.541-0.711-4.832-2.002
			l-10.835-10.835C442.523,60.022,441.812,58.306,441.812,56.48z"/>
	</g>
</g>
<g>
	<g>
		<path d="M356.407,169.213l-10.836-10.835c-5.067-5.068-11.806-7.859-18.973-7.859c-7.166,0-13.904,2.792-18.973,7.859
			l-2.475,2.475c-10.46,10.461-10.46,27.483,0,37.945l10.836,10.835c5.067,5.068,11.806,7.859,18.973,7.859
			s13.905-2.792,18.973-7.859l2.475-2.475C366.869,196.697,366.869,179.676,356.407,169.213z M342.266,193.019l-2.475,2.475
			c-1.291,1.291-3.007,2.002-4.832,2.002s-3.542-0.711-4.832-2.002l-10.836-10.835c-2.665-2.665-2.665-7.001,0-9.666l2.475-2.475
			c1.291-1.291,3.008-2.002,4.832-2.002c1.826,0,3.541,0.711,4.832,2.002l10.836,10.835
			C344.931,186.019,344.931,190.354,342.266,193.019z"/>
	</g>
</g>
<g>
	<g>
		<path d="M177.019,233.415c-4.42-3.308-10.686-2.405-13.995,2.016c-25.424,33.981-54.976,64.961-83.125,93.377
			c-4.191,4.232-8.432,8.485-12.718,12.771c-3.904,3.904-3.904,10.235,0,14.141c1.953,1.953,4.511,2.929,7.07,2.929
			s5.117-0.976,7.07-2.929c4.308-4.308,8.569-8.584,12.784-12.838c28.655-28.929,58.776-60.516,84.928-95.471
			C182.343,242.988,181.441,236.722,177.019,233.415z"/>
	</g>
</g>
<g>
	<g>
		<path d="M198.284,201.775c-4.595-3.064-10.802-1.824-13.865,2.773c-0.021,0.032-0.08,0.122-0.102,0.155
			c-3.01,4.629-1.695,10.822,2.935,13.832c1.684,1.094,3.571,1.617,5.439,1.617c3.272,0,6.478-1.604,8.394-4.55
			c0.01-0.015,0.025-0.039,0.04-0.062C204.102,210.955,202.844,204.816,198.284,201.775z"/>
	</g>
</g>
<g>
</g>
<g>
</g>
<g>
</g>
<g>
</g>
<g>
</g>
<g>
</g>
<g>
</g>
<g>
</g>
<g>
</g>
<g>
</g>
<g>
</g>
<g>
</g>
<g>
</g>
<g>
</g>
<g>
</g>
</svg>
