<?xml version="1.0" encoding="iso-8859-1"?>
<!-- Generator: Adobe Illustrator 19.0.0, SVG Export Plug-In . SVG Version: 6.00 Build 0)  -->
<svg version="1.1" id="Capa_1" xmlns="http://www.w3.org/2000/svg" xmlns:xlink="http://www.w3.org/1999/xlink" x="0px" y="0px"
	 viewBox="0 0 512.003 512.003" style="enable-background:new 0 0 512.003 512.003;" xml:space="preserve">
<g>
	<g>
		<path d="M414.494,295.859c-0.368-5.51-5.121-9.706-10.644-9.313c-5.51,0.367-9.68,5.132-9.313,10.643
			c1.012,15.177-0.623,30.285-4.858,44.906c-6.451,22.268-18.577,42.398-35.066,58.213c-3.986,3.823-4.118,10.153-0.294,14.139
			c1.964,2.048,4.589,3.078,7.218,3.078c2.489,0,4.982-0.924,6.921-2.783c19.022-18.246,33.003-41.441,40.432-67.081
			C413.776,330.796,415.661,313.366,414.494,295.859z"/>
	</g>
</g>
<g>
	<g>
		<path d="M405.939,254.798l-0.131-0.366c-1.878-5.194-7.613-7.879-12.805-6.004c-5.194,1.878-7.882,7.611-6.003,12.805l0.104,0.292
			c1.46,4.09,5.31,6.639,9.418,6.639c1.116,0,2.251-0.188,3.363-0.586C405.086,265.721,407.797,259.999,405.939,254.798z"/>
	</g>
</g>
<g>
	<g>
		<path d="M509.072,494.93l-18.945-18.945l0.982,0.263c0.867,0.232,1.738,0.344,2.595,0.344c4.415,0,8.456-2.947,9.653-7.415
			c1.43-5.334-1.736-10.817-7.071-12.247l-34.443-9.229l-22.925-22.925l56.536,14.885c0.853,0.225,1.709,0.332,2.552,0.332
			c4.432,0,8.482-2.97,9.664-7.457c1.406-5.341-1.784-10.811-7.125-12.217l-66.526-17.515c3.45-5.446,6.615-11.073,9.505-16.836
			l30.893,7.733c0.815,0.204,1.632,0.302,2.436,0.302c4.479,0,8.556-3.031,9.693-7.573c1.341-5.357-1.915-10.788-7.272-12.129
			l-27.626-6.916c1.708-4.549,3.257-9.156,4.607-13.819c12.885-44.474,9.211-92.079-10.344-134.05
			c-16.964-36.409-44.869-66.389-79.605-85.931c-0.17-0.104-0.343-0.202-0.517-0.295c-5.143-2.872-10.432-5.52-15.859-7.922
			l-18.463-8.175c-12.767-5.651-26.036-9.783-39.536-12.426l1.431-2.92c5.836-11.911,18.178-19.607,31.442-19.607h101.036
			c18.284,0,35.474-7.12,48.404-20.05l9.672-9.673c3.905-3.905,3.905-10.237,0-14.143c-3.905-3.904-10.237-3.904-14.142,0
			l-9.672,9.673c-9.152,9.152-21.32,14.192-34.262,14.192H324.806c-16.486,0-32.06,7.572-42.39,19.997
			c-3.232-15.787-10.499-36.493-26.845-50.35c-2.565-2.174-6.052-2.913-9.279-1.969L211.14,40.222
			c-3.357,0.984-5.956,3.65-6.853,7.031c-0.897,3.381,0.037,6.984,2.464,9.504c17.344,18.002,20.622,37.102,21.068,46.655
			c-8.421,1.283-16.771,3.144-24.987,5.584L175.563,7.411c-1.432-5.334-6.919-8.498-12.25-7.065
			c-5.334,1.432-8.498,6.917-7.066,12.251l27.688,103.147c-1.135,0.476-2.27,0.952-3.397,1.451l-18.463,8.173
			c-1.508,0.667-3.001,1.36-4.487,2.063L126.675,7.507c-1.378-5.348-6.828-8.568-12.18-7.188c-5.348,1.379-8.566,6.832-7.188,12.18
			l28.005,108.643L108.744,94.58L84.802,7.356C83.339,2.03,77.833-1.102,72.511,0.36c-5.326,1.462-8.458,6.965-6.996,12.291
			L80.16,66.003L57.791,43.639L48.554,9.167c-1.429-5.335-6.912-8.501-12.248-7.071c-5.334,1.43-8.5,6.913-7.071,12.247l0.273,1.02
			L17.074,2.931C13.169-0.973,6.837-0.972,2.932,2.933S-0.972,13.17,2.934,17.076L15.321,29.46l-0.948-0.254
			c-5.335-1.432-10.819,1.736-12.248,7.071c-1.43,5.334,1.736,10.817,7.071,12.247l34.417,9.222l22.398,22.393L12.648,65.513
			C7.322,64.056,1.82,67.188,0.36,72.514c-1.459,5.326,1.675,10.828,7.001,12.288l87.227,23.908l26.753,26.747L12.466,107.798
			c-5.356-1.36-10.794,1.878-12.155,7.23c-1.359,5.353,1.877,10.794,7.23,12.154l107.911,27.414
			c-8.152,6.935-15.703,14.559-22.597,22.806c-0.238-0.08-0.475-0.16-0.722-0.223l-79.668-20.239
			c-5.356-1.362-10.794,1.876-12.154,7.23c-1.36,5.353,1.877,10.794,7.229,12.154l72.427,18.4c-1.61,2.438-3.175,4.913-4.681,7.435
			C55.182,235.825,45.954,274.22,48.6,313.191c0.375,5.51,5.157,9.667,10.654,9.3c5.51-0.375,9.674-5.145,9.3-10.655
			c-4.328-63.736,27.614-124.333,81.049-157.342l12.137,11.196c0.712,0.657,1.441,1.296,2.167,1.938
			c-25.285,21.42-43.659,50.223-52.315,82.385c-1.436,5.333,1.724,10.819,7.058,12.255c0.87,0.234,1.745,0.347,2.605,0.347
			c4.411,0,8.449-2.941,9.65-7.404c7.987-29.676,25.403-56.09,49.379-75.147c4.815,3.125,9.82,5.952,14.982,8.463
			c-11.394,10.913-19.712,24.811-23.843,40.163c-1.436,5.333,1.725,10.82,7.058,12.255c0.871,0.234,1.745,0.347,2.605,0.347
			c4.411,0,8.449-2.941,9.65-7.404c4.022-14.945,13.182-28.115,25.793-37.085c1.257,0.373,2.518,0.731,3.785,1.068
			c8.431,2.239,17.037,3.657,25.69,4.279v34.187c0,5.522,4.477,10,10,10c5.523,0,10-4.478,10-10v-34.187
			c8.653-0.622,17.259-2.04,25.69-4.279c1.267-0.336,2.528-0.695,3.784-1.068c19.865,14.128,34.294,34.871,40.629,58.41
			c1.201,4.463,5.239,7.404,9.65,7.404c0.86,0,1.735-0.112,2.605-0.347c5.333-1.435,8.493-6.922,7.058-12.255
			c-6.435-23.913-19.907-45.382-38.413-61.618c6.176-3.019,12.127-6.49,17.793-10.384c12.122,4.791,22.501,13.359,29.468,24.43
			c1.9,3.021,5.15,4.675,8.473,4.675c1.82,0,3.663-0.496,5.317-1.537c4.674-2.942,6.079-9.116,3.137-13.79
			c-7.282-11.571-17.38-21.073-29.2-27.693l10.406-9.599c64.44,39.812,96.207,119.086,74.647,193.505
			c-5.815,20.07-15.036,38.509-27.068,54.711c-0.058,0.074-0.112,0.151-0.167,0.226c-18.646,25.022-44.025,44.671-74.053,56.605
			l-73.095,29.049c-0.094-0.084-0.181-0.175-0.279-0.256l-14.435-11.969c-24.64-20.43-42.764-47.36-52.414-77.88
			c-1.665-5.266-7.282-8.185-12.549-6.521c-5.266,1.665-8.185,7.284-6.52,12.55c8.553,27.054,23.072,51.574,42.427,71.977
			l-42.65-16.95c-36.391-14.463-66.984-41.235-86.146-75.387c-2.703-4.815-8.798-6.53-13.614-3.827
			c-4.817,2.702-6.53,8.798-3.828,13.614c21.398,38.137,55.563,68.034,96.201,84.186l74.613,29.652
			c4.041,1.605,8.286,2.408,12.531,2.408s8.491-0.803,12.531-2.408l74.613-29.652c9.866-3.921,19.406-8.695,28.498-14.214
			l6.635,26.622c1.133,4.548,5.212,7.584,9.695,7.584c0.801,0,1.614-0.097,2.426-0.299c5.359-1.336,8.62-6.763,7.285-12.121
			l-8.438-33.854c5.234-4.029,10.255-8.328,15.042-12.87l16.056,59.657c1.201,4.463,5.239,7.404,9.65,7.404
			c0.86,0,1.735-0.112,2.605-0.347c5.333-1.436,8.493-6.922,7.057-12.255l-14.596-54.232l22.639,22.639l9.229,34.444
			c1.197,4.468,5.237,7.415,9.653,7.415c0.856,0,1.728-0.111,2.595-0.344c5.334-1.43,8.5-6.913,7.071-12.247l-0.264-0.984
			l18.946,18.946c1.953,1.952,4.512,2.929,7.071,2.929c2.559,0,5.119-0.977,7.071-2.929
			C512.977,505.166,512.977,498.835,509.072,494.93z M246.395,50.73c15.02,16.091,17.92,41.958,18.477,50.758
			c-5.72-0.271-11.45-0.276-17.17-0.022c-0.671-10.779-3.924-28.374-16.429-46.304L246.395,50.73z M336.704,150.991
			c-14.172,13.073-31.512,22.6-50.146,27.55c-19.989,5.311-41.122,5.31-61.112,0c-13.024-3.46-25.411-9.162-36.531-16.741
			c-0.061-0.092-0.112-0.187-0.177-0.277c-1.393-1.96-3.364-3.265-5.516-3.852c-2.735-2.11-5.382-4.336-7.923-6.68l-7.02-6.476
			c0.628-0.287,1.255-0.578,1.888-0.858l18.463-8.174c42.815-18.954,91.926-18.952,134.74-0.001l18.463,8.175
			c0.633,0.28,1.257,0.574,1.885,0.861L336.704,150.991z"/>
	</g>
</g>
<g>
	<g>
		<path d="M75.137,348.613l-0.182-0.625c-1.545-5.302-7.093-8.35-12.398-6.803c-5.303,1.544-8.348,7.095-6.803,12.398l0.034,0.117
			c0.01,0.036,0.021,0.072,0.031,0.108c0.006,0.021,0.013,0.043,0.019,0.064l0.045,0.154c0.007,0.026,0.015,0.053,0.023,0.078
			l0.026,0.091h0.001c1.5,4.855,5.639,7.212,9.639,7.212c0.941,0,1.875-0.131,2.765-0.388
			C73.639,359.473,76.682,353.915,75.137,348.613z"/>
	</g>
</g>
<g>
</g>
<g>
</g>
<g>
</g>
<g>
</g>
<g>
</g>
<g>
</g>
<g>
</g>
<g>
</g>
<g>
</g>
<g>
</g>
<g>
</g>
<g>
</g>
<g>
</g>
<g>
</g>
<g>
</g>
</svg>
