<?xml version="1.0" encoding="iso-8859-1"?>
<!-- Generator: Adobe Illustrator 19.0.0, SVG Export Plug-In . SVG Version: 6.00 Build 0)  -->
<svg version="1.1" id="Capa_1" xmlns="http://www.w3.org/2000/svg" xmlns:xlink="http://www.w3.org/1999/xlink" x="0px" y="0px"
	 viewBox="0 0 512.002 512.002" style="enable-background:new 0 0 512.002 512.002;" xml:space="preserve">
<g>
	<g>
		<path d="M510.744,311.828c-2.942-22.998-11.218-45.401-23.936-64.788c-13.52-20.609-20.666-44.533-20.666-69.183v-54.07
			c0-28.28-15.664-53.804-40.877-66.611c-21.102-10.717-45.509-9.279-64.762,2.873c4.633-7.192,10.54-14.255,17.474-20.011
			c2.165-1.796,3.472-4.422,3.603-7.23c0.131-2.809-0.929-5.544-2.918-7.533L356.317,2.928c-3.555-3.554-9.195-3.917-13.177-0.848
			c-22.658,17.471-38.245,41.849-45.731,62.119c-19.97-15.866-47.296-18.86-70.597-7.025c-25.214,12.808-40.877,38.33-40.877,66.611
			v54.07c0,6.665-0.537,13.34-1.589,19.926c-1.218-0.727-2.449-1.438-3.709-2.116l-7.866-4.231c-2.957-1.592-6.516-1.592-9.473,0
			l-7.866,4.23c-7.723,4.154-14.803,9.355-21.04,15.46c-3.947,3.863-4.016,10.193-0.153,14.141
			c3.862,3.947,10.193,4.015,14.14,0.153c4.896-4.792,10.456-8.876,16.525-12.141l3.13-1.684l3.131,1.685
			c30.007,16.137,44.825,50.396,36.035,83.314c-1.023,3.834,0.316,7.909,3.415,10.388c3.099,2.478,7.368,2.89,10.884,1.051
			c27.664-14.481,61.813-11.912,86.998,6.545l5.64,4.135l-1.467,4.153c-10.607,30.032-36.551,52.792-67.707,59.399
			c-3.732,0.791-6.688,3.637-7.621,7.335c-0.933,3.699,0.32,7.606,3.23,10.073l3.967,3.362
			c26.004,22.042,32.16,59.349,15.197,88.424c-32.92,3.723-65.244-13.316-80.744-42.681l-2.112-4.001
			c-1.772-3.358-5.292-5.42-9.089-5.328c-3.796,0.094-7.211,2.329-8.816,5.77c-14.812,31.757-47.915,50.225-82.636,46.242
			c-16.966-29.075-10.81-66.383,15.196-88.426l3.966-3.362c2.91-2.467,4.163-6.374,3.23-10.073c-0.933-3.699-3.89-6.544-7.621-7.335
			c-31.157-6.606-57.1-29.366-67.707-59.399l-1.467-4.153l5.641-4.135c25.185-18.457,59.333-21.028,86.998-6.545
			c3.515,1.84,7.786,1.429,10.883-1.051c3.099-2.479,4.438-6.554,3.415-10.387c-1.316-4.93-2.119-9.996-2.385-15.06
			c-0.29-5.516-4.985-9.732-10.511-9.46c-5.516,0.29-9.75,4.997-9.46,10.511c0.011,0.199,0.022,0.398,0.034,0.598
			c-12.204-3.769-25.052-5.236-37.912-4.268c-19.126,1.439-37.414,8.192-52.883,19.531l-11.632,8.527
			c-3.557,2.607-4.986,7.236-3.518,11.395l3.941,11.157c10.876,30.795,35.002,55.309,65.008,67.078
			c-26.903,30.177-30.581,75.291-7.472,109.75c1.606,2.395,4.167,3.979,7.026,4.348l3.531,0.455
			c4.396,0.566,8.771,0.845,13.109,0.845c32.94-0.001,63.567-16.01,82.374-42.793c21.348,30.147,58.192,46.739,95.431,41.934
			l3.415-0.44c2.637-0.34,5.01-1.725,6.624-3.814c8.834,3.401,18.038,5.115,27.258,5.115c8.479,0,16.97-1.441,25.191-4.329
			c17.604,6.18,36.473,5.711,53.809-1.333c0.086-0.031,0.172-0.055,0.258-0.089l14.183-5.657
			c50.685-20.219,89.784-61.462,107.267-113.155l2.329-6.883C511.313,358.591,513.685,334.826,510.744,311.828z M348.644,23.538
			l8.559,8.559c-11.614,12.038-20.888,27.355-25.3,41.785c-5.638-0.466-11.31-0.253-16.912,0.631
			C319.979,59.054,331.563,39.042,348.644,23.538z M254.75,170.5l3.804,27.523c3.775,27.313,0.734,55.246-8.77,81.093
			c-6.867,0.67-13.646,2.026-20.238,4.061c1.653-27.01-8.551-53.205-27.717-71.946c0.31-0.662,0.56-1.364,0.723-2.108
			c2.245-10.251,3.384-20.77,3.384-31.266v-54.07c0-20.71,11.471-39.401,29.935-48.781c17.974-9.133,39.393-5.586,53.469,8.788
			c-21.384,12.725-34.683,35.668-34.683,61.224v24.113C254.656,169.589,254.687,170.046,254.75,170.5z M316.004,489.875
			c-10.866,3.065-22.233,2.784-32.954-0.825c12.263-31.247,6.055-67.111-16.531-92.448c19.739-7.742,36.934-21.001,49.485-37.935
			V489.875z M404.251,454.554c-5.229,14.64-15.929,26.186-30.129,32.511c-12.184,5.427-25.5,6.355-38.12,2.783V252.591
			c0-5.521-4.477-9.999-9.999-9.999s-9.999,4.478-9.999,9.999v42.881c-13.541-8.899-28.969-14.466-45.094-16.232
			c8.767-26.991,11.35-55.768,7.454-83.953l-3.71-26.843v-23.426c0-21.273,12.796-40.039,32.598-47.811
			c0.023-0.009,0.06-0.023,0.094-0.037c2.829-1.107,5.725-1.945,8.657-2.533v68.351c0,5.522,4.477,9.999,9.999,9.999
			s9.999-4.478,9.999-9.999V94.613c2.995,0.594,5.953,1.45,8.841,2.584c19.791,7.775,32.58,26.541,32.58,47.805v23.443l-3.71,26.843
			c-5.436,39.332,1.505,78.674,20.073,113.771C417.472,353.824,421.285,406.857,404.251,454.554z M484.94,374.147l-2.329,6.883
			c-11.178,33.046-32.255,61.304-59.938,81.312c0.133-0.356,0.281-0.704,0.41-1.063C442,408.312,437.766,349.42,411.463,299.704
			c-16.595-31.366-22.799-66.527-17.94-101.679l3.804-27.523c0.063-0.454,0.094-0.911,0.094-1.369v-24.131
			c0-25.549-13.294-48.492-34.671-61.218c14.076-14.366,35.487-17.905,53.458-8.777c18.464,9.379,29.935,28.07,29.935,48.781v54.07
			c0,28.558,8.279,56.274,23.944,80.153C492.786,292.614,498.2,334.945,484.94,374.147z"/>
	</g>
</g>
<g>
	<g>
		<path d="M126.674,236.453c-5.096-2.134-10.952,0.27-13.084,5.364c-0.125,0.297-0.247,0.594-0.367,0.892
			c-2.077,5.117,0.387,10.948,5.503,13.025c1.232,0.5,2.505,0.737,3.758,0.737c3.95,0,7.691-2.356,9.268-6.241l0.285-0.692
			C134.17,244.442,131.769,238.584,126.674,236.453z"/>
	</g>
</g>
<g>
	<g>
		<path d="M188.24,269.468c-4.57-6.664-12.124-10.643-20.205-10.643s-15.635,3.979-20.205,10.643
			c-4.17,6.078-5.38,13.625-3.322,20.702l13.926,47.876c1.242,4.271,5.155,7.206,9.601,7.206s8.359-2.937,9.601-7.206l13.926-47.876
			C193.62,283.092,192.409,275.546,188.24,269.468z M172.36,284.584l-4.325,14.868l-4.325-14.868
			c-0.378-1.301-0.156-2.688,0.611-3.806c1.167-1.702,2.828-1.956,3.714-1.956c0.886,0,2.547,0.254,3.715,1.956
			C172.515,281.896,172.738,283.283,172.36,284.584z"/>
	</g>
</g>
<g>
	<g>
		<path d="M142.963,349.287l-41.227-28.04c-6.095-4.146-13.647-5.326-20.716-3.239c-7.75,2.288-13.869,8.241-16.365,15.927
			c-2.498,7.685-1.048,16.099,3.877,22.505c4.494,5.845,11.296,9.328,18.663,9.557l49.835,1.551
			c0.105,0.003,0.209,0.005,0.313,0.005c4.318,0,8.166-2.78,9.507-6.909C148.223,356.416,146.64,351.787,142.963,349.287z
			 M87.816,346.009c-1.354-0.042-2.604-0.683-3.43-1.757c-1.258-1.637-0.987-3.294-0.713-4.137c0.273-0.843,1.029-2.344,3.009-2.928
			c0.421-0.124,0.852-0.186,1.28-0.186c0.892,0,1.771,0.266,2.528,0.78l12.803,8.707L87.816,346.009z"/>
	</g>
</g>
<g>
	<g>
		<path d="M154.943,385.547c-3.598-2.615-8.489-2.538-12.003,0.187l-39.405,30.546c-5.827,4.516-9.283,11.332-9.483,18.702
			c-0.219,8.077,3.554,15.736,10.092,20.485c4.245,3.085,9.295,4.682,14.401,4.682c2.758,0,5.531-0.466,8.202-1.415
			c6.945-2.468,12.36-7.86,14.854-14.796l16.874-46.918C159.979,392.835,158.54,388.16,154.943,385.547z M122.783,437.168
			c-0.458,1.275-1.455,2.267-2.731,2.721c-1.947,0.688-3.438-0.08-4.155-0.601c-0.717-0.521-1.911-1.703-1.855-3.767
			c0.037-1.354,0.671-2.607,1.743-3.438l12.237-9.485L122.783,437.168z"/>
	</g>
</g>
<g>
	<g>
		<path d="M232.537,416.281l-39.407-30.547c-3.513-2.726-8.404-2.802-12.002-0.187c-3.598,2.613-5.037,7.289-3.532,11.474
			l16.874,46.917c2.494,6.936,7.908,12.329,14.856,14.797c2.67,0.949,5.443,1.415,8.2,1.415c5.105,0,10.156-1.597,14.401-4.682
			c6.538-4.75,10.311-12.408,10.091-20.486C241.818,427.611,238.361,420.795,232.537,416.281z M220.174,439.289
			c-0.716,0.521-2.209,1.291-4.154,0.601c-1.278-0.454-2.273-1.445-2.732-2.721l-5.24-14.569l12.239,9.485
			c1.07,0.829,1.705,2.082,1.742,3.437C222.085,437.585,220.89,438.767,220.174,439.289z"/>
	</g>
</g>
<g>
	<g>
		<path d="M271.416,333.936c-2.497-7.686-8.615-13.641-16.366-15.929c-7.069-2.086-14.62-0.907-20.716,3.239l-41.229,28.038
			c-3.677,2.5-5.26,7.128-3.887,11.357c1.342,4.13,5.188,6.909,9.507,6.909c0.104,0,0.208-0.002,0.313-0.005l49.834-1.551
			c7.37-0.227,14.173-3.711,18.665-9.555C272.464,350.034,273.914,341.621,271.416,333.936z M251.683,344.254
			c-0.825,1.073-2.075,1.714-3.43,1.756l-15.476,0.48l12.803-8.707c0.757-0.515,1.636-0.78,2.528-0.78
			c0.428,0,0.859,0.062,1.281,0.186c1.979,0.584,2.734,2.085,3.008,2.928C252.67,340.959,252.942,342.616,251.683,344.254z"/>
	</g>
</g>
<g>
	<g>
		<path d="M333.072,202.875c-1.86-1.859-4.44-2.93-7.069-2.93s-5.209,1.07-7.069,2.93c-1.86,1.86-2.93,4.44-2.93,7.069
			s1.07,5.21,2.93,7.069c1.86,1.859,4.44,2.93,7.069,2.93s5.21-1.07,7.069-2.93c1.86-1.86,2.93-4.431,2.93-7.069
			C336.002,207.314,334.932,204.735,333.072,202.875z"/>
	</g>
</g>
<g>
</g>
<g>
</g>
<g>
</g>
<g>
</g>
<g>
</g>
<g>
</g>
<g>
</g>
<g>
</g>
<g>
</g>
<g>
</g>
<g>
</g>
<g>
</g>
<g>
</g>
<g>
</g>
<g>
</g>
</svg>
