<?xml version="1.0" encoding="iso-8859-1"?>
<!-- Generator: Adobe Illustrator 19.0.0, SVG Export Plug-In . SVG Version: 6.00 Build 0)  -->
<svg version="1.1" id="Capa_1" xmlns="http://www.w3.org/2000/svg" xmlns:xlink="http://www.w3.org/1999/xlink" x="0px" y="0px"
	 viewBox="0 0 511.998 511.998" style="enable-background:new 0 0 511.998 511.998;" xml:space="preserve">
<g>
	<g>
		<path d="M176.423,474.051c-2.607-4.867-8.665-6.701-13.537-4.096l-0.497,0.268c-4.869,2.606-6.703,8.667-4.097,13.537
			c1.803,3.366,5.256,5.282,8.825,5.282c1.593,0,3.208-0.382,4.711-1.186l0.497-0.268
			C177.195,484.981,179.029,478.92,176.423,474.051z"/>
	</g>
</g>
<g>
	<g>
		<path d="M174.678,413.502c-3.906-3.904-10.237-3.904-14.144,0l-6.929,6.929c-3.905,3.905-3.905,10.238,0,14.144
			c1.953,1.952,4.512,2.929,7.071,2.929s5.119-0.977,7.072-2.929l6.929-6.929C178.583,423.74,178.583,417.408,174.678,413.502z"/>
	</g>
</g>
<g>
	<g>
		<path d="M398.964,281.656c61.463-79.847,79.149-140.975,51.571-178.19c2.468-3.869,2.019-9.062-1.36-12.442
			c-2.446-2.444-5.841-3.358-8.997-2.741c-6.643-4.165-12.158-9.945-16-16.858c-9.471-17.048-3.308-38.622,13.738-48.093
			c6.141-3.411,13.241-4.228,19.993-2.298c6.753,1.929,12.352,6.372,15.763,12.513c2.469,4.443,3.06,9.583,1.663,14.473
			c-1.397,4.889-4.613,8.94-9.058,11.411c-3.088,1.717-6.659,2.125-10.057,1.156c-3.397-0.971-6.214-3.206-7.93-6.294
			c-2.298-4.137-0.803-9.371,3.334-11.671c4.827-2.683,6.566-8.771,3.884-13.6c-2.684-4.828-8.773-6.565-13.6-3.884
			c-13.776,7.655-18.757,25.091-11.103,38.868c4.311,7.758,11.386,13.374,19.92,15.812c8.536,2.439,17.507,1.406,25.266-2.904
			c18.814-10.455,25.617-34.267,15.163-53.081c-6.006-10.811-15.862-18.634-27.751-22.03c-11.892-3.396-24.391-1.96-35.201,4.047
			c-25.518,14.178-35.441,45.675-23.299,71.741c-4.569-0.502-9.331-0.634-14.302-0.352c-9.287,0.524-19.313,2.465-29.995,5.776
			c-5.522-7.008-17.869-21.129-37.808-35.849C297.573,28.539,254.701,5.248,193.72,0.05c-2.709-0.234-5.383,0.647-7.425,2.43
			c-2.043,1.783-3.274,4.319-3.412,7.028c-0.974,19.205,6.352,49.078,11.869,68.443c-10.484-2.982-24.771-6.263-41.655-8.152
			c-33.067-3.701-82.798-2.507-131.932,24.187c-2.372,1.289-4.122,3.482-4.853,6.081c-0.73,2.6-0.379,5.383,0.975,7.719
			c28.135,48.564,65.011,74.838,90.992,88.326c9.489,4.926,18.239,8.557,25.72,11.214c-14.034,8.862-30.697,22.057-38.053,38.065
			c-1.513,3.292-1.126,7.146,1.011,10.072c4.417,6.052,13.157,10.291,27.435,13.323c-32.922,37.559-58.128,72.676-74.059,103.391
			c-12.81,24.697-19.844,46.914-20.909,66.035c-1.216,21.814,5.152,39.858,18.929,53.635c12.725,12.725,28.901,19.106,48.311,19.106
			c9.479,0,19.729-1.522,30.723-4.572c5.322-1.476,8.439-6.986,6.963-12.31c-1.475-5.321-6.99-8.438-12.31-6.963
			c-26.415,7.326-45.89,4.25-59.544-9.404c-19.384-19.383-17.502-51.789,5.592-96.318c21.876-42.181,62.43-93.467,117.277-148.314
			c54.746-54.747,106.061-95.267,148.4-117.181c44.562-23.067,76.942-24.981,96.234-5.688c14.749,14.749,17.036,37.454,6.798,67.486
			c-9.884,28.995-30.785,63.475-62.14,102.529c-27.915,1.266-55.457,12.531-76.726,33.8c-22.52,22.52-33.823,52.071-33.919,81.651
			c-22.267,19.875-43.677,37.017-63.686,50.976c-4.529,3.16-5.64,9.394-2.479,13.924c1.944,2.787,5.052,4.279,8.21,4.279
			c1.975,0,3.971-0.584,5.713-1.8c17.381-12.126,35.741-26.537,54.744-42.955c4.472,21.263,14.94,41.505,31.417,57.982
			c22.615,22.615,52.322,33.923,82.028,33.923s59.413-11.308,82.028-33.923c45.231-45.231,45.231-118.826,0-164.057
			C444.211,296.246,422.056,285.461,398.964,281.656z M324.568,98.131c-11.671,6.041-23.968,13.418-36.776,22.021l-25.109-44.078
			c-2.735-4.798-8.838-6.475-13.641-3.739c-4.799,2.734-6.473,8.841-3.739,13.641l26.033,45.699
			c-11.215,8.17-22.77,17.214-34.598,27.065l-71.359-22.65c-5.258-1.669-10.887,1.241-12.558,6.506
			c-1.671,5.264,1.242,10.887,6.506,12.558l59.549,18.902c-15.533,13.692-31.464,28.681-47.658,44.877
			c-10.893,10.894-21.236,21.661-31.012,32.267c-8.16-1.003-16.36-2.819-21.653-4.697c11.922-15.691,36.477-28.883,46.164-33.11
			c4.102-1.782,6.509-6.073,5.913-10.507c-0.596-4.432-4.074-7.932-8.501-8.567c-0.196-0.028-19.927-2.977-45.414-16.357
			c-31.054-16.304-56.788-40.215-76.622-71.167c33.22-15.758,70.204-21.538,110.113-17.188c32.97,3.596,55.636,13.152,55.849,13.243
			c3.622,1.557,7.82,0.843,10.723-1.827c2.902-2.67,3.964-6.795,2.713-10.534c-4.271-12.759-14.187-46.354-16.3-69.315
			c49.981,6.422,85.504,25.823,106.992,41.543c14.463,10.58,24.568,20.866,30.565,27.721
			C335.483,92.717,330.092,95.271,324.568,98.131z M447.842,463.934c-37.432,37.434-98.339,37.434-135.771,0
			c-37.433-37.432-37.433-98.339,0-135.771c18.716-18.717,43.301-28.074,67.885-28.074c24.584,0,49.169,9.357,67.885,28.074
			C485.275,365.595,485.275,426.502,447.842,463.934z"/>
	</g>
</g>
<g>
	<g>
		<path d="M394.057,317.315c-8.434-6.214-19.769-6.214-28.2,0c-9.757,7.188-12.547,20.525-6.485,31.023l11.925,20.655
			c1.786,3.094,5.088,5,8.66,5c3.572,0,6.874-1.906,8.66-5l11.926-20.655C406.604,337.841,403.813,324.504,394.057,317.315z
			 M383.22,338.337l-3.265,5.654l-3.265-5.654c-0.96-1.664-0.517-3.779,1.03-4.919c0.669-0.493,1.452-0.739,2.236-0.739
			c0.783,0,1.567,0.246,2.236,0.739C383.739,334.558,384.181,336.673,383.22,338.337z"/>
	</g>
</g>
<g>
	<g>
		<path d="M400.542,443.76l-11.926-20.656c-1.786-3.094-5.088-5-8.66-5c-3.572,0-6.874,1.906-8.66,5L359.37,443.76
			c-6.061,10.497-3.271,23.833,6.485,31.023c4.217,3.107,9.158,4.661,14.101,4.66c4.941,0,9.884-1.554,14.101-4.66
			C403.814,467.594,406.604,454.258,400.542,443.76z M382.192,458.68c-1.338,0.985-3.135,0.986-4.473,0
			c-1.547-1.14-1.989-3.255-1.028-4.919l3.265-5.654l3.265,5.654C384.182,455.425,383.739,457.54,382.192,458.68z"/>
	</g>
</g>
<g>
	<g>
		<path d="M360.855,407.076c-1.786-3.094-5.088-5-8.66-5h-23.851c-12.119,0-22.275,9.082-23.624,21.129
			c-1.163,10.411,4.504,20.225,14.102,24.421c3.095,1.354,6.333,1.999,9.525,1.999c8.26,0,16.213-4.322,20.583-11.894l11.926-20.655
			C362.642,413.983,362.642,410.17,360.855,407.076z M331.609,427.731c-0.961,1.664-3.014,2.336-4.774,1.57
			c-1.522-0.666-2.421-2.223-2.237-3.873c0.214-1.91,1.825-3.351,3.747-3.351h6.529L331.609,427.731z"/>
	</g>
</g>
<g>
	<g>
		<path d="M441.091,344.47c-11.105-4.856-24.048-0.602-30.11,9.896l-11.926,20.654c-1.786,3.094-1.786,6.906,0,10
			c1.786,3.094,5.088,5,8.66,5h23.851c12.119,0,22.275-9.082,23.623-21.127C456.356,358.482,450.69,348.666,441.091,344.47z
			 M435.315,366.669c-0.214,1.91-1.825,3.351-3.747,3.351h-6.529l3.265-5.654c0,0,0,0,0-0.001c0.961-1.665,3.014-2.335,4.775-1.568
			C434.602,363.462,435.5,365.019,435.315,366.669z"/>
	</g>
</g>
<g>
	<g>
		<path d="M455.191,423.203c-1.347-12.045-11.504-21.127-23.623-21.127h-23.851c-3.572,0-6.874,1.906-8.66,5
			c-1.786,3.094-1.786,6.906,0,10.001l11.926,20.655c4.371,7.57,12.323,11.895,20.583,11.895c3.192,0,6.431-0.646,9.525-2
			C450.69,443.43,456.356,433.615,455.191,423.203z M433.078,429.301c-1.758,0.771-3.813,0.096-4.774-1.569l-3.265-5.654h6.529
			c1.922,0,3.533,1.44,3.746,3.351C435.5,427.078,434.602,428.635,433.078,429.301z"/>
	</g>
</g>
<g>
	<g>
		<path d="M360.856,375.021l-11.926-20.654c-6.059-10.498-19.005-14.752-30.109-9.896c-9.596,4.196-15.264,14.011-14.1,24.423
			c1.347,12.044,11.505,21.127,23.623,21.127h23.851c3.572,0,6.874-1.906,8.66-5C362.642,381.927,362.642,378.115,360.856,375.021z
			 M328.346,370.02c-1.922,0-3.533-1.44-3.746-3.349c-0.186-1.652,0.712-3.209,2.234-3.875c0.491-0.215,1.005-0.316,1.512-0.316
			c1.31,0,2.57,0.686,3.264,1.886l3.265,5.654H328.346z"/>
	</g>
</g>
<g>
	<g>
		<path d="M102.779,422.168c-3.905-3.904-10.236-3.904-14.143,0l-6.533,6.533c-3.905,3.905-3.905,10.237,0,14.144
			c1.953,1.952,4.512,2.929,7.071,2.929c2.559,0,5.118-0.977,7.071-2.929l6.533-6.533
			C106.684,432.407,106.684,426.074,102.779,422.168z"/>
	</g>
</g>
<g>
	<g>
		<path d="M160.943,324.148c-3.904-3.906-10.238-3.905-14.143,0.001l-6.928,6.929c-3.905,3.905-3.905,10.237,0.001,14.143
			c1.952,1.953,4.511,2.929,7.07,2.929s5.119-0.977,7.071-2.93l6.929-6.929C164.849,334.386,164.849,328.053,160.943,324.148z"/>
	</g>
</g>
<g>
	<g>
		<path d="M229.397,243.216c-3.906-3.905-10.237-3.905-14.143,0l-5.921,5.921c-3.905,3.905-3.905,10.238,0,14.144
			c1.953,1.952,4.512,2.929,7.071,2.929s5.118-0.977,7.071-2.929l5.921-5.921C233.302,253.454,233.302,247.122,229.397,243.216z"/>
	</g>
</g>
<g>
	<g>
		<path d="M226.434,373.549c-3.905-3.907-10.239-3.904-14.143,0.001l-5.166,5.167c-3.905,3.906-3.904,10.239,0.002,14.143
			c1.952,1.953,4.512,2.929,7.07,2.929c2.56,0,5.119-0.977,7.071-2.93l5.166-5.167C230.341,383.786,230.34,377.454,226.434,373.549z
			"/>
	</g>
</g>
<g>
	<g>
		<path d="M312.69,244.51c-3.906-3.904-10.237-3.904-14.144,0l-3.332,3.333c-3.905,3.905-3.905,10.238,0,14.144
			c1.953,1.952,4.512,2.929,7.071,2.929c2.559,0,5.118-0.977,7.071-2.929l3.333-3.333
			C316.595,254.748,316.595,248.416,312.69,244.51z"/>
	</g>
</g>
<g>
	<g>
		<path d="M250.437,302.382c-3.906-3.904-10.237-3.904-14.144,0l-7.267,7.267c-3.904,3.906-3.904,10.239,0.001,14.144
			c1.953,1.952,4.512,2.929,7.071,2.929c2.559,0,5.118-0.977,7.071-2.929l7.267-7.267
			C254.342,312.62,254.342,306.288,250.437,302.382z"/>
	</g>
</g>
<g>
	<g>
		<path d="M374.996,217.959c-3.905-3.904-10.236-3.904-14.143,0l-3.481,3.481c-3.905,3.905-3.905,10.238,0,14.144
			c1.953,1.952,4.512,2.929,7.071,2.929s5.118-0.977,7.071-2.929l3.481-3.481C378.901,228.197,378.901,221.865,374.996,217.959z"/>
	</g>
</g>
<g>
	<g>
		<path d="M320.779,175.201c-3.906-3.904-10.237-3.904-14.144,0l-3.221,3.221c-3.905,3.905-3.905,10.238,0,14.144
			c1.953,1.952,4.512,2.929,7.071,2.929s5.118-0.977,7.072-2.929l3.221-3.221C324.684,185.44,324.684,179.108,320.779,175.201z"/>
	</g>
</g>
<g>
	<g>
		<path d="M392.361,143.955c-3.906-3.904-10.237-3.904-14.144,0l-5.333,5.333c-3.905,3.905-3.905,10.238,0,14.144
			c1.953,1.952,4.512,2.929,7.071,2.929c2.559,0,5.119-0.976,7.072-2.929l5.333-5.333
			C396.266,154.193,396.266,147.861,392.361,143.955z"/>
	</g>
</g>
<g>
	<g>
		<path d="M134.499,127.465c-1.86-1.86-4.43-2.93-7.07-2.93c-2.63,0-5.21,1.07-7.07,2.93c-1.859,1.86-2.93,4.44-2.93,7.07
			s1.07,5.21,2.93,7.07c1.86,1.859,4.44,2.93,7.07,2.93s5.21-1.07,7.07-2.93c1.859-1.86,2.93-4.44,2.93-7.07
			S136.359,129.325,134.499,127.465z"/>
	</g>
</g>
<g>
</g>
<g>
</g>
<g>
</g>
<g>
</g>
<g>
</g>
<g>
</g>
<g>
</g>
<g>
</g>
<g>
</g>
<g>
</g>
<g>
</g>
<g>
</g>
<g>
</g>
<g>
</g>
<g>
</g>
</svg>
