<?xml version="1.0" encoding="iso-8859-1"?>
<!-- Generator: Adobe Illustrator 19.0.0, SVG Export Plug-In . SVG Version: 6.00 Build 0)  -->
<svg version="1.1" id="Capa_1" xmlns="http://www.w3.org/2000/svg" xmlns:xlink="http://www.w3.org/1999/xlink" x="0px" y="0px"
	 viewBox="0 0 512 512" style="enable-background:new 0 0 512 512;" xml:space="preserve">
<g>
	<g>
		<path d="M481.258,259.38c-0.729-0.868-1.468-1.725-2.214-2.566c-22.293-25.189-53.212-40.403-87.063-42.837
			c-33.653-2.418-66.576,8.013-92.72,29.375l-4.917,4.019c-0.542,0.443-1.073,0.895-1.606,1.344
			c-5.738-48.049,23.592-94.781,71.226-109.438c6.669,0.566,13.347,0.865,20.016,0.865c39.206-0.001,78.091-9.733,112.876-28.642
			c13.279-7.218,18.769-23.657,12.499-37.424c-3.266-7.169-9.403-12.77-16.84-15.365c-7.481-2.612-15.477-2.074-22.512,1.514
			c-26.045,13.285-55.254,19.994-84.489,19.41c-0.068-0.001-0.136-0.002-0.205-0.002c-5.428,0-9.884,4.346-9.993,9.799
			c-0.111,5.52,4.276,10.086,9.796,10.197c32.522,0.646,65.006-6.813,93.976-21.59c2.128-1.085,4.555-1.243,6.834-0.448
			c2.344,0.818,4.203,2.515,5.231,4.773c1.939,4.259,0.249,9.338-3.85,11.565c-39.056,21.229-81.979,29.365-123.48,25.51
			c-0.395-0.06-0.794-0.102-1.198-0.114c-56.968-5.611-111.16-33.831-148.871-81.84c-1.593-2.028-2.229-4.544-1.789-7.081
			c0.437-2.528,1.873-4.673,4.042-6.039l4.688-2.955c3.897-2.456,8.956-1.594,11.768,2.004
			c19.929,25.502,46.079,45.925,75.626,59.058c5.045,2.244,10.956-0.029,13.199-5.075c2.244-5.045-0.029-10.955-5.075-13.198
			C289.65,52.391,266.139,34.03,248.22,11.1c-9.156-11.716-25.573-14.557-38.187-6.607l-4.688,2.955
			c-6.92,4.361-11.69,11.486-13.085,19.548c-1.396,8.073,0.706,16.398,5.768,22.844c23.283,29.643,53.289,53.11,87.202,68.689
			c-21.995,5.475-42.703,15.512-61.176,29.795c-26.139,20.209-46.301,48.338-57.408,79.853c-30.023-8.932-62.009-6.857-90.739,6.002
			c-30.815,13.791-54.541,38.53-66.81,69.661c-0.411,1.044-0.81,2.094-1.196,3.153c-12.347,33.843-10.051,71.665,6.297,103.764
			l39.172,76.918C61.217,503.077,76.746,512,92.968,512c6.193,0,12.489-1.302,18.494-4.04l78.54-35.809
			c30.625-13.964,54.755-39.473,67.097-70.635c3.886,8.676,8.761,16.963,14.597,24.711c0.678,0.899,1.368,1.793,2.073,2.681
			c22.525,28.358,56.149,46.256,92.251,49.103l86.543,6.825c1.205,0.096,2.4,0.142,3.587,0.142
			c22.401,0,41.501-16.629,44.273-39.245l10.562-86.167C515.393,323.622,504.558,287.105,481.258,259.38z M128.957,242.644
			c12.256,0,24.751,2.04,37.021,6.324l5.961,2.083h0.001c35.544,12.414,60.816,40.746,70.203,74.084
			c-11.334-5.304-27.133-15.672-39.84-35.324c-2.241-3.468-6.382-5.203-10.424-4.362c-4.042,0.837-7.154,4.072-7.834,8.143
			c-2.899,17.351-9.01,25.041-13.084,28.345c-5.457-6.053-13.783-19.071-9.51-39.233c1.035-4.885-1.692-9.784-6.388-11.478
			c-4.698-1.697-9.924,0.335-12.246,4.757c-8.89,16.925-24.021,20.547-33.549,21.003c0.996-7.12,3.642-16.975,10.589-23.51
			c3.82-3.594,4.215-9.526,0.905-13.595c-3.311-4.068-9.2-4.887-13.495-1.878c-14.834,10.394-33.623,10.56-46.999,8.8
			C79.48,251.309,103.709,242.644,128.957,242.644z M241.431,385.81c-0.278,0.909-0.568,1.818-0.871,2.726
			c-9.656,28.926-31.107,52.771-58.853,65.422l-78.54,35.809c-11.961,5.45-26.007,0.549-31.974-11.167l-39.173-76.918
			c-13.839-27.173-15.781-59.188-5.33-87.837c0.328-0.897,0.666-1.789,1.015-2.673c3.963-10.054,9.277-19.17,15.639-27.25
			c9.654,2.461,28.33,5.867,47.754,2.006c-2.821,11.078-2.414,20.279-2.378,20.96c0.237,4.579,3.56,8.41,8.059,9.294
			c10.258,2.012,28.855,1.366,44.784-9.396c4.804,22.938,21.064,34.724,21.989,35.377c2.248,1.586,5.05,2.178,7.749,1.633
			c2.096-0.424,17.392-4.247,26.848-26.752c17.816,19.401,37.383,27.713,47.837,31.011c-0.025,2.621,0.038,5.232,0.17,7.833
			C246.001,365.803,244.472,375.857,241.431,385.81z M254.751,301.993c-0.978-2.167-2.01-4.318-3.113-6.445
			c-14.291-27.585-37.607-48.915-66.147-60.716c21.247-60.81,76.498-101.169,139.643-101.169c0.876,0,3.294-0.15,3.676-0.059
			c-43.456,27.486-66.079,80.639-53.178,132.465C266.787,276.878,259.746,288.989,254.751,301.993z M266.096,356.85
			c0.067-3.586-0.013-7.17-0.251-10.745c0.808-31.12,14.895-61.797,41.151-83.248l4.918-4.019
			c31.049-25.37,71.348-31.498,106.299-19.465c-12.01,6.302-29.885,12.681-47.684,7.905c-5.065-1.358-10.319,1.426-12.038,6.379
			c-1.719,4.954,0.682,10.395,5.499,12.466c8.882,3.815,14.781,12.261,18.163,18.657c-9.182,2.868-24.787,4.688-39.061-8.296
			c-3.693-3.359-9.299-3.48-13.134-0.281c-3.834,3.199-4.721,8.735-2.077,12.972c11.024,17.666,7.57,32.896,4.499,40.454
			c-4.992-1.705-13.457-6.861-22.205-22.332c-2.032-3.594-6.065-5.562-10.147-4.974c-4.085,0.597-7.383,3.642-8.303,7.664
			c-5.286,23.109-16.693,38.35-25.602,47.236C266.113,357.1,266.105,356.975,266.096,356.85z M491.137,357.135l-10.562,86.167
			c-1.613,13.156-13.222,22.64-26.438,21.602l-86.544-6.825c-30.589-2.413-59.079-17.577-78.161-41.602
			c-0.599-0.755-1.187-1.515-1.763-2.28c-7.976-10.588-13.721-22.162-17.317-34.169c8.742-6.704,24.422-21.317,34.594-45.848
			c16.679,18.063,32.462,16.416,34.585,16.095c2.722-0.41,5.154-1.925,6.723-4.186c0.649-0.936,11.979-17.686,8.59-41.041
			c18.767,4.724,36.59-1.063,45.595-6.497c3.926-2.369,5.737-7.105,4.394-11.49c-0.201-0.656-2.993-9.53-9.499-19.049
			c19.746-3.022,36.279-12.71,44.55-18.357c8.807,5.453,16.972,12.263,24.187,20.414c0.634,0.717,1.26,1.442,1.878,2.178
			C485.69,295.736,494.871,326.678,491.137,357.135z"/>
	</g>
</g>
<g>
	<g>
		<path d="M452.207,283.877c-3.551-4.228-9.858-4.775-14.087-1.222c-4.228,3.553-4.775,9.859-1.222,14.088
			c12.148,14.455,17.797,33.495,15.499,52.236l-5.397,44.033c-0.672,5.48,3.227,10.47,8.708,11.142
			c0.413,0.051,0.823,0.075,1.229,0.075c4.979,0,9.291-3.716,9.912-8.783l5.397-44.033
			C475.217,327.182,467.914,302.565,452.207,283.877z"/>
	</g>
</g>
<g>
	<g>
		<path d="M376.084,361.421l-2.49-2.488c-3.906-3.903-10.237-3.9-14.141,0.004c-3.904,3.907-3.902,10.237,0.004,14.142l2.49,2.488
			c1.952,1.951,4.511,2.927,7.068,2.927c2.56,0,5.12-0.978,7.072-2.931C379.992,371.656,379.99,365.326,376.084,361.421z"/>
	</g>
</g>
<g>
	<g>
		<path d="M323.992,399.432l-3.515-3.536c-3.895-3.916-10.225-3.936-14.141-0.043c-3.917,3.894-3.937,10.225-0.043,14.142
			l3.515,3.536c1.955,1.966,4.523,2.95,7.092,2.95c2.549,0,5.099-0.969,7.048-2.907C327.865,409.68,327.885,403.349,323.992,399.432
			z"/>
	</g>
</g>
<g>
	<g>
		<path d="M423.869,358.132c-1.86-1.859-4.44-2.93-7.069-2.93c-2.64,0-5.209,1.07-7.069,2.93c-1.87,1.86-2.93,4.44-2.93,7.069
			c0,2.63,1.06,5.209,2.93,7.069c1.86,1.86,4.43,2.93,7.069,2.93c2.63,0,5.209-1.07,7.069-2.93c1.86-1.86,2.93-4.44,2.93-7.069
			C426.799,362.572,425.729,359.992,423.869,358.132z"/>
	</g>
</g>
<g>
	<g>
		<path d="M415.04,316.357c-1.86-1.859-4.44-2.93-7.069-2.93c-2.63,0-5.209,1.07-7.069,2.93c-1.86,1.86-2.93,4.44-2.93,7.069
			c0,2.63,1.07,5.209,2.93,7.069c1.86,1.859,4.44,2.93,7.069,2.93c2.63,0,5.209-1.071,7.069-2.93c1.86-1.86,2.93-4.44,2.93-7.069
			C417.97,320.796,416.9,318.217,415.04,316.357z"/>
	</g>
</g>
<g>
	<g>
		<path d="M371.045,409.447c-1.86-1.86-4.44-2.93-7.069-2.93c-2.63,0-5.209,1.069-7.069,2.93c-1.86,1.859-2.93,4.439-2.93,7.069
			c0,2.63,1.07,5.209,2.93,7.068c1.86,1.86,4.44,2.931,7.069,2.931c2.63,0,5.209-1.07,7.069-2.931c1.86-1.859,2.93-4.439,2.93-7.068
			C373.974,413.886,372.904,411.306,371.045,409.447z"/>
	</g>
</g>
<g>
	<g>
		<path d="M427.321,416.207l-2.501-2.517c-3.894-3.917-10.225-3.936-14.141-0.043c-3.917,3.894-3.936,10.225-0.042,14.142
			l2.501,2.517c1.955,1.966,4.523,2.95,7.091,2.95c2.549,0,5.098-0.969,7.049-2.907
			C431.195,426.455,431.214,420.124,427.321,416.207z"/>
	</g>
</g>
<g>
	<g>
		<path d="M81.276,411.978l-15.833-31.091c-8.513-16.716-9.708-36.41-3.28-54.032c1.893-5.187-0.779-10.928-5.966-12.82
			c-5.19-1.891-10.929,0.779-12.821,5.967c-8.324,22.817-6.776,48.317,4.247,69.961l15.833,31.091
			c1.766,3.468,5.276,5.463,8.918,5.463c1.527,0,3.077-0.351,4.529-1.091C81.825,422.92,83.782,416.898,81.276,411.978z"/>
	</g>
</g>
<g>
	<g>
		<path d="M149.609,355.482c-5.1-2.122-10.952,0.294-13.072,5.394l-1.351,3.25c-2.12,5.099,0.295,10.952,5.394,13.071
			c1.255,0.522,2.556,0.77,3.835,0.77c3.919,0,7.639-2.319,9.237-6.163l1.351-3.25C157.123,363.454,154.708,357.6,149.609,355.482z"
			/>
	</g>
</g>
<g>
	<g>
		<path d="M212.799,369.314c-5.107-2.1-10.951,0.334-13.053,5.438l-1.898,4.609c-2.103,5.107,0.332,10.95,5.438,13.054
			c1.246,0.513,2.535,0.756,3.804,0.756c3.932,0,7.66-2.335,9.249-6.194l1.898-4.609
			C220.34,377.261,217.905,371.418,212.799,369.314z"/>
	</g>
</g>
<g>
	<g>
		<path d="M102.129,339.399c-5.227-1.791-10.91,1.001-12.697,6.226l-1.194,3.493c-1.787,5.225,1.001,10.91,6.226,12.696
			c1.072,0.367,2.163,0.541,3.236,0.541c4.158,0,8.04-2.614,9.46-6.767l1.194-3.493
			C110.143,346.871,107.355,341.185,102.129,339.399z"/>
	</g>
</g>
<g>
	<g>
		<path d="M174.485,403.348c-1.86-1.86-4.44-2.92-7.069-2.92c-2.63,0-5.209,1.061-7.069,2.92c-1.86,1.87-2.93,4.44-2.93,7.069
			c0,2.63,1.07,5.209,2.93,7.079c1.86,1.86,4.44,2.93,7.069,2.93c2.63,0,5.209-1.069,7.069-2.93c1.86-1.87,2.93-4.44,2.93-7.079
			C177.415,407.787,176.345,405.217,174.485,403.348z"/>
	</g>
</g>
<g>
	<g>
		<path d="M98.743,443.364c-1.87-1.86-4.44-2.93-7.069-2.93c-2.64,0-5.209,1.069-7.069,2.93c-1.87,1.86-2.93,4.439-2.93,7.069
			c0,2.64,1.06,5.209,2.93,7.068c1.86,1.87,4.43,2.931,7.069,2.931c2.63,0,5.209-1.061,7.069-2.931c1.86-1.859,2.93-4.43,2.93-7.068
			C101.673,447.802,100.603,445.223,98.743,443.364z"/>
	</g>
</g>
<g>
	<g>
		<path d="M352.581,75.912l-1.182-0.25c-5.398-1.167-10.718,2.27-11.881,7.668c-1.162,5.398,2.271,10.717,7.669,11.881l1.323,0.281
			c0.687,0.143,1.372,0.211,2.046,0.211c4.638,0,8.798-3.246,9.779-7.965C361.46,82.331,357.987,77.036,352.581,75.912z"/>
	</g>
</g>
<g>
</g>
<g>
</g>
<g>
</g>
<g>
</g>
<g>
</g>
<g>
</g>
<g>
</g>
<g>
</g>
<g>
</g>
<g>
</g>
<g>
</g>
<g>
</g>
<g>
</g>
<g>
</g>
<g>
</g>
</svg>
