<?xml version="1.0" encoding="iso-8859-1"?>
<!-- Generator: Adobe Illustrator 19.0.0, SVG Export Plug-In . SVG Version: 6.00 Build 0)  -->
<svg version="1.1" id="Capa_1" xmlns="http://www.w3.org/2000/svg" xmlns:xlink="http://www.w3.org/1999/xlink" x="0px" y="0px"
	 viewBox="0 0 512.001 512.001" style="enable-background:new 0 0 512.001 512.001;" xml:space="preserve">
<g>
	<g>
		<path d="M112.316,446.49c-3.914-3.898-10.245-3.884-14.143,0.03l-0.241,0.236c-3.955,3.855-4.035,10.187-0.18,14.143
			c1.96,2.011,4.559,3.02,7.162,3.02c2.516,0,5.035-0.944,6.979-2.839l0.452-0.447C116.243,456.72,116.23,450.388,112.316,446.49z"
			/>
	</g>
</g>
<g>
	<g>
		<path d="M73.897,451.88c-3.168-1.154-5.998-2.963-8.41-5.375c-4.367-4.367-6.772-10.173-6.772-16.351
			c0-6.176,2.405-11.983,6.772-16.351c3.905-3.905,3.905-10.237,0-14.144c-3.905-3.904-10.237-3.904-14.143,0
			c-8.145,8.146-12.631,18.976-12.631,30.493c0,11.52,4.485,22.349,12.631,30.493c4.49,4.489,9.773,7.862,15.704,10.023
			c1.13,0.412,2.287,0.607,3.423,0.607c4.083,0,7.917-2.52,9.396-6.578C81.759,459.511,79.086,453.772,73.897,451.88z"/>
	</g>
</g>
<g>
	<g>
		<path d="M167.634,132.334c-18.694-18.692-49.109-18.692-67.804,0c-3.905,3.905-3.905,10.237,0,14.144
			c3.906,3.905,10.238,3.905,14.144,0c10.895-10.896,28.622-10.896,39.518,0c1.953,1.952,4.512,2.929,7.071,2.929
			c2.559,0,5.119-0.977,7.071-2.929C171.54,142.573,171.54,136.24,167.634,132.334z"/>
	</g>
</g>
<g>
	<g>
		<path d="M378.778,346.343c-17.904-17.902-47.035-17.904-64.94,0c-3.905,3.905-3.905,10.237,0,14.144
			c3.905,3.904,10.237,3.904,14.144,0c10.104-10.104,26.548-10.106,36.654,0c1.953,1.952,4.512,2.929,7.071,2.929
			s5.119-0.977,7.071-2.929C382.683,356.581,382.683,350.249,378.778,346.343z"/>
	</g>
</g>
<g>
	<g>
		<path d="M272.104,239.865c-17.85-17.849-46.893-17.849-64.742,0c-3.905,3.905-3.906,10.237,0,14.144
			c3.905,3.904,10.236,3.905,14.142,0c10.051-10.051,26.406-10.051,36.458,0c1.953,1.952,4.512,2.929,7.071,2.929
			s5.119-0.977,7.071-2.929C276.009,250.104,276.009,243.771,272.104,239.865z"/>
	</g>
</g>
<g>
	<g>
		<path d="M137.709,267.983c-9.121-9.121-21.249-14.146-34.148-14.146s-25.027,5.023-34.149,14.146
			c-3.905,3.905-3.905,10.237,0,14.144c3.905,3.904,10.237,3.904,14.143,0c5.343-5.344,12.449-8.287,20.005-8.287
			s14.662,2.943,20.006,8.287c1.953,1.952,4.512,2.929,7.071,2.929c2.559,0,5.118-0.977,7.071-2.929
			C141.614,278.222,141.615,271.891,137.709,267.983z"/>
	</g>
</g>
<g>
	<g>
		<path d="M242.985,375.849c-18.116-18.115-47.591-18.115-65.705,0c-3.905,3.905-3.906,10.237,0,14.144
			c3.906,3.904,10.238,3.905,14.143,0c10.316-10.316,27.103-10.316,37.42,0c1.953,1.952,4.512,2.929,7.071,2.929
			s5.119-0.977,7.071-2.929C246.89,386.088,246.89,379.755,242.985,375.849z"/>
	</g>
</g>
<g>
	<g>
		<path d="M509.153,384.546c-8.283-25.815-36.025-40.085-61.841-31.797c-6.787,2.177-12.624,5.955-17.229,10.783
			c-1.053-5.843-2.695-11.53-4.923-16.978c17.999-1.956,47.29-7.663,67.514-24.317c2.481-2.043,3.829-5.153,3.623-8.36
			c-1.704-26.557-31.955-61.15-47.934-77.68c15.889-10.857,44.56-34.578,62.388-73.701c1.712-3.757,0.939-8.181-1.946-11.135
			c-21.974-22.497-62.085-26.41-84.496-26.705c8.194-22.483,19.078-67.409,1.081-117.998c-1.418-3.986-5.191-6.648-9.422-6.648
			c-38.275,0-75.071,13.266-106.412,38.362c-10.505,8.413-18.758,16.824-24.727,23.639c-6.398-13.823-18.244-32.528-38.762-44.902
			c-3.832-2.311-8.732-1.795-12,1.265c-33.341,31.224-38.563,69.862-38.888,88.944c-0.413-0.43-0.81-0.871-1.232-1.294
			c-33.203-33.203-87.229-33.2-120.43,0c-16.084,16.085-24.941,37.47-24.941,60.216c0,21.412,7.853,41.613,22.19,57.326
			c-30.721,12.87-52.362,43.242-52.362,78.582c0,19.802,6.922,38.858,19.324,53.983c-4.526,3.034-8.829,6.536-12.825,10.531
			c-33.203,33.202-33.203,87.229,0,120.431c16.604,16.604,38.406,24.901,60.215,24.901c21.804,0,43.616-8.303,60.215-24.901
			c3.995-3.996,7.498-8.299,10.532-12.826c15.124,12.399,34.177,19.319,53.976,19.319c35.333,0,65.701-21.632,78.575-52.345
			c16.286,15.116,37.082,22.693,57.891,22.693c19.657,0,39.3-6.768,55.143-20.257c13.284,12.043,30.285,18.465,47.708,18.465
			c7.294,0,14.665-1.126,21.863-3.437c14.997-4.811,27.221-15.175,34.423-29.181C512.648,415.514,513.964,399.541,509.153,384.546z
			 M259.398,146.859c13.201,13.2,19.937,31.358,18.954,49.641c-19.653-9.89-42.356-11.704-63.126-5.418
			c2.412-7.95,3.663-16.302,3.663-24.845c0-13.542-3.162-26.589-9.096-38.335C228.064,126.929,246.207,133.667,259.398,146.859z
			 M176.48,258.207c2.691-12.044,8.677-22.964,17.469-31.754c23.33-23.329,60.086-25.217,85.609-5.699
			c0.015,0.012,0.031,0.023,0.046,0.035c2.254,1.727,4.429,3.603,6.49,5.664s3.937,4.237,5.664,6.49
			c0.012,0.015,0.023,0.03,0.034,0.044c19.519,25.524,17.631,62.28-5.698,85.61c-8.729,8.729-19.563,14.695-31.51,17.413
			c-13.011-8.068-28.337-12.742-44.74-12.742c-3.337,0.001-6.643,0.207-9.909,0.592c-2.121-1.653-4.132-3.409-5.985-5.262
			c-2.072-2.073-4.011-4.313-5.806-6.676c0.375-3.223,0.575-6.486,0.575-9.779C188.717,286.079,184.242,271.042,176.48,258.207z
			 M68.576,166.238c0-17.404,6.777-33.767,19.084-46.072c25.403-25.405,66.74-25.405,92.145,0c1.999,1.999,3.835,4.114,5.537,6.314
			c0.092,0.122,0.185,0.243,0.282,0.361c8.598,11.276,13.265,24.975,13.265,39.398c0,17.402-6.775,33.762-19.079,46.067
			c-0.002,0.002-0.003,0.003-0.005,0.005c-0.002,0.002-0.004,0.004-0.006,0.006c-8.729,8.726-19.562,14.691-31.507,17.407
			c-13.01-8.064-28.332-12.737-44.732-12.737c-3.351,0-6.651,0.216-9.903,0.594c-2.124-1.656-4.138-3.414-5.996-5.271
			C75.353,200.003,68.576,183.642,68.576,166.238z M103.559,236.988c35.927,0,65.156,29.229,65.156,65.156
			c0,23.377-12.657,44.926-32.693,56.472c-23.263-17.372-53.444-21.304-79.849-11.807c-11.348-12.045-17.77-28.006-17.77-44.665
			C38.404,266.216,67.633,236.988,103.559,236.988z M131.192,472.946c-25.407,25.405-66.743,25.403-92.146,0
			c-25.404-25.404-25.404-66.74,0-92.145c12.704-12.704,29.385-19.054,46.073-19.054c15.442,0,30.881,5.454,43.166,16.335
			c0.026,0.022,0.052,0.045,0.078,0.067c0.961,0.854,1.908,1.731,2.829,2.652C156.596,406.206,156.596,447.541,131.192,472.946z
			 M209.842,473.582c-16.657,0-32.616-6.419-44.659-17.764c9.499-26.406,5.563-56.592-11.812-79.856
			c11.545-20.036,33.095-32.693,56.472-32.693c35.928,0,65.156,29.229,65.156,65.156S245.77,473.582,209.842,473.582z
			 M392.38,424.884c-25.404,25.403-66.74,25.404-92.144,0.002c-2.075-2.076-4.017-4.32-5.815-6.688
			c0.369-3.209,0.578-6.466,0.578-9.772c0-16.061-4.473-31.093-12.233-43.927c2.69-12.046,8.677-22.966,17.47-31.757
			c12.307-12.308,28.668-19.084,46.072-19.084c14.428,0,28.13,4.67,39.409,13.274c0.109,0.09,0.221,0.176,0.335,0.262
			c2.205,1.705,4.325,3.545,6.328,5.548c12.307,12.307,19.084,28.668,19.084,46.071C411.464,396.216,404.687,412.579,392.38,424.884
			z M316.045,234.192c18.285-0.984,36.443,5.755,49.642,18.955c13.192,13.192,19.928,31.334,18.956,49.606
			c-11.745-5.935-24.794-9.097-38.335-9.097c-8.543,0-16.894,1.25-24.844,3.663C327.749,276.549,325.935,253.845,316.045,234.192z
			 M406.523,318.598c-1.087-1.087-2.202-2.134-3.336-3.154c5.334-27.618-3.315-56.398-23.358-76.44
			c-6.685-6.684-14.343-12.099-22.604-16.154c21.952-19.233,50.344-30.048,79.843-30.048c5.523,0,10-4.478,10-10
			c0-5.522-4.477-10-10-10c-38.194,0-74.798,15.562-101.281,42.857c-10.58-2.048-21.575-2.099-32.394-0.011
			c-1.018-1.133-2.067-2.247-3.156-3.336s-2.203-2.138-3.336-3.156c1.58-8.183,1.938-16.467,1.129-24.597
			c10.089-29.022,26.028-54.889,47.42-76.888c3.85-3.96,3.761-10.291-0.198-14.142c-3.96-3.853-10.291-3.762-14.142,0.197
			c-17.373,17.867-31.455,38.064-42.091,60.261c-3.975-7.75-9.155-14.947-15.478-21.269c-15.683-15.682-36.714-24.387-58.352-24.881
			c0.245-14.364,3.864-43.957,26.957-69.207c22.767,17.608,29.685,45.697,29.752,45.98c0.908,3.911,4.073,6.892,8.028,7.582
			c3.954,0.688,7.945-1.062,10.124-4.435c0.111-0.172,11.323-17.348,32.555-34.209c26.035-20.675,54.992-31.881,86.178-33.366
			c17.876,59.347-8.341,109.626-8.608,110.128c-1.738,3.227-1.568,7.146,0.437,10.215c2.006,3.067,5.533,4.778,9.187,4.495
			c0.561-0.048,52.827-4.037,79.524,15.82c-22.795,44.063-61.199,64.421-61.586,64.622c-2.887,1.486-4.873,4.28-5.326,7.495
			c-0.454,3.215,0.682,6.449,3.045,8.675c17.48,16.469,44.797,48.087,50.036,68.491c-20.125,13.574-49.641,16.591-61.318,17.261
			C411.839,324.313,409.297,321.372,406.523,318.598z M487.659,420.374c-4.759,9.255-12.837,16.104-22.747,19.283
			c-17.451,5.598-36.281,1.516-49.822-10.625c3.711-5.059,6.812-10.48,9.295-16.169c3.299,5.201,7.929,9.456,13.552,12.348
			c8.33,4.283,17.831,5.066,26.75,2.203c7.644-2.452,13.876-7.734,17.547-14.875c3.671-7.139,4.342-15.281,1.889-22.926
			c-1.688-5.259-7.319-8.155-12.578-6.466c-5.259,1.687-8.154,7.318-6.467,12.578c0.821,2.557,0.596,5.28-0.632,7.668
			c-1.228,2.389-3.313,4.155-5.87,4.977c-3.832,1.229-7.914,0.894-11.495-0.947c-3.579-1.84-6.227-4.964-7.457-8.796
			c-3.594-11.203,2.595-23.239,13.797-26.834c15.315-4.908,31.772,3.549,36.686,18.863
			C493.287,400.565,492.418,411.119,487.659,420.374z"/>
	</g>
</g>
<g>
	<g>
		<path d="M376.042,69.322c-3.235-4.477-9.486-5.484-13.963-2.249l-0.227,0.163c-4.477,3.234-5.483,9.485-2.249,13.963
			c1.955,2.706,5.012,4.145,8.113,4.145c2.029,0,4.078-0.616,5.849-1.896l0.227-0.163C378.27,80.051,379.276,73.8,376.042,69.322z"
			/>
	</g>
</g>
<g>
</g>
<g>
</g>
<g>
</g>
<g>
</g>
<g>
</g>
<g>
</g>
<g>
</g>
<g>
</g>
<g>
</g>
<g>
</g>
<g>
</g>
<g>
</g>
<g>
</g>
<g>
</g>
<g>
</g>
</svg>
