<?xml version="1.0" encoding="iso-8859-1"?>
<!-- Generator: Adobe Illustrator 19.0.0, SVG Export Plug-In . SVG Version: 6.00 Build 0)  -->
<svg version="1.1" id="Capa_1" xmlns="http://www.w3.org/2000/svg" xmlns:xlink="http://www.w3.org/1999/xlink" x="0px" y="0px"
	 viewBox="0 0 511.999 511.999" style="enable-background:new 0 0 511.999 511.999;" xml:space="preserve">
<g>
	<g>
		<path d="M86.685,391.132c-2.89-4.682-9.024-6.147-13.722-3.279c-4.713,2.88-6.198,9.034-3.318,13.747
			c0.023,0.038,0.095,0.153,0.119,0.191c1.898,3.015,5.137,4.662,8.45,4.662c1.823,0,3.669-0.498,5.328-1.542
			C88.208,401.974,89.606,395.803,86.685,391.132z"/>
	</g>
</g>
<g>
	<g>
		<path d="M508.83,197.348c-6.164-29.145-20.889-55.34-42.588-75.752c-25.276-23.778-58.287-37.739-92.954-39.311
			c-25.021-1.135-49.767,4.239-71.874,15.359c16.249-22.092,41.075-37.091,69.291-40.546c12.774-1.564,22.406-12.511,22.406-25.461
			c0-7.353-3.161-14.364-8.67-19.235c-5.514-4.874-12.863-7.146-20.165-6.25c-32.128,3.97-61.68,17.826-85.459,40.07
			c-7.636,7.143-14.438,14.946-20.375,23.288c-2.568-6.78-6.359-14.6-11.938-22.407c-13.721-19.207-41.157-42.104-93.942-42.104
			c-2.94,0-5.732,1.294-7.631,3.538c-1.9,2.244-2.716,5.211-2.231,8.109c5.284,31.606,18.681,54.992,39.822,69.507
			c0.726,0.498,1.455,0.977,2.187,1.446c-14.839-4.185-30.359-6.023-45.996-5.314c-34.667,1.572-67.679,15.533-92.954,39.311
			c-21.698,20.411-36.424,46.606-42.587,75.752c-6.164,29.146-3.301,59.058,8.276,86.507l11.288,26.764
			c8.756,20.758,18.598,41.168,29.254,60.659c2.649,4.846,8.725,6.625,13.57,3.978c4.846-2.649,6.626-8.725,3.978-13.57
			c-10.333-18.902-19.88-38.698-28.375-58.838l-11.288-26.764c-20.244-47.997-8.354-104.226,29.588-139.922
			c45.4-42.709,113.975-45.819,163.055-7.393l7.225,5.657c15.463,12.104,37.06,12.104,52.523,0l7.225-5.657
			c49.079-38.426,117.654-35.315,163.055,7.393c37.942,35.694,49.832,91.924,29.588,139.922l-11.288,26.763
			c-21.657,51.348-49.379,98.879-82.392,141.274c-1.324,1.699-2.656,3.394-3.995,5.08l-9.627,12.124
			c-12.957,16.318-32.337,25.677-53.174,25.677c-18.177,0-35.885-7.459-48.584-20.467c-4.527-4.637-10.589-7.189-17.07-7.189
			s-12.542,2.554-17.07,7.19c-12.699,13.007-30.406,20.466-48.584,20.466c-20.836,0-40.218-9.358-53.174-25.677l-9.626-12.122
			c-1.34-1.688-2.672-3.383-3.995-5.08c-5.43-6.973-10.787-14.181-15.923-21.422c-3.195-4.505-9.436-5.568-13.941-2.371
			c-4.505,3.194-5.566,9.436-2.372,13.94c5.308,7.483,10.844,14.933,16.458,22.141c1.361,1.748,2.731,3.489,4.109,5.227
			l9.627,12.124C138.283,494.885,163.373,507,190.346,507c23.531,0,46.454-9.656,62.893-26.494c0.988-1.013,2.153-1.163,2.76-1.163
			s1.772,0.15,2.76,1.162C275.197,497.344,298.12,507,321.651,507c26.974,0,52.063-12.115,68.835-33.238l9.628-12.126
			c1.377-1.735,2.747-3.477,4.11-5.227c34.091-43.778,62.703-92.829,85.041-145.791l11.288-26.762
			C512.131,256.406,514.993,226.493,508.83,197.348z M236.613,114.41l-1.773-1.388c-6.421-5.028-13.223-9.469-20.314-13.313
			c8.567,1.854,16.586,2.433,23.23,2.433c1.064,0,2.083-0.018,3.073-0.044C239.252,106.129,237.846,110.234,236.613,114.41z
			 M193.838,69.666c-13.807-9.479-23.463-24.301-28.796-44.159c54.599,4.602,71.538,39.226,76.629,56.566
			C230.165,82.565,210.701,81.243,193.838,69.666z M267.623,120.245c-3.923,2.363-8.375,3.431-12.785,3.204
			c13.872-52.083,57.797-90.766,111.887-97.449c2.215-0.273,3.751,0.75,4.469,1.385c0.717,0.634,1.918,2.028,1.918,4.254
			c0,2.861-2.081,5.273-4.839,5.611C321.327,42.995,282.203,75.408,267.623,120.245z"/>
	</g>
</g>
<g>
	<g>
		<path d="M439.391,150.138c-4.023-3.786-10.35-3.591-14.135,0.432c-3.784,4.022-3.591,10.35,0.432,14.134
			c26.073,24.528,34.244,63.168,20.332,96.149l-11.287,26.762c-5.255,12.457-10.964,24.837-16.971,36.796
			c-2.479,4.936-0.487,10.944,4.448,13.424c1.44,0.723,2.972,1.065,4.48,1.065c3.662,0,7.187-2.019,8.943-5.514
			c6.204-12.353,12.101-25.137,17.526-37.999l11.288-26.762C481.591,227.981,471.522,180.364,439.391,150.138z"/>
	</g>
</g>
<g>
	<g>
		<path d="M410.56,359.263c-4.712-2.877-10.867-1.394-13.746,3.318l-0.127,0.212c-2.823,4.747-1.262,10.88,3.485,13.703
			c1.602,0.953,3.363,1.406,5.1,1.406c3.412,0,6.736-1.747,8.606-4.892C416.757,368.297,415.272,362.143,410.56,359.263z"/>
	</g>
</g>
<g>
</g>
<g>
</g>
<g>
</g>
<g>
</g>
<g>
</g>
<g>
</g>
<g>
</g>
<g>
</g>
<g>
</g>
<g>
</g>
<g>
</g>
<g>
</g>
<g>
</g>
<g>
</g>
<g>
</g>
</svg>
