<?xml version="1.0" encoding="iso-8859-1"?>
<!-- Generator: Adobe Illustrator 19.0.0, SVG Export Plug-In . SVG Version: 6.00 Build 0)  -->
<svg version="1.1" id="Capa_1" xmlns="http://www.w3.org/2000/svg" xmlns:xlink="http://www.w3.org/1999/xlink" x="0px" y="0px"
	 viewBox="0 0 512 512" style="enable-background:new 0 0 512 512;" xml:space="preserve">
<g>
	<g>
		<path d="M480.094,242.779c-27.44-52.63-63.28-79.492-82.588-90.978l-14.534-11.285c2.516-1.434,4.886-3.215,7.03-5.36
			c6.274-6.274,9.729-14.617,9.729-23.49s-3.456-17.215-9.729-23.489l-85.251-85.25c-3.905-3.905-10.236-3.904-14.143,0
			c-3.905,3.905-3.905,10.237,0,14.143l85.251,85.251c2.497,2.497,3.872,5.816,3.872,9.347s-1.375,6.851-3.872,9.347
			c-5.153,5.154-13.54,5.154-18.693,0L254.495,18.343c-0.246-0.274-0.505-0.534-0.779-0.779L240.087,3.935
			c-3.905-3.905-10.237-3.905-14.143,0c-3.905,3.905-3.905,10.237,0,14.143l0.463,0.463c-16.289,5.745-29.487,18.082-36.379,33.796
			c-25.529-11.83-55.642-11.541-85.739,1.019c-32.102,13.396-60.476,39.295-79.894,72.929
			C4.978,159.917-3.265,197.439,1.185,231.939c4.579,35.501,21.965,63.635,48.955,79.218c3.697,2.135,7.51,3.99,11.419,5.577
			C32.879,368.047,13.375,422.3,3.54,478.183c-1.434,8.148,1.724,16.366,8.242,21.448c3.976,3.1,8.779,4.696,13.631,4.696
			c3.07-0.001,6.16-0.64,9.071-1.941c33.444-14.96,62.064-30.885,87.493-48.685c4.524-3.167,5.625-9.402,2.458-13.927
			c-3.167-4.524-9.402-5.626-13.927-2.458c-24.377,17.064-51.916,32.376-84.19,46.812c-0.796,0.355-1.55,0.268-2.239-0.271
			c-0.494-0.385-1.041-1.08-0.842-2.208c9.713-55.188,29.271-108.76,58.15-159.348c5.255,0.867,10.623,1.308,16.077,1.308
			c14.841,0,30.304-3.216,45.758-9.665c32.103-13.396,60.476-39.296,79.894-72.929c19.114-33.106,27.391-69.979,23.402-104.029
			c10.681-8.159,20.48-15.137,28.994-20.922c-3.505,11.045-5.063,22.882-4.519,35.118c0.758,17.054,5.559,33.649,13.882,48.66
			c-15.744,8.212-30.149,20.553-42.406,36.615c-20.8,27.254-33.224,62.433-35.599,100.2c-12.155,19.39-25.541,36.768-40.898,53.04
			c-3.791,4.017-3.608,10.346,0.409,14.137c1.932,1.823,4.399,2.728,6.862,2.728c2.656,0,5.307-1.052,7.274-3.136
			c9.553-10.122,18.564-20.931,26.991-32.284c3.499,34.798,15.603,67.035,34.964,92.405C266.313,494.793,298.265,512,332.441,512
			s66.128-17.208,89.973-48.452c16.578-21.722,27.836-48.478,32.927-77.566c11.876,12.315,25.097,23.541,39.497,33.516
			c1.702,1.179,3.692,1.779,5.695,1.779c1.438,0,2.881-0.31,4.228-0.938c3.222-1.504,5.403-4.604,5.729-8.146
			C516.178,350.415,505.669,291.832,480.094,242.779z M306.798,98.931l36.226,36.226c2.444,2.444,5.178,4.425,8.091,5.947
			l30.19,23.439c-0.62,6.862-1.37,19.346-0.748,35.586c-15.036-7.951-31.307-12.124-48.119-12.124
			c-9.854,0-19.521,1.439-28.864,4.224c-7.57-12.875-11.949-27.211-12.603-41.935C290.117,131.075,295.704,113.167,306.798,98.931z
			 M205.795,231.015c-30.462,52.763-83.744,80.949-126.864,70.352c-0.168-0.045-0.335-0.087-0.504-0.123
			c-6.355-1.609-12.487-4.059-18.287-7.407c-21.464-12.393-35.356-35.282-39.119-64.457c-3.892-30.177,3.458-63.238,20.697-93.096
			c26.194-45.367,69.254-72.57,108.224-72.57c12.326,0,24.247,2.727,35.09,8.458c-0.136,1.677-0.225,3.368-0.225,5.08
			c0,5.523,4.477,10,10,10c2.707,0,5.159-1.08,6.959-2.828c12.512,12.298,20.874,29.384,24.172,49.738
			c0.008,0.051,0.016,0.103,0.025,0.154c0.191,1.191,0.372,2.389,0.528,3.602C230.383,168.095,223.033,201.157,205.795,231.015z
			 M242.135,115.247c-6.403-21.81-18.321-39.817-34.784-52.436c5.477-15.009,19.235-26.061,35.715-27.612l47.477,47.477
			C280.791,88.486,263.603,99.311,242.135,115.247z M332.439,492.001c-58.448,0-105.998-63.7-105.998-141.998
			c0-61.234,29.083-113.537,69.718-133.427c2.644,3.273,5.476,6.432,8.498,9.454c1.953,1.953,4.512,2.929,7.071,2.929
			c2.559,0,5.119-0.976,7.071-2.929c3.905-3.905,3.905-10.237,0-14.143c-0.752-0.752-1.473-1.525-2.197-2.296
			c5.168-1.042,10.456-1.586,15.837-1.586c19.184,0,37.192,6.862,52.732,18.85c0.385,0.353,0.791,0.683,1.226,0.972
			c31.129,24.766,52.04,70.257,52.04,122.175C438.437,428.301,390.887,492.001,332.439,492.001z M491.768,392.248
			c-12.376-9.98-23.594-21.046-33.538-33.029c0.132-3.058,0.207-6.13,0.207-9.216c0-42.779-12.794-83.104-36.025-113.545
			c-6.423-8.417-13.44-15.805-20.925-22.122c-1.287-14.747-1.304-27.357-0.958-36.552
			C448.721,213.205,495.968,286.158,491.768,392.248z"/>
	</g>
</g>
<g>
	<g>
		<path d="M192.471,94.877l-6.309-1.772c-7.334-2.061-13.457-7.17-16.796-14.017c-2.421-4.963-8.408-7.026-13.372-4.604
			c-4.964,2.421-7.025,8.408-4.604,13.372c5.838,11.97,16.541,20.901,29.362,24.504l6.31,1.772c0.905,0.254,1.814,0.375,2.71,0.375
			c4.369,0,8.382-2.885,9.622-7.298C200.888,101.893,197.788,96.371,192.471,94.877z"/>
	</g>
</g>
<g>
	<g>
		<path d="M364.62,225.433c-3.911-3.901-10.242-3.89-14.141,0.022c-8.543,8.571-20.373,13.192-32.468,12.689l-3.153-0.132
			c-5.534-0.234-10.179,4.054-10.411,9.572c-0.232,5.518,4.054,10.179,9.572,10.411l3.152,0.132
			c0.881,0.037,1.758,0.056,2.636,0.056c16.753,0,32.969-6.699,44.837-18.608C368.543,235.663,368.532,229.331,364.62,225.433z"/>
	</g>
</g>
<g>
	<g>
		<path d="M154.908,414.785c-3.614-4.177-9.93-4.632-14.106-1.018l-0.778,0.671c-4.19,3.598-4.67,9.911-1.072,14.102
			c1.978,2.304,4.776,3.485,7.591,3.485c2.306,0,4.624-0.793,6.51-2.413l0.837-0.722
			C158.066,425.276,158.522,418.96,154.908,414.785z"/>
	</g>
</g>
<g>
	<g>
		<path d="M133.195,263.949c-2.126-5.098-7.984-7.503-13.079-5.378c-8.902,3.715-25.932,8.734-39.977,0.625
			c-14.047-8.11-18.214-25.368-19.448-34.932c-1.313-10.179-0.705-21.136,1.807-32.568c1.185-5.394-2.228-10.728-7.622-11.913
			c-5.394-1.184-10.728,2.227-11.913,7.622c-3.007,13.688-3.716,26.95-2.108,39.417c1.707,13.231,7.781,37.279,29.285,49.694
			c9.005,5.199,18.422,7.033,27.234,7.033c12.228,0,23.288-3.535,30.443-6.52C132.913,274.902,135.321,269.047,133.195,263.949z"/>
	</g>
</g>
<g>
	<g>
		<path d="M72.659,142.63c-4.79-2.749-10.914-1.07-13.662,3.721c-2.778,4.774-1.161,10.896,3.612,13.674
			c1.583,0.921,3.313,1.359,5.021,1.359c3.443,0,6.795-1.78,8.652-4.971l0.089-0.155C79.119,151.467,77.45,145.378,72.659,142.63z"
			/>
	</g>
</g>
<g>
</g>
<g>
</g>
<g>
</g>
<g>
</g>
<g>
</g>
<g>
</g>
<g>
</g>
<g>
</g>
<g>
</g>
<g>
</g>
<g>
</g>
<g>
</g>
<g>
</g>
<g>
</g>
<g>
</g>
</svg>
