<?xml version="1.0" encoding="iso-8859-1"?>
<!-- Generator: Adobe Illustrator 19.0.0, SVG Export Plug-In . SVG Version: 6.00 Build 0)  -->
<svg version="1.1" id="Capa_1" xmlns="http://www.w3.org/2000/svg" xmlns:xlink="http://www.w3.org/1999/xlink" x="0px" y="0px"
	 viewBox="0 0 512 512" style="enable-background:new 0 0 512 512;" xml:space="preserve">
<g>
	<g>
		<path d="M125.566,84.147c-2.262-5.038-8.179-7.288-13.217-5.027l-0.908,0.411c-5.022,2.297-7.23,8.23-4.934,13.252
			c1.681,3.674,5.307,5.843,9.099,5.843c1.391,0,2.805-0.292,4.153-0.909l0.779-0.353C125.577,95.102,127.828,89.185,125.566,84.147
			z"/>
	</g>
</g>
<g>
	<g>
		<path d="M90.055,103.628c-3.709-4.093-10.033-4.402-14.124-0.694c-22.836,20.697-35.934,50.244-35.934,81.064
			c0,23.261,8.571,45.593,24.134,62.883c1.975,2.193,4.7,3.31,7.435,3.31c2.383,0,4.776-0.847,6.686-2.567
			c4.104-3.695,4.437-10.017,0.742-14.122c-12.252-13.612-18.999-31.192-18.999-49.504c0-25.187,10.703-49.332,29.366-66.247
			C93.452,114.044,93.763,107.72,90.055,103.628z"/>
	</g>
</g>
<g>
	<g>
		<path d="M458.713,218.911c-4.813-2.698-10.981-1.035-13.687,3.771c-2.706,4.808-0.925,10.943,3.877,13.657
			c0.019,0.011,0.039,0.022,0.058,0.033c1.552,0.863,3.242,1.274,4.911,1.274c3.517,0,6.938-1.825,8.763-5.091
			C465.324,227.739,463.524,221.609,458.713,218.911z"/>
	</g>
</g>
<g>
	<g>
		<path d="M492.505,248.181c-3.313-4.419-9.58-5.319-13.998-2.005c-4.419,3.312-5.317,9.579-2.005,13.998
			c9.995,13.336,15.499,29.86,15.499,46.528c0,16.884-6.221,33.092-17.519,45.642l-0.572,0.636
			c-6.416,7.128-15.464,11.347-24.818,11.574c-0.417,0.011-0.831,0.011-1.231,0.008c-0.12-0.002-0.37-0.005-0.631-0.293
			c-0.154-0.17-0.404-0.545-0.352-1.143c0.118-1.343,0.177-2.713,0.177-4.071c0-14.513-6.166-28.425-16.92-38.171
			c-6.509-5.898-14.08-10.223-22.503-12.853c-3.034-0.946-6.341-0.395-8.903,1.49c-2.563,1.884-4.076,4.875-4.076,8.055v27.963
			c0,17.03,2.354,33.974,6.994,50.358c4.139,14.613,6.237,29.724,6.237,44.91c0,13.33-10.845,24.175-24.175,24.175h-9.443
			c-13.33,0-24.175-10.845-24.175-24.175c0-15.064,2.065-30.055,6.138-44.556c4.708-16.764,7.094-33.516,7.094-49.792v-28.884
			c0-3.181-1.513-6.172-4.076-8.055c-2.563-1.885-5.867-2.439-8.903-1.49c-8.422,2.63-15.994,6.953-22.503,12.853
			c-10.753,9.745-16.921,23.658-16.921,38.171c0,1.289,0.054,2.594,0.161,3.877c0.059,0.705-0.268,1.146-0.411,1.302
			c-0.298,0.326-0.572,0.328-0.627,0.329l-0.333,0.001c-9.671,0-18.928-4.123-25.397-11.309l-0.821-0.913
			c-11.295-12.546-17.516-28.755-17.516-45.638c0-20.723,8.07-40.206,22.722-54.859l3.235-3.234
			c15.885-15.886,37.006-24.634,59.471-24.634H402c2.249,0,4.527,0.081,6.77,0.241c5.518,0.407,10.292-3.755,10.684-9.263
			c0.393-5.509-3.755-10.292-9.263-10.684c-2.714-0.193-5.47-0.292-8.19-0.292h-50.594c-27.808,0-53.951,10.829-73.612,30.492
			l-3.235,3.234c-6.697,6.697-12.296,14.201-16.717,22.286c-16.961-6.502-34.739-9.805-52.861-9.805
			c-27.364,0-54.145,7.58-77.449,21.922l-0.907,0.558c-9.464,5.825-20.341,8.903-31.455,8.903c-16.984,0-33.242-7.239-44.605-19.862
			l-1.299-1.442c-18.874-20.968-29.27-48.052-29.27-76.264c0-36.454,15.492-71.402,42.503-95.882
			c29.243-26.503,67.082-41.099,106.548-41.099h71.868c39.466,0,77.306,14.596,106.548,41.099
			c24.496,22.201,39.443,52.573,42.088,85.52c0.441,5.505,5.265,9.608,10.767,9.166c5.505-0.442,9.609-5.263,9.166-10.767
			c-3.054-38.04-20.311-73.106-48.592-98.738c-32.928-29.844-75.537-46.279-119.977-46.279h-71.868
			c-44.44,0-87.049,16.436-119.977,46.279C17.886,101.563,0,141.911,0,183.999c0,33.161,12.219,64.997,34.405,89.642l1.299,1.442
			c15.15,16.83,36.826,26.481,59.469,26.481c14.817,0,29.319-4.105,41.936-11.87l0.907-0.558c2.036-1.253,4.111-2.43,6.206-3.563
			v15.621c0,18.753-4.208,37.642-12.17,54.623c-9.199,19.618-14.062,41.443-14.062,63.112c0,36.422,29.632,66.054,66.054,66.054
			h42.112c36.422,0,66.054-29.632,66.054-66.054c0-13.275-1.833-26.606-5.363-39.455c7.093,3.304,14.888,5.089,22.866,5.089
			l0.409-0.001c5.89-0.046,11.329-2.475,15.317-6.84c4.042-4.427,6.075-10.419,5.575-16.444c-0.062-0.735-0.092-1.483-0.092-2.222
			c0-8.878,3.773-17.391,10.352-23.352c0.668-0.605,1.353-1.187,2.054-1.742v12.499c0,14.449-2.136,29.383-6.349,44.385
			c-4.567,16.262-6.882,33.07-6.882,49.963c0,24.357,19.815,44.173,44.173,44.173h9.443c24.357,0,44.173-19.815,44.173-44.173
			c0-17.03-2.354-33.974-6.994-50.36c-4.139-14.612-6.237-29.722-6.237-44.908v-11.578c0.701,0.556,1.386,1.137,2.054,1.741
			c6.578,5.963,10.351,14.475,10.351,23.352c0,0.778-0.034,1.562-0.102,2.331c-0.52,5.964,1.467,11.906,5.451,16.306
			c3.945,4.356,9.346,6.794,15.222,6.866c0.646,0.008,1.289,0.004,1.946-0.012c14.833-0.36,29.122-6.989,39.203-18.189l0.572-0.636
			C503.956,349.494,512,328.535,512,306.702C512,285.739,505.077,264.955,492.505,248.181z M226.155,464.984h-42.112
			c-25.395,0-46.055-20.66-46.055-46.055c0-18.755,4.208-37.643,12.17-54.623c9.199-19.619,14.062-41.444,14.062-63.112v-24.319
			c13.074-4.403,26.829-6.693,40.764-6.693c15.461,0,30.636,2.785,45.131,8.264c-2.723,9.047-4.135,18.544-4.135,28.257
			c0,6.326,0.696,12.574,2.011,18.659c2.228,13.46,6.281,26.637,12.051,38.945c7.961,16.98,12.169,35.868,12.169,54.623
			C272.211,444.324,251.55,464.984,226.155,464.984z"/>
	</g>
</g>
<g>
</g>
<g>
</g>
<g>
</g>
<g>
</g>
<g>
</g>
<g>
</g>
<g>
</g>
<g>
</g>
<g>
</g>
<g>
</g>
<g>
</g>
<g>
</g>
<g>
</g>
<g>
</g>
<g>
</g>
</svg>
