<?xml version="1.0" encoding="iso-8859-1"?>
<!-- Generator: Adobe Illustrator 19.0.0, SVG Export Plug-In . SVG Version: 6.00 Build 0)  -->
<svg version="1.1" id="Capa_1" xmlns="http://www.w3.org/2000/svg" xmlns:xlink="http://www.w3.org/1999/xlink" x="0px" y="0px"
	 viewBox="0 0 512 512" style="enable-background:new 0 0 512 512;" xml:space="preserve">
<g>
	<g>
		<path d="M291.05,398.707c-9.866-3.162-17.848-10.445-21.896-19.981l-3.808-8.968c-1.568-3.693-5.192-6.092-9.205-6.092
			s-7.637,2.398-9.205,6.092l-3.807,8.967c-4.051,9.537-12.032,16.821-21.898,19.982c-5.26,1.686-8.156,7.315-6.471,12.575
			c1.684,5.259,7.311,8.157,12.573,6.471c11.811-3.785,21.893-11.352,28.807-21.386c6.912,10.034,16.994,17.6,28.806,21.386
			c1.015,0.325,2.043,0.48,3.054,0.48c4.23,0,8.16-2.706,9.521-6.951C299.207,406.022,296.31,400.392,291.05,398.707z"/>
	</g>
</g>
<g>
	<g>
		<path d="M288.184,317.932c-8.729-2.798-15.791-9.242-19.374-17.679l-3.466-8.161c-1.568-3.693-5.191-6.091-9.204-6.091
			s-7.636,2.398-9.204,6.091l-3.467,8.162c-3.582,8.437-10.644,14.881-19.373,17.679c-5.26,1.686-8.157,7.316-6.471,12.575
			c1.686,5.259,7.314,8.158,12.574,6.471c10.526-3.374,19.568-9.989,25.94-18.762c6.372,8.773,15.414,15.388,25.94,18.762
			c1.015,0.325,2.043,0.48,3.054,0.48c4.23,0,8.16-2.707,9.521-6.951C296.341,325.248,293.443,319.618,288.184,317.932z"/>
	</g>
</g>
<g>
	<g>
		<path d="M291.155,237.155c-9.908-3.175-17.924-10.489-21.99-20.066l-3.82-8.998c-1.568-3.693-5.192-6.092-9.205-6.092
			s-7.637,2.398-9.205,6.092l-3.819,8.997c-4.067,9.577-12.083,16.891-21.991,20.066c-5.259,1.686-8.156,7.315-6.472,12.575
			c1.685,5.26,7.312,8.157,12.575,6.472c11.859-3.8,21.979-11.401,28.912-21.483c6.933,10.082,17.053,17.683,28.912,21.483
			c1.015,0.325,2.043,0.48,3.054,0.48c4.23,0,8.161-2.707,9.521-6.951C299.312,244.47,296.414,238.841,291.155,237.155z"/>
	</g>
</g>
<g>
	<g>
		<path d="M189.373,276.926l-0.253-0.08c-5.242-1.731-10.899,1.114-12.632,6.358c-1.733,5.244,1.114,10.899,6.358,12.632
			l0.405,0.132c1.018,0.327,2.049,0.482,3.063,0.482c4.228,0,8.155-2.702,9.519-6.943
			C197.522,284.249,194.631,278.617,189.373,276.926z"/>
	</g>
</g>
<g>
	<g>
		<path d="M217.389,198.26c-7.333-2.362-13.259-7.788-16.26-14.883l-3.034-7.178c-1.563-3.696-5.183-6.1-9.194-6.106
			c-0.006,0-0.011,0-0.017,0c-4.006,0-7.626,2.391-9.198,6.076l-3.058,7.169c-3.022,7.086-8.966,12.493-16.306,14.832
			c-5.263,1.677-8.169,7.302-6.491,12.564c1.677,5.263,7.302,8.167,12.563,6.491c8.978-2.861,16.764-8.333,22.455-15.595
			c5.671,7.28,13.439,12.777,22.406,15.666c1.02,0.329,2.054,0.485,3.069,0.485c4.225,0,8.151-2.699,9.517-6.937
			C225.534,205.587,222.646,199.953,217.389,198.26z"/>
	</g>
</g>
<g>
	<g>
		<path d="M351.677,198.17c-7.34-2.339-13.283-7.746-16.306-14.833l-3.058-7.168c-1.572-3.686-5.192-6.076-9.198-6.076H323.1
			c-4.012,0.006-7.632,2.411-9.194,6.106l-3.034,7.177c-3,7.096-8.926,12.521-16.259,14.884c-5.257,1.693-8.146,7.328-6.452,12.585
			c1.365,4.238,5.29,6.936,9.516,6.936c1.016,0,2.05-0.156,3.068-0.485c8.967-2.889,16.735-8.385,22.405-15.666
			c5.692,7.262,13.479,12.734,22.455,15.595c5.258,1.676,10.887-1.229,12.563-6.491C359.846,205.472,356.939,199.847,351.677,198.17
			z"/>
	</g>
</g>
<g>
	<g>
		<path d="M346.001,483.323c-2.953-4.666-9.099-6.074-13.764-3.119c-0.038,0.023-0.12,0.074-0.158,0.098
			c-4.666,2.955-6.087,9.154-3.132,13.82c1.907,3.012,5.143,4.666,8.452,4.666c1.817,0,3.658-0.499,5.312-1.547
			c0.038-0.023,0.12-0.074,0.158-0.098C347.535,494.188,348.956,487.988,346.001,483.323z"/>
	</g>
</g>
<g>
	<g>
		<path d="M331.068,141.454c17.684-34.063,45.688-56.958,45.986-57.199c3.305-2.659,4.572-7.114,3.163-11.114
			s-5.189-6.677-9.432-6.677c-14.802,0-29.376,2.171-43.227,6.372c10.851-19.073,22.667-31.038,22.816-31.189
			c2.869-2.856,3.732-7.161,2.188-10.903c-1.546-3.742-5.194-6.183-9.243-6.183c-19.006,0-36.754,6.138-51.758,16.729
			c-3.117-8.72-7.474-17.1-12.725-24.354C273.244,9.21,264.744,0,256.013,0c-12.545,0-27.948,18.411-35.831,41.1
			c-14.946-10.473-32.594-16.538-51.485-16.538c-4.049,0-7.697,2.441-9.243,6.183c-1.545,3.742-0.682,8.046,2.188,10.903
			c0.157,0.157,11.984,12.063,22.863,31.239c-13.897-4.233-28.524-6.423-43.383-6.423c-4.238,0-8.012,2.675-9.424,6.67
			c-1.413,3.996-0.149,8.451,3.146,11.115c0.306,0.247,28.328,23.156,46.011,57.237C134.632,160.492,102,206,102,258.994v126.012
			C102,455.031,158.97,512,228.994,512h54.012c5.307,0,10.65-0.332,15.883-0.985c5.48-0.685,9.368-5.682,8.684-11.162
			c-0.684-5.481-5.692-9.372-11.162-8.684c-4.413,0.551-8.923,0.831-13.404,0.831h-54.012c-33.486,0-63.423-15.467-83.057-39.627
			c8.866-5.022,16.383-12.134,21.872-20.749c7.775,12.204,19.609,21.414,33.604,25.899c1.015,0.325,2.043,0.48,3.054,0.48
			c4.23,0,8.161-2.707,9.521-6.951c1.686-5.259-1.211-10.889-6.471-12.575c-11.77-3.772-21.291-12.46-26.122-23.836l-4.381-10.318
			c-1.568-3.693-5.192-6.092-9.205-6.092c-4.012,0-7.636,2.398-9.204,6.091l-4.382,10.318c-3.878,9.132-10.782,16.525-19.441,21.04
			C126.632,420.588,122,403.328,122,385.006v-10.518c11.392-4.975,21.009-13.208,27.656-23.64
			c7.775,12.205,19.609,21.414,33.604,25.899c1.015,0.325,2.043,0.48,3.054,0.48c4.23,0,8.161-2.707,9.521-6.951
			c1.686-5.259-1.211-10.889-6.471-12.575c-11.771-3.772-21.291-12.46-26.122-23.837l-4.382-10.318
			c-1.568-3.693-5.192-6.091-9.204-6.091c-4.013,0-7.637,2.398-9.205,6.092l-4.38,10.318c-3.038,7.153-7.932,13.241-14.071,17.714
			v-57.866c11.526-5.034,21.235-13.402,27.89-24.009c3.11,2.885,7.846,3.566,11.729,1.365c4.806-2.722,6.494-8.824,3.772-13.63
			c-0.797-1.405-1.52-2.869-2.148-4.35l-4.382-10.319c-1.568-3.693-5.192-6.091-9.204-6.091c-4.013,0-7.637,2.398-9.205,6.092
			l-4.38,10.318c-3.038,7.153-7.932,13.241-14.071,17.714v-11.809C122,199.998,169.997,152,228.994,152h54.012
			C342.003,152,390,199.998,390,258.994v11.809c-6.139-4.474-11.033-10.561-14.07-17.715l-4.382-10.319
			c-1.568-3.693-5.191-6.091-9.204-6.091s-7.636,2.398-9.204,6.091l-4.383,10.319c-4.83,11.376-14.351,20.064-26.121,23.836
			c-5.26,1.686-8.156,7.315-6.471,12.575s7.313,8.157,12.574,6.471c13.995-4.485,25.829-13.695,33.604-25.899
			c6.646,10.432,16.264,18.664,27.656,23.64v57.867c-6.139-4.474-11.033-10.561-14.07-17.715l-4.382-10.318
			c-1.568-3.693-5.191-6.091-9.204-6.091s-7.636,2.398-9.204,6.091l-4.383,10.319c-4.83,11.376-14.351,20.064-26.121,23.836
			c-5.26,1.686-8.156,7.315-6.471,12.575s7.313,8.159,12.574,6.471c13.995-4.485,25.829-13.695,33.604-25.899
			c6.646,10.432,16.264,18.664,27.656,23.64v10.518c0,17.937-4.427,35.272-12.742,50.696c-8.678-4.513-15.597-11.916-19.481-21.062
			l-4.382-10.318c-1.568-3.693-5.192-6.091-9.204-6.091c-4.013,0-7.637,2.398-9.205,6.092l-4.38,10.318
			c-4.832,11.376-14.354,20.065-26.123,23.837c-5.26,1.686-8.156,7.315-6.471,12.575s7.314,8.159,12.574,6.471
			c13.995-4.485,25.828-13.694,33.604-25.899c5.499,8.629,13.032,15.75,21.917,20.774c-1.834,2.256-3.761,4.452-5.791,6.573
			c-3.818,3.99-3.68,10.32,0.311,14.139c3.989,3.818,10.32,3.68,14.139-0.311C397.486,449.058,410,417.879,410,385.006V258.994
			C410,205.971,377.331,160.441,331.068,141.454z M228.994,132c-9.919,0-19.575,1.145-28.845,3.307
			c-9.275-18.802-21.311-34.518-31.555-45.956c27.966,5.991,52.454,21.05,69.058,42.649H228.994z M214.706,86.027
			c-0.788-0.458-1.589-0.892-2.386-1.335c-5.574-14.077-12.651-26.158-19.091-35.541c23.581,9.099,42.118,30.949,49.441,58.397
			C234.457,99.314,225.074,92.062,214.706,86.027z M236.758,55.716c4.274-18.525,14.273-31.068,18.991-34.844
			c4.822,4.074,14.991,16.974,19.323,35.05c-7.731,8.521-14.2,18.474-19.063,29.471C251.107,74.307,244.572,64.283,236.758,55.716z
			 M318.787,49.152c-6.429,9.365-13.49,21.417-19.059,35.461c-0.844,0.468-1.693,0.928-2.527,1.414
			c-10.305,5.998-19.636,13.2-27.813,21.372C276.738,80.021,295.25,58.234,318.787,49.152z M283.006,132h-8.753
			c16.604-21.6,41.092-36.658,69.058-42.649c-10.24,11.434-22.271,27.142-31.544,45.935C302.523,133.137,292.895,132,283.006,132z"
			/>
	</g>
</g>
<g>
</g>
<g>
</g>
<g>
</g>
<g>
</g>
<g>
</g>
<g>
</g>
<g>
</g>
<g>
</g>
<g>
</g>
<g>
</g>
<g>
</g>
<g>
</g>
<g>
</g>
<g>
</g>
<g>
</g>
</svg>
