<?xml version="1.0" encoding="iso-8859-1"?>
<!-- Generator: Adobe Illustrator 19.0.0, SVG Export Plug-In . SVG Version: 6.00 Build 0)  -->
<svg version="1.1" id="Capa_1" xmlns="http://www.w3.org/2000/svg" xmlns:xlink="http://www.w3.org/1999/xlink" x="0px" y="0px"
	 viewBox="0 0 512 512" style="enable-background:new 0 0 512 512;" xml:space="preserve">
<g>
	<g>
		<path d="M85.078,436.246l-0.149-0.14c-4.024-3.77-10.303-3.535-14.081,0.479c-3.778,4.015-3.559,10.364,0.447,14.151
			c1.935,1.84,4.414,2.753,6.889,2.753c2.643,0,5.28-1.041,7.246-3.106C89.236,446.383,89.079,440.053,85.078,436.246z"/>
	</g>
</g>
<g>
	<g>
		<path d="M156.434,415.898c-13.601-37.26-20.791-82.181-20.791-129.906c0-25.278,2.05-49.986,6.093-73.436
			c0.938-5.442-2.713-10.615-8.156-11.552c-5.445-0.942-10.613,2.712-11.551,8.154c-4.236,24.57-6.384,50.421-6.384,76.834
			c0,50.039,7.609,97.33,22.003,136.764c1.48,4.057,5.313,6.574,9.395,6.574c1.138,0,2.297-0.196,3.428-0.609
			C155.658,426.827,158.328,421.086,156.434,415.898z"/>
	</g>
</g>
<g>
	<g>
		<path d="M144.699,158.955c-5.281-1.617-10.872,1.355-12.487,6.636l-0.332,1.097c-1.575,5.292,1.438,10.859,6.731,12.436
			c0.952,0.283,1.913,0.418,2.857,0.418c4.309,0,8.288-2.808,9.581-7.149l0.287-0.951
			C152.951,166.161,149.981,160.571,144.699,158.955z"/>
	</g>
</g>
<g>
	<g>
		<path d="M452.839,166.914c-3.905-3.905-10.237-3.905-14.142,0l-13.079,13.079c-18.169-34.17-44.806-63.147-77.518-84.191
			c-27.582-17.744-58.505-29.144-90.782-33.63c3.431-4.287,6.055-9.226,7.699-14.637c5.928-19.518-5.128-40.22-24.646-46.149
			c-16.671-5.064-34.351,4.38-39.414,21.049c-1.605,5.285,1.378,10.869,6.662,12.474c5.284,1.606,10.869-1.378,12.474-6.662
			c1.858-6.119,8.349-9.583,14.466-7.726c8.967,2.724,14.046,12.234,11.322,21.201c-3.805,12.527-17.092,19.624-29.62,15.818
			c-11.583-3.518-20.135-13.108-22.317-25.029c-0.994-5.433-6.203-9.028-11.636-8.036c-5.433,0.994-9.031,6.204-8.036,11.636
			c1.909,10.429,6.833,19.755,13.91,27.03c-45.988,7.702-88.359,29.417-121.992,63.05C23.507,168.877,0,225.628,0,285.992
			c0,47.931,14.814,93.72,42.841,132.42c1.956,2.701,5.01,4.135,8.107,4.135c2.033,0,4.085-0.618,5.857-1.901
			c4.473-3.24,5.473-9.492,2.233-13.964c-25.539-35.265-39.038-76.998-39.038-120.689c0-95.236,64.971-175.571,152.913-199.044
			c-8.345,9.184-16.092,20.61-23.043,34.12c-2.527,4.911-0.594,10.939,4.317,13.466c4.91,2.526,10.939,0.594,13.466-4.317
			c16.66-32.381,37.378-50.216,58.337-50.216c22.36,0,44.916,20.949,61.886,57.475c18.352,39.503,28.459,92.246,28.459,148.515
			c0,0.996,0.15,1.957,0.422,2.865L167.181,438.43c-1.875,1.875-2.929,4.419-2.929,7.071c0,2.652,1.054,5.196,2.929,7.071
			c16.654,16.654,35.521,29.772,55.658,39.382c-37.551-0.568-74.068-11.292-105.801-31.108c-4.684-2.924-10.852-1.5-13.778,3.185
			c-2.925,4.685-1.5,10.854,3.185,13.778c35.799,22.356,77.137,34.172,119.543,34.172c14.83,0,29.659-1.453,44.089-4.308
			c13.169,2.636,26.55,3.966,39.933,3.966c51.725,0,103.451-19.689,142.829-59.067C490.989,414.42,512,363.697,512,309.743
			C512,255.79,490.99,205.066,452.839,166.914z M279.161,87.076c56.446,15.239,105.111,54.188,131.603,107.772l-74.711,74.711
			C333.375,189.737,311.311,122.554,279.161,87.076z M400.176,233.719c17.972,21.244,27.771,47.881,27.771,76.024
			c0,31.503-12.267,61.119-34.543,83.394c-43.602,43.602-113.127,45.854-159.414,6.768L400.176,233.719z M219.803,414.091
			c25.812,22.345,58.008,33.523,90.208,33.523c35.322,0,70.645-13.445,97.536-40.336c51.403-51.403,53.67-133.614,6.813-187.743l9-9
			c51.796,59.103,49.527,149.368-6.831,205.725c-56.357,56.358-146.623,58.628-205.725,6.83L219.803,414.091z M438.698,438.43
			c-68.585,68.586-178.745,70.876-250.112,6.879l8.049-8.049c32.225,28.687,72.798,43.041,113.376,43.041
			c43.697,0,87.394-16.633,120.66-49.899c64.157-64.158,66.437-167.109,6.859-234.036l8.051-8.051
			c30.012,33.422,46.423,76.162,46.423,121.427C492.001,358.355,473.071,404.057,438.698,438.43z"/>
	</g>
</g>
<g>
	<g>
		<path d="M348.248,333.839l-3.091-3.091c-3.905-3.905-10.237-3.905-14.142,0c-3.905,3.905-3.905,10.236,0,14.142l3.092,3.091
			c1.953,1.953,4.512,2.929,7.071,2.929s5.119-0.976,7.071-2.929C352.153,344.077,352.153,337.745,348.248,333.839z"/>
	</g>
</g>
<g>
	<g>
		<path d="M314.021,368.066l-3.091-3.09c-3.905-3.904-10.237-3.905-14.141,0.001c-3.906,3.906-3.905,10.237,0.001,14.142l3.091,3.09
			c1.953,1.952,4.511,2.928,7.07,2.928s5.119-0.977,7.072-2.93C317.926,378.302,317.925,371.97,314.021,368.066z"/>
	</g>
</g>
<g>
	<g>
		<path d="M357.56,380.47l-3.091-3.091c-3.904-3.905-10.236-3.905-14.141,0c-3.905,3.905-3.905,10.237,0,14.142l3.091,3.091
			c1.953,1.953,4.512,2.929,7.071,2.929s5.119-0.976,7.071-2.929C361.464,390.708,361.464,384.376,357.56,380.47z"/>
	</g>
</g>
<g>
	<g>
		<path d="M390.858,345.543l-3.091-3.09c-3.905-3.904-10.236-3.905-14.141,0.002c-3.905,3.905-3.904,10.237,0.001,14.141l3.091,3.09
			c1.953,1.952,4.511,2.928,7.07,2.928s5.119-0.977,7.072-2.93C394.764,355.779,394.763,349.448,390.858,345.543z"/>
	</g>
</g>
<g>
	<g>
		<path d="M380.001,302.085l-3.091-3.091c-3.905-3.905-10.237-3.905-14.142,0c-3.905,3.905-3.905,10.237,0,14.142l3.092,3.091
			c1.953,1.953,4.512,2.929,7.071,2.929s5.119-0.976,7.071-2.929C383.906,312.322,383.906,305.991,380.001,302.085z"/>
	</g>
</g>
<g>
</g>
<g>
</g>
<g>
</g>
<g>
</g>
<g>
</g>
<g>
</g>
<g>
</g>
<g>
</g>
<g>
</g>
<g>
</g>
<g>
</g>
<g>
</g>
<g>
</g>
<g>
</g>
<g>
</g>
</svg>
