<svg xmlns="http://www.w3.org/2000/svg" viewBox="0 0 19.04 50"><defs><style>.cls-1{fill:#13d8b9;}</style></defs><title>Espinaca</title><g id="Capa_2" data-name="Capa 2"><g id="Receta"><path class="cls-1" d="M17.64,14.23A40.29,40.29,0,0,0,10.1.64L9.52,0,9,.64A40,40,0,0,0,1.4,14.23,27.27,27.27,0,0,0,.46,27.75,27.84,27.84,0,0,0,8.75,42.31V50h1.54V42.31a27.84,27.84,0,0,0,8.29-14.56A27.27,27.27,0,0,0,17.64,14.23Zm-.58,13.25A25.67,25.67,0,0,1,10.29,40.1V29.18L14.44,25l-1.09-1.09-3.06,3V17.92H8.75v5.43L5.69,20.29,4.6,21.39l4.15,4.14v7.3L6.42,30.5,5.33,31.59,8.75,35V40.1A25.75,25.75,0,0,1,2,27.48a25.8,25.8,0,0,1,.88-12.74A40,40,0,0,1,9.52,2.36a39.6,39.6,0,0,1,6.66,12.38A25.69,25.69,0,0,1,17.06,27.48Z"/><rect class="cls-1" x="8.75" y="15.01" width="1.55" height="1.46"/><rect class="cls-1" x="8.75" y="12.09" width="1.55" height="1.46"/></g></g></svg>