<svg xmlns="http://www.w3.org/2000/svg" viewBox="0 0 50 50"><defs><style>.cls-1{fill:#13d8b9;}</style></defs><title>Hinojo</title><g id="Capa_2" data-name="Capa 2"><g id="Receta"><path class="cls-1" d="M12.49,34.59a1,1,0,0,0-1.38,0s-2.39,2.57-4.76,5.07a1,1,0,0,0,.71,1.65,1,1,0,0,0,.71-.31c2.37-2.51,4.75-5,4.77-5.08A1,1,0,0,0,12.49,34.59Z"/><path class="cls-1" d="M5.42,42.11a1,1,0,0,0-1.38,0H4a1,1,0,0,0,0,1.37,1,1,0,0,0,.69.29,1,1,0,0,0,.69-.28h0A1,1,0,0,0,5.42,42.11Z"/><path class="cls-1" d="M49.71,10.84a1,1,0,0,0-1.09-.19L33.47,17.47,49.28,1.67A1,1,0,0,0,49.49.6a1,1,0,0,0-.9-.6h0A15.79,15.79,0,0,0,38.22,3.83l.71-1.12a1,1,0,0,0-1.18-1.43,23.35,23.35,0,0,0-11.25,9.3l-9,14.25L1.93,39.38A5.88,5.88,0,0,0,0,43.93,6.38,6.38,0,0,0,6.33,50a5.86,5.86,0,0,0,1-.09,6,6,0,0,0,4.09-2.82c1.85-3,9.59-16,10.85-18.11l7.45-2.82a1,1,0,1,0-.69-1.83l-3.94,1.49,4.46-4.45L46.82,13.6a18.79,18.79,0,0,1-9.16,7.47l-2.23.85a1,1,0,0,0,.35,1.89.91.91,0,0,0,.35-.07l2.22-.84a20.59,20.59,0,0,0,11.57-11A1,1,0,0,0,49.71,10.84ZM9.77,46.07A4,4,0,0,1,7,48,4.41,4.41,0,0,1,2,43.86a3.88,3.88,0,0,1,1.3-3C5.7,38.52,15.71,29.18,18.31,26.75l2.05,1.66C18.54,31.47,11.52,43.23,9.77,46.07ZM21.39,26.74l-1.72-1.4-.12-.09,8.61-13.62a21.25,21.25,0,0,1,7.29-7.07Zm7-6.94a.86.86,0,0,0-.13.14l-.61.61,6-9.52a.9.9,0,0,0,.19-.15L38.72,6A13.89,13.89,0,0,1,46,2.19Z"/><path class="cls-1" d="M33.47,23.27a1,1,0,0,0-1.38,0,1,1,0,0,0-.28.69,1,1,0,0,0,.28.69,1,1,0,0,0,.69.29.94.94,0,0,0,.69-.29,1,1,0,0,0,.29-.69A1,1,0,0,0,33.47,23.27Z"/></g></g></svg>