<svg xmlns="http://www.w3.org/2000/svg" viewBox="0 0 50 50"><defs><style>.cls-1{fill:#13d8b9;}</style></defs><title>Jengibre</title><g id="Capa_2" data-name="Capa 2"><g id="Receta"><path class="cls-1" d="M48.64,20.29a6.33,6.33,0,0,0-.5-8.4l-.09-.09A6.17,6.17,0,0,0,43.6,10a6.08,6.08,0,0,0-4.39,1.92l-1.82,1.92a17,17,0,0,1,.86-2.45l1.38-3.11A5.89,5.89,0,0,0,28.91,3.39L27.62,6.13a23.38,23.38,0,0,0-2,13.49c.31,2.07.63,4.14.82,5.43L26,24.33a8.67,8.67,0,0,1-1.18-2.61l-.66-2.47a5.32,5.32,0,0,0-6.48-3.74l-.1,0A5.19,5.19,0,0,0,14,22.18l.37,1.11A9.09,9.09,0,0,0,2.3,36.75a8.81,8.81,0,0,0,5,11.41A8.15,8.15,0,0,0,12.49,50a8.81,8.81,0,0,0,1.62-.16,1,1,0,0,0-.39-1.92,6.25,6.25,0,1,1,5-6.13,6.41,6.41,0,0,1-.21,1.64,1,1,0,0,0,1.88.5,8.2,8.2,0,0,0-2-7.84,3.59,3.59,0,0,0-.17-.34,8,8,0,0,0,.69-2.23,20.56,20.56,0,0,0,4.09,4L24.92,39a10.81,10.81,0,0,1,4,5.75l.19.67A6.29,6.29,0,0,0,35.13,50a5.92,5.92,0,0,0,1.1-.1l2.89-.5A6.31,6.31,0,0,0,44,41.18l-.78-2.32a1.77,1.77,0,0,1,.62-2L45.06,36a3.25,3.25,0,0,0,1.28-2.35,3.17,3.17,0,0,0-.94-2.51,3.24,3.24,0,0,0-3.84-.54.57.57,0,0,1-.45-.48.55.55,0,0,1,.12-.43Zm-8-7a4.17,4.17,0,0,1,3-1.32h.06a4.22,4.22,0,0,1,3,1.23l.09.09a4.39,4.39,0,0,1,.35,5.81L46,20.5a8.75,8.75,0,0,0-6.18-6.37ZM29.39,7l1.29-2.74a3.94,3.94,0,0,1,7.29,3,8.94,8.94,0,0,0-5.8-.9,9.07,9.07,0,0,0-3,1.09C29.26,7.23,29.32,7.1,29.39,7Zm-1.47,4.2,0,0A7,7,0,0,1,32.51,8.2,7.09,7.09,0,0,1,37.19,9l-.72,1.63a18,18,0,0,0-1.53,6.2,7.78,7.78,0,0,0-7.37,2.37A21.35,21.35,0,0,1,27.92,11.16ZM16.06,19a3.21,3.21,0,0,1,2-1.58l.11,0a3.1,3.1,0,0,1,.85-.11,3.35,3.35,0,0,1,3.24,2.47l.24.88a7.23,7.23,0,0,0-5.77,3.64l-.91-2.72A3.22,3.22,0,0,1,16.06,19ZM2,30.7A7.16,7.16,0,0,1,9.1,23.55a7,7,0,0,1,2.69.54,8.09,8.09,0,0,0-1-.07,8.18,8.18,0,0,0-8,10.06A7.07,7.07,0,0,1,2,30.7Zm10.54,2.89a8.21,8.21,0,0,0-8.2,8.2A8.52,8.52,0,0,0,4.38,43a6.84,6.84,0,0,1,6.1-9.91,6.74,6.74,0,0,1,2.53.49Zm4.33.29a8.77,8.77,0,0,0-12.17-.49,6.41,6.41,0,0,1-.1-1.16,6.25,6.25,0,1,1,12.49,0A6.19,6.19,0,0,1,16.82,33.88ZM41.76,45.41a4.32,4.32,0,0,1-3,2.06L35.89,48A4.34,4.34,0,0,1,31,44.86h0a8.59,8.59,0,0,1,10.64-4.72l.56,1.66A4.36,4.36,0,0,1,41.76,45.41Zm-7.3-18.09a1,1,0,0,0,1.16.74,13,13,0,0,1,4.52-.16l-.44.56a2.57,2.57,0,0,0-.53,1.89,2.54,2.54,0,0,0,2.51,2.2h.12a1,1,0,0,0,.48-.13l.22-.13A1.27,1.27,0,0,1,44,32.5a1.24,1.24,0,0,1,.37,1,1.21,1.21,0,0,1-.5.92l-1.22.92A3.69,3.69,0,0,0,41.19,38,10.59,10.59,0,0,0,30.1,42.37a12.79,12.79,0,0,0-4-5l-.25-.18a13,13,0,0,1,3.61-5.91,1,1,0,0,0,0-1.38,1,1,0,0,0-1.38-.05A14.89,14.89,0,0,0,24.17,36l0,0A18.05,18.05,0,0,1,17.8,27.4,5.23,5.23,0,0,1,23,22.58a11,11,0,0,0,1.34,2.83l.82,1.25a1.78,1.78,0,0,0,2,.72h0a1.84,1.84,0,0,0,1.28-2c-.11-.72-.3-1.92-.51-3.31a5.81,5.81,0,0,1,6.9-3.25v2a1,1,0,0,0,2,0V18c0-.26,0-.51,0-.76,0,0,0,0,0,0l1.31-1.38a6.77,6.77,0,0,1,6.05,6.87c-1,1.23-1.94,2.45-2.75,3.48a14.76,14.76,0,0,0-6.31,0A1,1,0,0,0,34.46,27.32Z"/></g></g></svg>