<svg xmlns="http://www.w3.org/2000/svg" viewBox="0 0 50 43.05"><defs><style>.cls-1{fill:#13d8b9;}</style></defs><title>Patata</title><g id="Capa_2" data-name="Capa 2"><g id="Receta"><path class="cls-1" d="M30.63,24.66h0a1,1,0,0,0-1,1v0a1,1,0,0,0,1,1h0a1,1,0,0,0,1-1v0A1,1,0,0,0,30.63,24.66Z"/><path class="cls-1" d="M31.17,21.65c-.1-.43-.22-.87-.35-1.3a26.78,26.78,0,0,0-5.53-9.8,1,1,0,0,0-1.47,1.3A24.84,24.84,0,0,1,29,20.93c.11.38.22.77.31,1.16a1,1,0,0,0,.95.76l.22,0A1,1,0,0,0,31.17,21.65Z"/><path class="cls-1" d="M27.66,30.74h-.54a1,1,0,1,0,0,1.95h.54a1,1,0,0,0,0-1.95Z"/><path class="cls-1" d="M20.19,31.26h-.54a1,1,0,1,0,0,1.95h.54a1,1,0,0,0,0-1.95Z"/><path class="cls-1" d="M18.53,35.41H18a1,1,0,0,0,0,2h.54a1,1,0,0,0,0-2Z"/><path class="cls-1" d="M13.21,31.26h-.54a1,1,0,0,0,0,1.95h.54a1,1,0,1,0,0-1.95Z"/><path class="cls-1" d="M24.82,34.75h-.53a1,1,0,0,0,0,2h.53a1,1,0,1,0,0-2Z"/><path class="cls-1" d="M49,10.14A11,11,0,0,0,29.21,7.61l-.65,1-.47-.55L25.26,4.88A14.44,14.44,0,0,0,1.91,21.62l.67,1.16A42.48,42.48,0,0,1,6.83,33.16a13.22,13.22,0,0,0,11,9.75,15.78,15.78,0,0,0,2,.14,14.84,14.84,0,0,0,9.54-3.5l2.45,1a13.31,13.31,0,0,0,15.47-4.38,13.4,13.4,0,0,0,2.68-8V16.43A20.38,20.38,0,0,0,49,10.14Zm-29.17,31A12.72,12.72,0,0,1,18.09,41a11.26,11.26,0,0,1-9.37-8.31A44.8,44.8,0,0,0,4.28,21.81l-.67-1.17A12.48,12.48,0,0,1,23.8,6.17l2.83,3.2a28.71,28.71,0,0,1,5.9,10.44,18.91,18.91,0,0,1-1.4,14.55A12.88,12.88,0,0,1,19.83,41.09Zm28.22-13h0A11.36,11.36,0,0,1,32.56,38.68l-1.63-.63a14.79,14.79,0,0,0,1.92-2.76,20.59,20.59,0,0,0,2.4-7.87,20.82,20.82,0,0,0-.86-8.19,30.59,30.59,0,0,0-4.55-9l1-1.58a9.08,9.08,0,0,1,16.28,2.09,18.29,18.29,0,0,1,.91,5.68Z"/><path class="cls-1" d="M38.05,30.74h-.54a1,1,0,1,0,0,1.95h.54a1,1,0,0,0,0-1.95Z"/><path class="cls-1" d="M36.38,34.9h-.53a1,1,0,1,0,0,2h.53a1,1,0,1,0,0-2Z"/><path class="cls-1" d="M42.68,34.24h-.53a1,1,0,1,0,0,1.95h.53a1,1,0,1,0,0-1.95Z"/><path class="cls-1" d="M38.5,6.43a1,1,0,0,0,0,2h0a1,1,0,1,0,0-2Z"/><path class="cls-1" d="M45.29,11.36a7.15,7.15,0,0,0-2.41-3.43,1,1,0,0,0-1.2,1.54A5.17,5.17,0,0,1,43.43,12a14.46,14.46,0,0,1,.71,4.47V21a1,1,0,0,0,2,0V16.43A16.44,16.44,0,0,0,45.29,11.36Z"/></g></g></svg>