<svg xmlns="http://www.w3.org/2000/svg" viewBox="0 0 50 31.64"><defs><style>.cls-1{fill:#13d8b9;}</style></defs><title>Pez</title><g id="Capa_2" data-name="Capa 2"><g id="Receta"><path class="cls-1" d="M46.6,11.29a25.15,25.15,0,0,0-8.26-4.72h0a28.24,28.24,0,0,0-4.43-1.14A16.52,16.52,0,0,0,25,.07a2.83,2.83,0,0,0-3.46,2.77v4A35.11,35.11,0,0,0,11,14.46,9.56,9.56,0,0,0,8.55,9.53C5.74,6.72,1.21,6.84,1,6.84a1.07,1.07,0,0,0-1,1c0,.19-.12,4.72,2.69,7.53A8,8,0,0,0,5,17a8.25,8.25,0,0,0-2.32,1.6C-.12,21.39,0,25.92,0,26.11a1.06,1.06,0,0,0,1,1h.17c.86,0,4.82-.14,7.36-2.69a9.66,9.66,0,0,0,2.46-5,38.62,38.62,0,0,0,7,5.69v3.69a2.83,2.83,0,0,0,2.83,2.83,2.91,2.91,0,0,0,.82-.12A16.11,16.11,0,0,0,27,28.64a18.61,18.61,0,0,0,2.56.19,26.72,26.72,0,0,0,8.57-1.44h0C44.68,25.16,50,20.47,50,16.94,50,15.26,48.79,13.25,46.6,11.29ZM4.19,13.9A8.2,8.2,0,0,1,2.17,9a8.16,8.16,0,0,1,4.89,2,8.14,8.14,0,0,1,2,4.83A8,8,0,0,1,4.19,13.9Zm2.87,9a8.31,8.31,0,0,1-4.89,2,8.2,8.2,0,0,1,2-4.9,8.29,8.29,0,0,1,4.89-2A8.23,8.23,0,0,1,7.06,23ZM23.67,2.84a.71.71,0,0,1,.27-.57.69.69,0,0,1,.6-.14,14.8,14.8,0,0,1,6,3c-.32,0-.64,0-1,0a18.72,18.72,0,0,0-5.9,1ZM21,29.5a.72.72,0,0,1-.94-.69V26.32A24.13,24.13,0,0,0,24.25,28,13.07,13.07,0,0,1,21,29.5Zm8.54-2.78a15.46,15.46,0,0,1-2.69-.24,21.61,21.61,0,0,1-7.3-2.86,36.39,36.39,0,0,1-8-6.68A33.56,33.56,0,0,1,23,8.53h0a17.31,17.31,0,0,1,6.54-1.36,24.2,24.2,0,0,1,3.59.27A25.78,25.78,0,0,1,35.88,8a13.83,13.83,0,0,0-3.62,9.17,13.56,13.56,0,0,0,3.49,8.72A24.12,24.12,0,0,1,29.57,26.72ZM38,25.19a11.32,11.32,0,0,1-3.65-8,11.52,11.52,0,0,1,3.8-8.43c6,2.26,9.72,6.24,9.72,8.19S44.15,22.94,38,25.19Z"/><path class="cls-1" d="M41.91,15.65a1.05,1.05,0,0,0-1,1.06v.47a1,1,0,0,0,2.1,0v-.47A1.05,1.05,0,0,0,41.91,15.65Z"/><path class="cls-1" d="M31,9.85a1.06,1.06,0,0,0-1.49,0q-.16.16-.3.33a1.05,1.05,0,1,0,1.61,1.36l.21-.24A1,1,0,0,0,31,9.85Z"/><path class="cls-1" d="M30.86,22.76A8.66,8.66,0,0,1,29,17.14a10,10,0,0,1,.63-3.54,1.06,1.06,0,0,0-2-.76,12.2,12.2,0,0,0-.77,4.3,10.77,10.77,0,0,0,2.36,7,1.05,1.05,0,0,0,.8.36,1,1,0,0,0,.69-.26A1,1,0,0,0,30.86,22.76Z"/></g></g></svg>