<svg xmlns="http://www.w3.org/2000/svg" viewBox="0 0 31.59 50"><defs><style>.cls-1{fill:#13d8b9;}</style></defs><title>Remolacha</title><g id="Capa_2" data-name="Capa 2"><g id="Receta"><path class="cls-1" d="M27.23,22.59a16.13,16.13,0,0,0-7.79-3.39c-.42-.07-.83-.12-1.24-.16l.05-.63c5.35-4.55,11.34-9.06,11.4-9.11l.73-.54L27,5.43l-.44.12c-3.26.93-6,3.4-7.73,5.38L19.78,0h-8l.91,10.93C10.91,8.94,8.19,6.48,5,5.55L4.5,5.42,1.17,8.76l.72.54c.06,0,6.05,4.55,11.41,9.11l0,.63c-.32,0-.66.07-1,.13a16.15,16.15,0,0,0-7.88,3.32C1.5,25,0,28.54,0,33.13c0,8.33,4.77,9.2,8.61,9.9,3.24.6,5.59,1,5.59,5.08v.33L15.76,50l1.63-1.55v-.34c0-4,2.34-4.48,5.59-5.08,3.83-.7,8.61-1.57,8.61-9.9C31.59,28.6,30.12,25.05,27.23,22.59Zm-8.59-8.87c3.21-4.4,6.39-6,8-6.52L28,8.59c-1.6,1.22-5.62,4.32-9.56,7.61ZM3.56,8.59,5,7.2c3.74,1.27,6.72,4.83,8,6.5l.21,2.5C9.18,12.91,5.16,9.81,3.56,8.59Zm14.51-7-1,11.77-.47,5.59H14.92l-.47-5.59-1-11.77ZM22.7,41.49c-3.16.57-6.73,1.23-6.88,6.28l0,0,0,0c-.15-5.06-3.72-5.72-6.88-6.29-3.76-.69-7.32-1.34-7.32-8.36,0-4.1,1.31-7.28,3.89-9.44a14.75,14.75,0,0,1,7.11-3c.64-.1,1.23-.15,1.68-.19a25.86,25.86,0,0,1,3.05,0c.61,0,1.25.12,1.89.22a14.61,14.61,0,0,1,7,3c2.52,2.16,3.8,5.3,3.8,9.35C30,40.15,26.46,40.8,22.7,41.49Z"/><path class="cls-1" d="M9.92,24.82a8.55,8.55,0,0,0-5.19,8.31H6.3a7,7,0,0,1,4.24-6.86,11.8,11.8,0,0,1,4.45-1V23.66A13.57,13.57,0,0,0,9.92,24.82Z"/><rect class="cls-1" x="4.73" y="34.7" width="1.57" height="1.58"/><rect class="cls-1" x="18.14" y="33.92" width="4.73" height="1.57"/><rect class="cls-1" x="19.72" y="26.03" width="4.73" height="1.57"/></g></g></svg>