<svg xmlns="http://www.w3.org/2000/svg" viewBox="0 0 46.01 50"><defs><style>.cls-1{fill:#13d8b9;}</style></defs><title>Aguacate</title><g id="Capa_2" data-name="Capa 2"><g id="Receta"><path class="cls-1" d="M12.88,44.15h-.05a1,1,0,1,0,0,2h.06a1,1,0,0,0,0-2Z"/><path class="cls-1" d="M9.5,43.28A7,7,0,0,1,6.69,33.8a1,1,0,0,0-.4-1.32,1,1,0,0,0-1.32.4A9,9,0,0,0,8.56,45a1,1,0,0,0,.47.12,1,1,0,0,0,.47-1.83Z"/><path class="cls-1" d="M45.65,34a12.83,12.83,0,0,0-5.74-7.94,34.05,34.05,0,0,1-6.76-5.5,1,1,0,1,0-1.41,1.34,35.66,35.66,0,0,0,7.14,5.82A10.93,10.93,0,0,1,33.37,48h-.24A11,11,0,0,1,22.21,37.36a35.57,35.57,0,0,0-2.92-13.08l-3.1-7.17a4.74,4.74,0,0,1,8.16-4.71l1.77,2.38a1,1,0,0,0,1.57-1.16l-1.77-2.38a6.7,6.7,0,0,0-7.15-2.46,6.59,6.59,0,0,0-1-1.36h.36a10.39,10.39,0,0,0,3.42-.61,15.19,15.19,0,0,0,4.68-2.69.94.94,0,0,0,.32-.74,1,1,0,0,0-.34-.73A12.79,12.79,0,0,0,21.66.37a9.66,9.66,0,0,0-9,2.09A10.24,10.24,0,0,0,10.56.2,1,1,0,0,0,9.27.28L7.39,2.15a1,1,0,0,0-.28.74,1,1,0,0,0,.35.7A6.1,6.1,0,0,1,9.29,6.31a6.67,6.67,0,0,0-3.06,4.87l-.9,7.76A33.67,33.67,0,0,1,1.54,31,12.86,12.86,0,0,0,19.07,48.4,12.79,12.79,0,0,0,23,45a14.15,14.15,0,0,0,1.23,1.34,12.77,12.77,0,0,0,8.85,3.54h.29A12.87,12.87,0,0,0,45.65,34ZM24,3.44A13.39,13.39,0,0,1,20.89,5a7,7,0,0,1-7-1A8.27,8.27,0,0,1,24,3.44ZM10,2.3a8.6,8.6,0,0,1,2,3,5.8,5.8,0,0,0-.94.19A8,8,0,0,0,9.47,2.84Zm8.12,44.4A10.93,10.93,0,0,1,3.25,32a35.41,35.41,0,0,0,4-12.78l.9-7.76A4.74,4.74,0,0,1,17,9.57a6.69,6.69,0,0,0-2.57,8.32l3.1,7.16a33.78,33.78,0,0,1,2.75,12.37,12.83,12.83,0,0,0,1.63,5.88A11.15,11.15,0,0,1,18.13,46.7Z"/><path class="cls-1" d="M30.6,17.54l0,0a1,1,0,0,0-1.37-.2,1,1,0,0,0-.2,1.36l0,0a1,1,0,0,0,1.36.21A1,1,0,0,0,30.6,17.54Z"/><path class="cls-1" d="M35.74,29h0L27.4,25.58a1,1,0,0,0-1.33.77l-1.22,8.87a.09.09,0,0,0,0,.05,8.1,8.1,0,0,0,7.93,9.35h.07a8.44,8.44,0,0,0,7.28-4.34,6.34,6.34,0,0,0,.9-3.37A8.41,8.41,0,0,0,35.74,29Zm2.7,10.31a6.5,6.5,0,0,1-5.6,3.39h-.05a6.14,6.14,0,0,1-6-7.16.43.43,0,0,0,0-.11l1-7.54L35,30.77l0,0a6.39,6.39,0,0,1,4,6.15A4.4,4.4,0,0,1,38.44,39.28Z"/></g></g></svg>