<svg xmlns="http://www.w3.org/2000/svg" viewBox="0 0 50 50"><defs><style>.cls-1{fill:#13d8b9;}</style></defs><title>Repollo</title><g id="Capa_2" data-name="Capa 2"><g id="Receta"><path class="cls-1" d="M15.82,3A1,1,0,1,0,15,4.44a1,1,0,0,0,.48-.12h0A1,1,0,0,0,15.82,3Z"/><path class="cls-1" d="M40.8,7.71A20.88,20.88,0,0,0,18.37,1a1,1,0,0,0-.64,1.22A1,1,0,0,0,19,2.81a18.94,18.94,0,0,1,19.36,5,2.57,2.57,0,0,1-1.39,1.95,9.39,9.39,0,0,1-1.15.42,8.35,8.35,0,0,0-5.07-1.71h-.48a11.78,11.78,0,0,1-5.41-1,7.61,7.61,0,0,0-10,3.92,5.17,5.17,0,0,1-1.68-1.64,1,1,0,0,0-1.63,1.08,7.66,7.66,0,0,0,1.17,1.38A10.72,10.72,0,0,0,3.54,22.77a10.33,10.33,0,0,0,.27,2.35A10.73,10.73,0,0,0,2.06,27,18.87,18.87,0,0,1,8.74,10.47a.73.73,0,0,0,.19-.2,19,19,0,0,1,3.62-4A1,1,0,1,0,11.3,4.78,21.21,21.21,0,0,0,7.39,9.06,20.91,20.91,0,0,0,.57,29.86,10.79,10.79,0,0,0,0,33.3,10.63,10.63,0,0,0,4.5,42a4.93,4.93,0,0,0,1.35,3.22,6.38,6.38,0,0,0,4.71,2.06h0C14.06,50,18.47,50,22.38,50a10.53,10.53,0,0,0,4-.78,23.28,23.28,0,0,1,8.78-1.73h.16A9.88,9.88,0,0,0,45,38.56s0,0,0,0A20.87,20.87,0,0,0,40.8,7.71ZM10.55,45.34A4.39,4.39,0,0,1,7.3,43.92a3.08,3.08,0,0,1-.85-1.81A34.62,34.62,0,0,0,10.85,39a1,1,0,0,0,.34-.56,12.54,12.54,0,0,0-.07-5.76s0,0,0,0a.13.13,0,0,1,.07,0l0,0a5.26,5.26,0,0,1,1.24,2.94,1,1,0,0,0,1.64.58c1.21-1.15,2.36-2.36,3.43-3.6a1,1,0,0,0,.24-.53,17.27,17.27,0,0,0-1-7.9,11.71,11.71,0,0,1,1.76,4.55,1,1,0,0,0,1.76.44,44.28,44.28,0,0,0,6.34-12.4c0-.05,0-.05,0-.05a.15.15,0,0,1,.11,0v.05a28.51,28.51,0,0,1-1.57,9.14,1,1,0,0,0,1,1.29,13.79,13.79,0,0,0,4.31-.9,15.55,15.55,0,0,1-6.33,3.1,1,1,0,0,0-.62.5A40.39,40.39,0,0,1,20,35.54a1,1,0,0,0-.14.89,1,1,0,0,0,.64.62c1.6.49,5.27,1.19,12.08.39-4.64,1.73-10.72,2-14.95,1.67a1,1,0,0,0-.8.31A46.08,46.08,0,0,1,10.55,45.34ZM43.33,29a12.54,12.54,0,0,0-.44,6.89,7.4,7.4,0,0,1,.2,1.94,7.94,7.94,0,0,1-7.78,7.72h-.14a25.26,25.26,0,0,0-9.51,1.87,8.71,8.71,0,0,1-3.28.64c-3.29,0-7,0-9.86-1.78A48.81,48.81,0,0,0,18,41.09c2.7.17,9.89.36,15.81-2a1.89,1.89,0,0,0-.94-3.63,35,35,0,0,1-10.42.06,40.17,40.17,0,0,0,2.64-4.44,15.91,15.91,0,0,0,7.81-4.51,1.71,1.71,0,0,0-2.08-2.65,11.09,11.09,0,0,1-3.3,1.1,30.53,30.53,0,0,0,1.23-8.32,2,2,0,0,0-4-.62A41.85,41.85,0,0,1,19.9,26.15a14,14,0,0,0-3-5,1.71,1.71,0,0,0-2.76,2,15.09,15.09,0,0,1,1.68,8.36c-.6.68-1.23,1.36-1.88,2a6.19,6.19,0,0,0-1.33-2.24,2,2,0,0,0-3.39,1.94,10.26,10.26,0,0,1,.1,4.49,32.76,32.76,0,0,1-3.78,2.7,8.73,8.73,0,0,1-3.09-10l.06-.16a8.55,8.55,0,0,1,1.94-3,7.13,7.13,0,0,0,2.35,2.77,1,1,0,0,0,.52.15,1,1,0,0,0,.52-1.8,5.28,5.28,0,0,1-2-3h0v0a8.49,8.49,0,0,1-.35-2.45A8.75,8.75,0,0,1,14.23,14h0a2.3,2.3,0,0,0,2.15-1.51,5.68,5.68,0,0,1,5.34-3.75A5.53,5.53,0,0,1,24,9.24a13.71,13.71,0,0,0,6.3,1.21h.37a6.45,6.45,0,0,1,6.45,6.45v0a2.62,2.62,0,0,0,1.69,2.46,7.66,7.66,0,0,1,4.9,7.12A7.54,7.54,0,0,1,43.33,29Zm1.49,6.58s0-.09,0-.13a10.46,10.46,0,0,1,.38-5.81,9.61,9.61,0,0,0-5.63-12.09.67.67,0,0,1-.44-.63v0a8.29,8.29,0,0,0-1.78-5.16,4.27,4.27,0,0,0,2.52-2.31,18.9,18.9,0,0,1,5,26.15Z"/><path class="cls-1" d="M40.88,27.11a1,1,0,0,0-1.24.6v0a1,1,0,0,0,.6,1.24.93.93,0,0,0,.32.05,1,1,0,0,0,.93-.66v0A1,1,0,0,0,40.88,27.11Z"/><path class="cls-1" d="M41,36.32a13.9,13.9,0,0,1-.28-4.42,1,1,0,1,0-1.94-.19,15.49,15.49,0,0,0,.32,5,4.46,4.46,0,0,1,.1,1,4,4,0,0,1-3.93,3.89,1,1,0,0,0,0,1.95h0a6,6,0,0,0,5.86-5.8A5.89,5.89,0,0,0,41,36.32Z"/></g></g></svg>